<svg width="1000" height="500" viewBox="0 0 1000 500" fill="none" xmlns="http://www.w3.org/2000/svg">
	<rect width="1000" height="500" fill="#212121"/>
	<g clip-path="url(#clip0)">
		<path fill-rule="evenodd" clip-rule="evenodd"
			  d="M678.885 144.895C675.567 143.25 671.144 145.158 672.989 149.507C674.966 154.165 682.273 154.222 686.4 154.13C685.987 154.109 684.657 149.838 684.202 149.192C682.859 147.288 680.925 145.909 678.885 144.895ZM717.113 228.399C717.951 229.115 717.182 228.466 717.113 228.399V228.399ZM675.689 165.961C673.747 167.445 673.655 170.066 675.241 171.84C677.129 173.951 680.578 173.874 683.152 173.669C684.317 173.576 690.534 173.078 689.06 172.06C689.174 172.103 689.411 172.207 689.664 172.348C689.8 172.846 689.943 173.343 690.093 173.837C690.056 173.859 690.025 173.881 689.986 173.903C690.028 173.884 690.058 173.864 690.095 173.845C691.59 178.785 693.719 183.489 696.506 187.89C695.463 187.479 694.383 187.169 693.288 187.03C690.044 186.62 683.22 189.141 686.849 193.46C690.328 197.6 695.744 193.158 699.692 192.545C703.522 197.891 707.745 203.013 712.17 207.964C711.899 208.049 711.661 208.226 711.524 208.502C709.749 207.601 707.899 206.313 706.256 205.964C703.885 205.461 699.024 205.156 697.232 207.278C695.028 209.888 697.39 212.007 699.994 212.508C703.77 213.234 708.713 211.389 712.346 210.143C712.761 210.216 713.215 210.094 713.486 209.762C713.566 209.736 713.646 209.71 713.725 209.685C718.206 214.612 722.859 219.376 727.483 224.036C727.434 224.034 727.385 224.031 727.333 224.028C726.127 223.237 724.833 222.588 723.431 222.248C720.186 221.457 716.369 221.453 713.736 223.801C711.113 226.138 710.184 230.226 712.897 232.851C718.328 238.105 726.33 226.126 729.07 225.626C733.769 230.312 738.738 234.69 743.786 238.98C743.212 238.805 742.625 238.677 742.017 238.619C737.068 238.145 725.451 244.213 731.525 250.183C736.818 255.385 742.944 245.372 747.21 241.87C751.966 245.869 756.748 249.84 761.396 253.965C758.861 253.292 756.411 253.193 753.694 254.014C750.882 254.865 746.344 256.988 748.122 260.785C749.93 264.646 755.379 262.889 758.216 261.663C759.764 260.995 762.867 258.738 765.592 257.788C773.009 264.79 779.433 272.502 784.296 281.588C787.333 287.26 789.637 293.321 791.258 299.55C792.294 303.525 794.333 310.203 793.925 315.378C795.871 305.02 792.352 292.579 788.561 283.321C785.075 274.808 779.859 267.334 773.748 260.607C775.282 255.995 788.188 249.343 780.472 245.058C776.375 242.793 772.179 246.552 771.283 250.533C770.668 253.269 771.605 256.707 772.6 259.362C770.678 257.312 768.679 255.327 766.62 253.408C763.775 250.756 760.861 248.181 757.919 245.638C762.767 241.084 767.354 228.065 760.855 225.936C751.257 222.801 755.879 240.559 756.548 243.887C756.738 243.899 756.886 243.841 756.995 243.718C756.942 244.023 756.879 244.349 756.803 244.677C751.173 239.836 745.459 235.09 739.934 230.133C740.431 229.765 741.223 228.359 741.845 227.611C743.249 225.924 744.592 224.162 745.573 222.188C747.124 219.07 748.619 214.095 744.509 212.261C740.039 210.262 737.915 215.888 737.884 219.245C737.863 221.566 738.495 223.771 738.824 226.047C738.927 226.756 738.531 229.955 739.497 228.579C739.452 229.086 739.445 229.454 739.468 229.714C738.476 228.82 737.491 227.916 736.513 227.005C736.559 226.89 736.592 226.765 736.6 226.619C736.652 225.619 735.645 225.233 734.939 225.526C733.649 224.3 732.371 223.058 731.115 221.791C728.455 219.108 725.756 216.348 723.076 213.529C723.657 213.029 723.426 212.338 723.97 211.807C724.513 211.278 725.582 210.985 726.221 210.494C727.826 209.257 729.158 207.455 730.121 205.681C731.711 202.75 733.766 196.603 729.121 195.206C724.333 193.764 721.903 199.682 721.595 203.382C721.536 204.098 722.072 210.557 722.483 212.902C717.524 207.664 712.646 202.228 708.226 196.699C709.566 196.686 713.365 193.941 714.133 193.192C716.007 191.364 718.986 187.327 715.701 185.19C712.78 183.295 709.179 186.04 707.93 188.708C707.724 189.147 707 193.235 706.944 195.069C705.115 192.725 703.37 190.366 701.747 187.999C700.664 186.426 699.652 184.811 698.706 183.162C698.934 183.033 699.148 182.808 699.351 182.528C704.222 181.701 710.434 174.099 704.711 171.455C701.987 170.197 699.032 172.793 697.697 174.918C697.424 175.353 696.981 177.539 696.621 179.263C693.897 173.8 691.816 168.016 690.233 162.086C690.657 161.98 691.016 161.656 691.063 161.099C693.429 159.751 695.296 158.628 696.948 156.035C697.973 154.424 699.821 150.744 696.807 149.85C692.884 148.687 690.42 154.678 690.099 157.629C690.062 157.972 690.063 158.968 690.076 159.881C689.94 159.862 689.803 159.865 689.667 159.888C688.767 156.216 688.048 152.497 687.476 148.771C689.617 148.082 689.987 136.839 688.561 135.238C685.375 131.653 683.127 136.831 683.297 139.568C683.498 142.795 684.961 145.731 686.702 148.336C686.889 148.612 686.835 148.598 686.884 148.214C686.91 148.404 686.974 148.544 687.068 148.646C686.978 150.344 686.803 152.083 686.887 153.586C687.129 157.891 687.63 162.221 688.358 166.47C688.535 167.503 688.738 168.528 688.965 169.544C687.244 168.078 684.924 166.776 684.017 166.368C681.66 165.312 678.029 164.172 675.689 165.961ZM794.201 315.392C794.092 316.893 793.821 318.268 793.315 319.401C793.695 318.111 793.986 316.769 794.201 315.392Z"
			  fill="#F2F2F2"/>
		<g opacity="0.7">
			<path opacity="0.7" fill-rule="evenodd" clip-rule="evenodd"
				  d="M743.426 246.563C752.64 246.085 764.037 251.464 765.02 261.481C765.734 268.758 765.513 276.015 766.618 283.282C767.502 289.09 769.371 294.665 771.92 299.956C774.371 305.043 779.456 309.373 780.778 314.808C781.621 318.271 781.149 323.142 779.987 326.53C778.573 330.648 779.325 330.323 782.141 333.778C787.661 340.55 792.631 347.495 796.145 355.583C801.208 367.233 804.527 380.85 802.648 393.602C802.409 395.222 802.126 401.033 799.896 401.439C797.405 401.893 798.57 398.57 798.703 397.496C799.55 390.646 800.303 384.658 799.281 377.701C795.337 350.857 776.079 333.171 763.54 310.388C762.851 309.213 761.396 306.416 760.384 304.57C758.787 301.656 757.181 296.111 755.018 293.951C750.946 289.88 754.69 298.063 755.483 299.626C756.487 301.602 757.591 303.702 758.619 305.433C763.323 313.46 768.574 322.221 773.433 330.495C752.419 335.283 737.62 310.02 731.981 293.411C727.335 279.727 721.776 247.734 743.426 246.563Z"
				  fill="#69A1AC"/>
			<path opacity="0.7" fill-rule="evenodd" clip-rule="evenodd"
				  d="M866.932 221.152C851.528 222.374 841.638 232.539 837.035 246.756C834.554 254.418 834.269 262.289 832.891 270.162C830.816 282.009 826.354 290.986 817.632 299.425C814.931 302.039 812.94 304.723 811.525 307.594C808.716 310.461 806.27 313.705 804.474 317.671C802.179 322.736 801.529 328.813 804.179 333.862C804.891 335.22 806.669 337.945 808.511 339.183C801.615 353.87 797.823 369.956 798.25 386.021C798.508 395.719 798.982 405.42 799.534 415.106C799.683 417.707 800.53 422.001 801.802 417.64C802.966 413.65 801.506 407.387 801.371 403.22C800.714 382.916 800.152 364.455 808.51 345.486C809.386 343.498 810.315 341.526 811.283 339.57C811.34 339.537 811.393 339.497 811.446 339.458C811.483 339.487 811.516 339.517 811.553 339.545C811.615 339.435 811.7 339.304 811.798 339.157C812.076 338.871 812.318 338.509 812.549 338.105C813.29 337.077 814.129 335.87 814.134 335.21C814.134 335.205 814.131 335.197 814.131 335.191C819.305 326.746 825.231 318.765 831.284 310.941C831.239 310.998 837.85 301.996 836.828 306.974C836.335 309.373 831.472 313.941 829.508 316.483C825.163 322.136 820.061 329.299 815.822 336.225C815.251 336.553 814.445 338.163 813.862 339.362C813.541 339.969 813.24 340.582 812.945 341.115C827.968 346.078 839.653 336.081 847.622 324.452C847.632 324.439 847.64 324.424 847.649 324.411C850.074 321.198 852.558 318.007 855.661 315.467C860.839 311.229 866.383 310.481 872.488 308.395C889.135 302.707 896.212 281.133 898.46 265.125C900.997 247.065 888.591 219.371 866.932 221.152Z"
				  fill="#89C5CC"/>
			<path opacity="0.7" fill-rule="evenodd" clip-rule="evenodd"
				  d="M836.503 170.577C820.693 187.031 813.055 209.854 807.007 231.31C800.252 255.275 795.79 279.608 795.619 304.524C795.506 320.893 795.061 337.365 796.016 353.716C796.355 359.522 796.934 365.339 797.855 371.084C797.93 371.556 799.99 384.382 801.96 381.393C803.081 379.694 799.849 368.088 799.605 366.155C798.231 355.267 797.912 344.3 797.979 333.333C798.089 315.278 797.557 297.315 799.387 279.326C799.66 276.64 799.876 273.819 800.514 271.191C801.191 268.398 800.328 269.617 802.535 268.511C804.679 267.436 807.328 267.59 809.553 266.241C818.376 260.891 822.89 247.147 826.403 238.13C830.421 227.818 832.863 216.822 834.813 205.97C836.245 197.997 837.269 190.072 837.849 181.997C838.031 179.451 838.042 176.79 838.542 174.287C838.677 173.612 839.353 172.418 839.329 171.82C839.277 170.555 838.513 169.811 838.451 168.748C837.789 169.343 837.139 169.953 836.503 170.577Z"
				  fill="#89C5CC"/>
			<path opacity="0.7" fill-rule="evenodd" clip-rule="evenodd"
				  d="M750.295 389.81C750.295 417.023 772.355 439.082 799.568 439.082C826.78 439.082 848.84 417.023 848.84 389.81"
				  fill="#89C5CC"/>
			<path opacity="0.7" fill-rule="evenodd" clip-rule="evenodd"
				  d="M803.521 389.967H800.917C801.098 386.701 801.337 383.44 801.883 380.21C803.971 367.856 810.502 349.712 824.825 347.707C825.353 347.632 827.297 347.619 829.651 347.757C830.767 347.134 832.017 346.757 833.334 346.67C845.529 345.771 859.147 355.609 865.029 365.847C869.771 374.101 868.972 384.941 866.044 393.71C864.082 399.581 859.802 407.952 852.663 408.034C843.732 408.136 843.302 397.097 843.129 390.644C842.899 382.065 841.815 374.592 835.055 368.744C833.48 367.382 831.758 366.183 830.166 364.84C827.674 362.737 824.92 360.584 824.599 357.106C824.156 352.307 826.865 351.443 831.001 352.335C831.706 352.486 838.809 355.673 837.757 353.154C837.436 352.385 836.264 351.775 834.784 351.318C830.954 350.902 826.386 350.418 825.073 350.707C810.901 353.816 805.384 373.446 803.919 385.918C803.76 387.264 803.633 388.614 803.521 389.967V389.967Z"
				  fill="#69A1AC"/>
		</g>
	</g>
	<g clip-path="url(#clip1)">
		<path
			d="M549.678 265.28H318.185C317.472 265.279 316.788 264.995 316.284 264.491C315.779 263.986 315.496 263.303 315.495 262.589V47.6083C315.496 46.895 315.779 46.2112 316.284 45.7068C316.788 45.2024 317.472 44.9187 318.185 44.9177H549.678C550.392 44.9187 551.075 45.2024 551.58 45.7068C552.084 46.2112 552.368 46.895 552.369 47.6083V262.589C552.368 263.302 552.084 263.986 551.58 264.49C551.076 264.995 550.392 265.279 549.678 265.279V265.28Z"
			fill="#6F6F70"/>
		<path
			d="M586.17 297.429H354.677C353.963 297.428 353.28 297.144 352.775 296.64C352.271 296.136 351.987 295.452 351.986 294.738V79.7575C351.987 79.0442 352.271 78.3604 352.775 77.856C353.28 77.3516 353.963 77.0678 354.677 77.0669H586.17C586.883 77.0678 587.567 77.3516 588.071 77.856C588.576 78.3604 588.859 79.0442 588.86 79.7575V294.738C588.86 295.451 588.576 296.135 588.071 296.64C587.567 297.144 586.883 297.428 586.17 297.429V297.429Z"
			fill="#484849"/>
		<path
			d="M543.074 173.441H397.773C397.059 173.441 396.375 173.157 395.871 172.652C395.367 172.148 395.083 171.464 395.082 170.751V106.985C395.083 106.272 395.367 105.588 395.871 105.083C396.375 104.579 397.059 104.295 397.773 104.294H543.074C543.787 104.295 544.471 104.579 544.976 105.083C545.48 105.588 545.764 106.272 545.764 106.985V170.751C545.764 171.464 545.48 172.148 544.976 172.652C544.471 173.157 543.787 173.441 543.074 173.441Z"
			fill="#5158BF"/>
		<path
			d="M420.307 131.561C419.823 131.562 419.359 131.755 419.017 132.097C418.675 132.44 418.483 132.904 418.483 133.387C418.483 133.871 418.675 134.335 419.017 134.678C419.359 135.02 419.823 135.213 420.307 135.214H520.54C521.024 135.213 521.487 135.02 521.829 134.678C522.171 134.335 522.363 133.871 522.363 133.387C522.363 132.904 522.171 132.44 521.829 132.097C521.487 131.755 521.024 131.562 520.54 131.561H420.307Z"
			fill="#484849"/>
		<path
			d="M420.307 142.522C419.823 142.523 419.359 142.716 419.017 143.058C418.675 143.4 418.483 143.865 418.483 144.348C418.483 144.832 418.675 145.296 419.017 145.639C419.359 145.981 419.823 146.174 420.307 146.175H471.478C471.961 146.174 472.425 145.981 472.767 145.639C473.109 145.296 473.301 144.832 473.301 144.348C473.301 143.865 473.109 143.4 472.767 143.058C472.425 142.716 471.961 142.523 471.478 142.522H420.307Z"
			fill="#484849"/>
		<path
			d="M376.454 196.945C375.97 196.946 375.507 197.138 375.165 197.481C374.823 197.823 374.631 198.287 374.631 198.771C374.631 199.255 374.823 199.719 375.165 200.062C375.507 200.404 375.97 200.597 376.454 200.598H564.392C564.876 200.597 565.34 200.404 565.681 200.062C566.023 199.719 566.215 199.255 566.215 198.771C566.215 198.287 566.023 197.823 565.681 197.481C565.34 197.138 564.876 196.946 564.392 196.945H376.454Z"
			fill="#979697"/>
		<path
			d="M376.454 207.906C375.97 207.907 375.507 208.099 375.165 208.442C374.823 208.784 374.631 209.248 374.631 209.732C374.631 210.216 374.823 210.68 375.165 211.023C375.507 211.365 375.97 211.558 376.454 211.559H515.33C515.814 211.558 516.277 211.365 516.619 211.023C516.961 210.68 517.153 210.216 517.153 209.732C517.153 209.248 516.961 208.784 516.619 208.442C516.277 208.099 515.814 207.907 515.33 207.906H376.454Z"
			fill="#979697"/>
		<path
			d="M376.454 218.619C375.97 218.62 375.507 218.812 375.165 219.155C374.823 219.497 374.631 219.961 374.631 220.445C374.631 220.929 374.823 221.393 375.165 221.736C375.507 222.078 375.97 222.271 376.454 222.272H564.392C564.876 222.271 565.34 222.078 565.681 221.736C566.023 221.393 566.215 220.929 566.215 220.445C566.215 219.961 566.023 219.497 565.681 219.155C565.34 218.812 564.876 218.62 564.392 218.619H376.454Z"
			fill="#979697"/>
		<path
			d="M376.454 229.58C375.97 229.581 375.507 229.773 375.165 230.116C374.823 230.458 374.631 230.923 374.631 231.406C374.631 231.89 374.823 232.354 375.165 232.697C375.507 233.039 375.97 233.232 376.454 233.233H515.33C515.814 233.232 516.277 233.039 516.619 232.697C516.961 232.354 517.153 231.89 517.153 231.406C517.153 230.923 516.961 230.458 516.619 230.116C516.277 229.773 515.814 229.581 515.33 229.58H376.454Z"
			fill="#979697"/>
		<path
			d="M563.23 272.226H508.154C507.44 272.226 506.756 271.942 506.252 271.437C505.747 270.933 505.464 270.249 505.463 269.536V260.711C505.464 259.998 505.747 259.314 506.252 258.81C506.756 258.305 507.44 258.022 508.154 258.021H563.23C563.943 258.022 564.627 258.305 565.132 258.81C565.636 259.314 565.92 259.998 565.921 260.711V269.536C565.92 270.249 565.636 270.933 565.132 271.437C564.627 271.942 563.943 272.226 563.23 272.226V272.226Z"
			fill="#5158BF"/>
	</g>
	<path
		d="M353.967 422.978C382.671 422.978 405.939 400.767 405.939 373.369C405.939 345.97 382.671 323.759 353.967 323.759C325.264 323.759 301.995 345.97 301.995 373.369C301.995 400.767 325.264 422.978 353.967 422.978Z"
		fill="#C5CFD6"/>
	<path fill-rule="evenodd" clip-rule="evenodd"
		  d="M427.507 318.195C433.066 314.856 442.394 319.145 442.387 323.92C442.368 338.205 429.331 405.531 428.651 409.787C427.97 414.043 420.678 415.168 420.254 409.801C419.578 401.263 418.323 371.704 419.579 358.022C420.097 352.374 420.656 346.996 421.205 342.197C414.364 354.551 403.785 372.239 389.466 395.26L381.693 391.709C387.797 371.598 392.802 357.4 396.708 349.115C403.397 334.929 409.669 322.781 412.309 318.502C416.461 311.771 423.688 314.12 427.507 318.195Z"
		  fill="#B28B67"/>
	<path fill-rule="evenodd" clip-rule="evenodd"
		  d="M382.248 380.54L408.928 317.338C415.319 307.057 433.239 319.43 431.059 325.394C426.111 338.932 400.945 382.76 399.47 386.794L382.248 380.54Z"
		  fill="#1F28CF"/>
	<path fill-rule="evenodd" clip-rule="evenodd"
		  d="M380.767 387.723C379.105 389.091 378.024 390.209 377.523 391.075C376.915 392.129 376.202 393.769 375.386 395.994C376.609 396.7 387.598 403.045 408.355 415.029C410.847 412.691 411.235 410.876 409.52 409.585C407.804 408.293 406.388 407.204 405.273 406.317L393.893 390.639C393.674 390.337 393.252 390.27 392.95 390.489C392.945 390.493 392.94 390.496 392.935 390.5L390.571 392.321C388.401 392.132 386.783 391.729 385.714 391.112C384.846 390.611 383.85 389.568 382.725 387.984L382.725 387.984C382.294 387.376 381.451 387.233 380.843 387.665C380.817 387.683 380.791 387.703 380.767 387.723Z"
		  fill="#E4E4E4"/>
	<path fill-rule="evenodd" clip-rule="evenodd"
		  d="M418.546 406.375C417.791 408.391 417.414 409.899 417.414 410.9C417.414 412.117 417.617 413.893 418.022 416.229C419.434 416.229 432.124 416.229 456.091 416.229C457.08 412.958 456.509 411.192 454.378 410.932C452.247 410.671 450.476 410.435 449.066 410.225L431.372 402.337C431.032 402.185 430.632 402.338 430.481 402.679C430.478 402.685 430.476 402.69 430.473 402.696L429.336 405.455C427.363 406.376 425.759 406.836 424.526 406.836C423.523 406.836 422.139 406.431 420.373 405.622L420.373 405.622C419.695 405.311 418.894 405.609 418.583 406.286C418.57 406.316 418.558 406.345 418.546 406.375Z"
		  fill="#E4E4E4"/>
	<path fill-rule="evenodd" clip-rule="evenodd"
		  d="M444.257 328.776C444.257 346.708 435.741 388.535 435.736 392.484L417.414 392.498C420.096 355.175 421.047 336.313 420.267 335.911C419.097 335.308 372.31 340.582 358.278 340.582C338.044 340.582 329.673 327.822 328.994 304.185H369.077C377.239 305.058 419.809 313.645 435.619 316.597C442.387 317.86 444.257 323.836 444.257 328.776Z"
		  fill="#2B44FF"/>
	<path fill-rule="evenodd" clip-rule="evenodd"
		  d="M345.37 217.446C342.26 213.795 340.155 209.321 340.506 204.308C341.52 189.864 361.627 193.041 365.538 200.332C369.45 207.622 368.985 226.114 363.93 227.417C361.914 227.937 357.62 226.664 353.249 224.03L355.992 243.439H339.793L345.37 217.446Z"
		  fill="#B28B67"/>
	<path fill-rule="evenodd" clip-rule="evenodd"
		  d="M356.305 191.929C354.17 191.579 348.422 191.338 347.362 191.338C346.684 191.338 345.95 191.493 345.549 190.871C345.22 190.362 345.341 189.5 345.243 188.909C345.129 188.222 344.967 187.545 344.803 186.868C344.338 184.944 343.634 183.114 342.649 181.395C340.801 178.171 338.093 175.646 334.675 174.176C330.9 172.553 326.629 172.182 322.569 172.511C318.224 172.863 314.29 174.297 310.188 175.647C306.279 176.933 302.184 177.44 298.095 176.812C293.976 176.179 290.863 173.946 287.388 171.827C283.831 169.657 279.766 168.238 275.561 168.565C271.635 168.869 268.017 170.49 264.771 172.655C261.735 174.681 259.229 177.118 257.814 180.548C256.292 184.238 256.293 188.289 258.796 191.55C262.424 196.277 269.158 197.499 274.761 197.378C278.002 197.308 281.185 196.716 284.245 195.64C288.325 194.205 291.852 191.772 295.669 189.798C297.46 188.872 299.312 188.111 301.253 187.563C303.137 187.031 304.992 186.787 306.697 187.925C308.502 189.129 310.118 190.311 312.182 191.065C314.162 191.788 316.259 192.192 318.369 192.176C322.473 192.144 326.519 190.865 330.505 190.009C333.755 189.311 337.233 188.614 340.547 189.286C341.93 189.566 343.95 190.144 344.449 191.582C336.043 193.105 332.742 203.501 335.112 211.133C336.391 215.252 344.079 220.068 347.068 217.902C348.962 216.53 347.813 214.729 347.068 213.54C345.643 211.263 345.156 208.338 347.793 206.753C350.067 205.386 352.459 208.633 352.504 208.629C353.129 208.58 358.53 205.525 362.252 201.067C365.923 201.285 366.48 198.864 365.604 196.884C364.727 194.905 359.255 192.413 356.305 191.929Z"
		  fill="#191847"/>
	<path fill-rule="evenodd" clip-rule="evenodd"
		  d="M396.49 280.978L420.947 270.237C425.231 265.968 429.368 262.723 433.358 260.503C434.551 260.123 436.589 260.008 434.415 263.185C432.24 266.361 430.095 269.8 430.964 270.913C431.833 272.026 434.35 270.798 435.345 272.608C436.008 273.815 431.765 275.258 422.616 276.939L404.299 290.982L396.49 280.978ZM297.614 283.936L311.445 286.681C297.535 312.603 290.076 326.341 289.066 327.897C286.795 331.396 288.914 337.81 289.697 341.187C284.787 342.33 286.723 334.94 280.509 336.483C274.838 337.891 270.029 341.506 264.74 336.631C264.09 336.032 263.614 334.158 265.831 333.197C271.354 330.804 279.514 326.321 280.837 324.581C282.641 322.208 288.233 308.66 297.614 283.936Z"
		  fill="#B28B67"/>
	<path fill-rule="evenodd" clip-rule="evenodd"
		  d="M349.037 232.188L354.873 231.187C367.586 243.519 372.773 273.145 381.245 277.067C389.255 280.774 400.61 277.187 414.106 272.342L418.239 281.577C405.976 294.844 379.852 306.053 369.262 299.654C352.332 289.424 348.423 252.884 349.037 232.188Z"
		  fill="#DB2721"/>
	<path fill-rule="evenodd" clip-rule="evenodd"
		  d="M323.594 305.535C346.996 305.535 364.21 305.535 375.236 305.535C377.596 305.535 377.151 302.128 376.81 300.408C372.873 280.564 357.505 259.173 357.505 230.925L342.609 228.589C330.288 248.405 326.027 272.803 323.594 305.535Z"
		  fill="#DDE3E9"/>
	<path fill-rule="evenodd" clip-rule="evenodd"
		  d="M318.443 285.444C307.916 304.433 299.067 318.105 291.896 326.459L281.072 324.339C288.044 281.095 308.236 249.179 341.648 228.589H344.337L347.546 228.589C360.919 274.174 364.605 304.548 358.606 319.709H312.12C312.855 308.615 315.213 296.883 318.443 285.444H318.443Z"
		  fill="#FF4133"/>
	<path fill-rule="evenodd" clip-rule="evenodd"
		  d="M626.959 177.247C631.228 174.333 634.673 170.283 635.698 164.985C638.652 149.722 616.73 147.38 610.612 153.844C604.494 160.307 599.841 179.616 604.768 182.384C606.733 183.488 611.58 183.372 616.886 181.865L608.622 201.224L625.571 205.766L626.959 177.247Z"
		  fill="#B28B67"/>
	<path fill-rule="evenodd" clip-rule="evenodd"
		  d="M621.075 162.84C618.026 171.624 615.11 175.643 612.326 174.897C608.15 173.778 605.312 170.202 603.479 169.711C602.144 169.353 601.998 171.089 602.554 172.555C603.013 173.764 606.309 175.694 605.888 177.265C605.467 178.836 602.982 176.867 602.732 177.799C602.319 179.34 601.049 182.106 603.748 182.829C606.479 183.561 614.575 184.673 616.993 181.014C618.554 178.653 620.554 173.43 622.993 165.345C623.164 165.37 623.335 165.405 623.506 165.45C625.846 166.078 627.239 168.466 626.618 170.786C626.302 171.963 625.528 172.897 624.536 173.448C625.149 175.082 625.864 176.81 626.727 178.626C632.211 177.08 637.928 169.787 635.422 160.637C635.183 156.42 632.843 153.575 629.683 151.698C627.222 149.808 624.383 148.909 621.773 148.947C616.909 148.077 612.277 148.376 610.845 148.907C609.649 153.37 610.167 154.927 617.649 156.807C619.224 158.256 620.189 160.284 621.075 162.84Z"
		  fill="#191847"/>
	<path fill-rule="evenodd" clip-rule="evenodd"
		  d="M617.319 264.786L581.434 355.261L557.365 431.751H547.861L584.657 264.786L617.319 264.786Z" fill="#997659"/>
	<path fill-rule="evenodd" clip-rule="evenodd"
		  d="M624.545 264.786C624.927 296.579 630.5 339.385 631.39 341.367C631.984 342.688 652.475 359.49 692.863 391.772L686.317 398.75C638.663 371.072 613.733 355.387 611.528 351.695C608.22 346.158 597.451 295.202 588.805 264.786H624.545Z"
		  fill="#B28B67"/>
	<path fill-rule="evenodd" clip-rule="evenodd"
		  d="M693.781 389.43C695.979 390.208 697.493 390.945 698.323 391.642C699.333 392.49 700.665 393.895 702.32 395.858C701.337 397.03 692.505 407.563 675.823 427.456C672.421 425.999 671.354 424.295 672.621 422.344C673.888 420.394 674.925 418.76 675.732 417.443L681.504 397.263C681.615 396.874 682.02 396.65 682.408 396.761C682.414 396.763 682.421 396.765 682.428 396.767L685.508 397.745C687.645 396.748 689.143 395.738 690.002 394.714C690.699 393.882 691.327 392.451 691.884 390.421L691.884 390.421C692.098 389.643 692.903 389.185 693.681 389.399C693.715 389.408 693.748 389.419 693.781 389.43Z"
		  fill="#E4E4E4"/>
	<path fill-rule="evenodd" clip-rule="evenodd"
		  d="M561.257 428.292C562.075 430.475 562.484 432.109 562.484 433.193C562.484 434.511 562.264 436.435 561.825 438.965C560.295 438.965 546.55 438.965 520.588 438.965C519.516 435.422 520.135 433.51 522.443 433.227C524.752 432.945 526.67 432.69 528.197 432.462L547.364 423.917C547.733 423.753 548.165 423.919 548.33 424.287C548.332 424.294 548.335 424.3 548.338 424.306L549.57 427.295C551.707 428.292 553.444 428.791 554.78 428.791C555.866 428.791 557.365 428.352 559.278 427.475L559.278 427.475C560.012 427.139 560.88 427.461 561.217 428.195C561.231 428.227 561.245 428.259 561.257 428.292Z"
		  fill="#E4E4E4"/>
	<path fill-rule="evenodd" clip-rule="evenodd"
		  d="M593.192 423.873L548.004 418.988L581.493 264.786H621.966L593.192 423.873Z" fill="#69A1AC"/>
	<path fill-rule="evenodd" clip-rule="evenodd"
		  d="M683.516 380.515L653.876 415.463C622.656 381.497 604.455 359.335 599.273 348.975C594.09 338.616 589.431 310.553 585.296 264.786H630.861C633.12 305.05 634.642 326.118 635.429 327.992C636.215 329.866 652.244 347.373 683.516 380.515Z"
		  fill="#89C5CC"/>
	<path fill-rule="evenodd" clip-rule="evenodd"
		  d="M561.351 248.01L535.424 260.742C528.9 261.317 523.328 262.48 518.71 264.232C517.565 264.954 516.052 266.556 520.202 266.965C524.351 267.373 528.698 267.989 529.018 269.478C529.338 270.967 526.567 272.192 527.378 274.269C527.919 275.653 532.069 273.153 539.827 266.768L564.226 261.394L561.351 248.01ZM649.433 264.138L634.376 261.544C638.404 293.026 640.627 309.746 641.046 311.702C641.987 316.105 637.358 321.74 635.258 324.837C639.783 327.89 640.687 319.7 646.376 323.66C651.569 327.274 655.034 332.776 662.273 329.917C663.164 329.565 664.371 327.863 662.5 326.038C657.84 321.489 651.321 313.816 650.657 311.552C649.751 308.464 649.343 292.66 649.433 264.138Z"
		  fill="#B28B67"/>
	<path fill-rule="evenodd" clip-rule="evenodd"
		  d="M617.75 193.772L611.712 191.611C585.109 207.396 568.894 243.871 537.015 259.087L542.348 268.695C592.538 271.305 612.919 226.92 617.75 193.772Z"
		  fill="#E87613"/>
	<path fill-rule="evenodd" clip-rule="evenodd"
		  d="M631.163 276.416C606.199 272.014 587.835 268.776 576.073 266.702C573.556 266.258 574.668 262.725 575.354 260.964C583.268 240.639 603.666 220.823 608.953 190.838L625.281 191.161C634.716 214.513 634.694 241.212 631.163 276.416Z"
		  fill="#DDE3E9"/>
	<path fill-rule="evenodd" clip-rule="evenodd"
		  d="M641.477 215.335C643.901 215.082 646 213.865 647.774 211.683C655.421 202.279 654.336 196.167 648.462 193.186C642.588 190.204 636.367 193.115 626.477 191.372C625.94 191.277 625.441 191.223 624.982 191.212L619.957 190.617C597.197 236.234 587.599 267.653 591.161 284.876L634.521 292.522C636.039 298.936 637.613 304.385 639.243 308.868L651.058 310.952C658.478 275.372 655.285 243.5 641.477 215.335Z"
		  fill="#FF9B21"/>
	<path fill-rule="evenodd" clip-rule="evenodd"
		  d="M629.438 266.137C626.073 277.25 622.403 285.099 618.43 289.685L634.521 292.522C632.751 285.04 631.056 276.245 629.438 266.137V266.137Z"
		  fill="black" fill-opacity="0.1"/>
	<g clip-path="url(#clip2)">
		<path
			d="M257.438 103.408L244.906 90.8671C242.798 88.758 239.379 88.7573 237.27 90.8655C237.269 90.8661 237.269 90.8666 237.268 90.8671L203.903 124.249C201.879 126.274 200.742 129.02 200.742 131.884V352.984"
			stroke="#CBCBCB" stroke-width="8"/>
		<path
			d="M183.193 352.31H218.966C220.084 352.31 220.99 353.216 220.99 354.334V355.009C220.99 356.128 220.084 357.034 218.966 357.034H183.193C182.074 357.034 181.168 356.128 181.168 355.009V354.334C181.168 353.216 182.074 352.31 183.193 352.31Z"
			fill="#AFB9C5"/>
		<path fill-rule="evenodd" clip-rule="evenodd"
			  d="M249.9 96.0501C241.202 104.748 241.202 118.851 249.9 127.55L263.264 140.913L294.764 109.414L281.4 96.0501C272.702 87.3516 258.599 87.3516 249.9 96.0501Z"
			  fill="#C5CFD6"/>
		<path
			d="M281.583 127.903C272.885 136.602 264.444 142.264 262.731 140.551C261.018 138.837 266.68 130.397 275.379 121.699C284.077 113 292.517 107.338 294.231 109.051C295.944 110.764 290.281 119.205 281.583 127.903Z"
			fill="#F2F2F2"/>
	</g>
	<g clip-path="url(#clip3)">
		<path
			d="M884.773 116.546C904.53 116.546 920.546 100.53 920.546 80.7729C920.546 61.0161 904.53 45 884.773 45C865.016 45 849 61.0161 849 80.7729C849 100.53 865.016 116.546 884.773 116.546Z"
			fill="#F2F2F2"/>
		<path
			d="M884.773 54.4494C885.891 54.4494 886.798 53.5429 886.798 52.4245C886.798 51.3062 885.891 50.3997 884.773 50.3997C883.655 50.3997 882.748 51.3062 882.748 52.4245C882.748 53.5429 883.655 54.4494 884.773 54.4494Z"
			fill="black" fill-opacity="0.1"/>
		<path
			d="M856.425 82.7978C857.543 82.7978 858.449 81.8912 858.449 80.7729C858.449 79.6546 857.543 78.748 856.425 78.748C855.306 78.748 854.4 79.6546 854.4 80.7729C854.4 81.8912 855.306 82.7978 856.425 82.7978Z"
			fill="black" fill-opacity="0.1"/>
		<path
			d="M913.121 82.7978C914.24 82.7978 915.146 81.8912 915.146 80.7729C915.146 79.6546 914.24 78.748 913.121 78.748C912.003 78.748 911.096 79.6546 911.096 80.7729C911.096 81.8912 912.003 82.7978 913.121 82.7978Z"
			fill="black" fill-opacity="0.1"/>
		<path
			d="M884.773 111.146C885.891 111.146 886.798 110.24 886.798 109.121C886.798 108.003 885.891 107.096 884.773 107.096C883.655 107.096 882.748 108.003 882.748 109.121C882.748 110.24 883.655 111.146 884.773 111.146Z"
			fill="black" fill-opacity="0.1"/>
		<path fill-rule="evenodd" clip-rule="evenodd" d="M884.773 56.4744L886.123 80.098H883.423L884.773 56.4744Z"
			  fill="#AFB9C5"/>
		<path fill-rule="evenodd" clip-rule="evenodd"
			  d="M896.719 92.7187L884.31 82.2188L886.219 80.3097L896.719 92.7187Z" fill="#AFB9C5"/>
		<path
			d="M884.773 83.4728C886.264 83.4728 887.473 82.264 887.473 80.773C887.473 79.2819 886.264 78.0731 884.773 78.0731C883.282 78.0731 882.073 79.2819 882.073 80.773C882.073 82.264 883.282 83.4728 884.773 83.4728Z"
			fill="#C5CFD6"/>
	</g>
	<g clip-path="url(#clip4)">
		<path opacity="0.2" fill-rule="evenodd" clip-rule="evenodd"
			  d="M206.294 99.4112C208.269 98.4359 210.903 99.567 209.805 102.145C208.628 104.906 204.276 104.94 201.818 104.885C202.064 104.873 202.856 102.341 203.128 101.958C203.927 100.83 205.079 100.012 206.294 99.4112ZM183.543 149.716C182.845 150.309 183.486 149.771 183.543 149.716V149.716ZM208.59 112.229C209.772 113.119 209.827 114.692 208.861 115.757C207.711 117.025 205.612 116.979 204.045 116.857C203.336 116.801 199.551 116.504 200.449 115.893C200.379 115.919 200.235 115.982 200.081 116.066C199.998 116.365 199.911 116.663 199.82 116.96C199.842 116.973 199.861 116.987 199.885 116.999C199.859 116.988 199.841 116.976 199.818 116.965C198.906 119.93 197.609 122.753 195.912 125.395C196.546 125.148 197.204 124.961 197.871 124.878C199.845 124.631 203.998 126.141 201.788 128.734C199.669 131.22 196.374 128.556 193.97 128.189C191.637 131.398 189.065 134.473 186.37 137.446C186.535 137.497 186.68 137.603 186.763 137.768C187.844 137.227 188.97 136.453 189.971 136.244C191.414 135.941 194.373 135.757 195.463 137.03C196.804 138.595 195.366 139.868 193.78 140.169C191.482 140.605 188.474 139.5 186.262 138.753C186.009 138.797 185.733 138.725 185.568 138.525C185.52 138.509 185.471 138.494 185.423 138.479C182.694 141.437 179.86 144.297 177.044 147.095C177.074 147.094 177.103 147.092 177.135 147.09C177.869 146.615 178.657 146.225 179.511 146.021C181.486 145.545 183.81 145.542 185.412 146.95C187.008 148.352 187.572 150.804 185.92 152.38C182.612 155.535 177.745 148.349 176.077 148.049C173.215 150.863 170.189 153.492 167.115 156.067C167.464 155.963 167.822 155.885 168.192 155.851C171.205 155.565 178.275 159.202 174.575 162.787C171.352 165.91 167.625 159.903 165.03 157.803C162.133 160.204 159.221 162.588 156.391 165.066C157.934 164.661 159.425 164.601 161.079 165.093C162.791 165.602 165.552 166.875 164.469 169.154C163.367 171.471 160.051 170.419 158.324 169.684C157.382 169.283 155.493 167.93 153.835 167.361C149.318 171.565 145.405 176.195 142.442 181.648C140.592 185.053 139.188 188.691 138.198 192.429C137.567 194.815 136.323 198.823 136.57 201.928C135.389 195.713 137.535 188.247 139.845 182.69C141.97 177.58 145.148 173.094 148.869 169.055C147.937 166.288 140.083 162.3 144.781 159.726C147.276 158.366 149.829 160.62 150.373 163.009C150.747 164.651 150.175 166.714 149.569 168.308C150.74 167.076 151.957 165.885 153.211 164.733C154.944 163.14 156.718 161.594 158.509 160.067C155.56 157.336 152.772 149.525 156.729 148.246C162.572 146.361 159.753 157.019 159.345 159.016C159.229 159.023 159.139 158.989 159.072 158.915C159.105 159.098 159.143 159.293 159.189 159.491C162.618 156.584 166.098 153.734 169.463 150.758C169.16 150.537 168.678 149.694 168.3 149.245C167.446 148.233 166.629 147.176 166.032 145.992C165.089 144.121 164.181 141.136 166.683 140.034C169.405 138.833 170.696 142.209 170.714 144.223C170.726 145.616 170.341 146.94 170.139 148.305C170.076 148.731 170.317 150.65 169.729 149.825C169.756 150.129 169.76 150.35 169.746 150.506C170.351 149.969 170.95 149.426 171.546 148.879C171.518 148.81 171.498 148.735 171.493 148.648C171.462 148.048 172.075 147.816 172.504 147.992C173.29 147.255 174.069 146.51 174.833 145.749C176.453 144.138 178.097 142.481 179.73 140.789C179.376 140.489 179.517 140.074 179.186 139.756C178.856 139.438 178.205 139.263 177.816 138.968C176.839 138.226 176.029 137.145 175.443 136.081C174.476 134.323 173.227 130.635 176.055 129.795C178.97 128.928 180.448 132.479 180.634 134.699C180.67 135.129 180.341 139.005 180.091 140.412C183.111 137.267 186.082 134.004 188.774 130.684C187.958 130.677 185.647 129.031 185.18 128.582C184.039 127.486 182.227 125.064 184.228 123.781C186.007 122.643 188.198 124.289 188.957 125.889C189.082 126.153 189.521 128.606 189.555 129.706C190.669 128.299 191.732 126.883 192.721 125.462C193.381 124.518 193.997 123.548 194.574 122.558C194.435 122.481 194.305 122.346 194.181 122.178C191.216 121.683 187.437 117.124 190.922 115.535C192.58 114.779 194.378 116.336 195.19 117.611C195.356 117.872 195.625 119.184 195.844 120.218C197.504 116.939 198.772 113.467 199.738 109.908C199.48 109.845 199.261 109.651 199.233 109.316C197.793 108.508 196.657 107.835 195.652 106.279C195.028 105.313 193.905 103.105 195.74 102.568C198.128 101.869 199.626 105.463 199.82 107.234C199.843 107.439 199.842 108.037 199.834 108.585C199.917 108.574 200.001 108.575 200.083 108.589C200.632 106.386 201.071 104.153 201.42 101.918C200.117 101.505 199.895 94.7577 200.764 93.7966C202.704 91.6445 204.071 94.7512 203.967 96.3936C203.843 98.3301 202.952 100.092 201.892 101.656C201.778 101.822 201.81 101.814 201.781 101.583C201.765 101.697 201.726 101.781 201.668 101.842C201.723 102.861 201.829 103.905 201.777 104.807C201.629 107.39 201.322 109.988 200.878 112.538C200.77 113.159 200.646 113.774 200.507 114.384C201.555 113.503 202.968 112.721 203.521 112.476C204.955 111.842 207.166 111.156 208.59 112.229ZM136.336 201.683C136.405 202.513 136.611 203.27 137.015 203.891C136.718 203.182 136.495 202.443 136.336 201.683Z"
			  fill="#C1DEE2"/>
		<g opacity="0.5">
			<path opacity="0.5" fill-rule="evenodd" clip-rule="evenodd"
				  d="M188.29 183.991C190.655 180.635 195.043 172.111 198.372 170.911C200.516 170.139 199.891 178.13 199.917 179.653C200.02 185.548 199.444 191.405 198.732 197.251C197.449 207.793 193.255 217.181 187.502 226.153C184.542 230.77 181.07 235.443 176.261 238.323C174.047 239.65 171.384 239.872 169.198 241.015C166.652 242.346 168.038 241.27 166.891 243.911C165.297 247.577 164.788 252.307 164.051 256.22C160.666 274.179 152.47 369.117 153.891 387.385C154.017 389.004 151.749 389.391 151.636 387.414C151.034 376.933 156.242 304.352 158.869 280.616C161.497 256.88 164.156 235.91 166.822 227.698C170.056 217.735 175.897 205.754 180.76 196.464C183.018 192.147 185.48 187.98 188.29 183.991Z"
				  fill="#69A1AC"/>
			<path opacity="0.5" fill-rule="evenodd" clip-rule="evenodd"
				  d="M205.842 300.406C211.996 295.91 218.656 304.396 213.088 308.894C210.01 311.38 206.792 310.496 204.98 308.424C203.804 309.851 202.703 311.343 201.646 312.603C198.423 316.444 195.377 320.375 192.466 324.399C186.419 332.758 181.237 341.589 175.819 350.259C170.472 358.815 165.167 367.416 160.321 376.189C156.215 383.622 150.743 392.367 149.337 400.515C151.47 383.233 159.563 366.622 169.2 351.386C178.759 336.276 189.729 319.773 204.529 307.848C203.023 305.643 202.981 302.496 205.842 300.406Z"
				  fill="#C1DEE2"/>
			<path opacity="0.5" fill-rule="evenodd" clip-rule="evenodd"
				  d="M89.0766 258.258C92.52 258.928 98.1466 266.682 100.985 269.636C104.358 273.147 107.419 276.889 110.303 280.809C116.514 289.248 122.068 298.221 126.791 307.577C134.49 322.83 140.659 338.488 145.135 355.098C147.875 365.266 149.65 375.804 150.701 386.268C150.9 388.242 152.978 403.458 149.983 403.868C147.289 404.237 148.121 392.314 147.991 390.692C146.522 372.395 142.121 354.592 136 337.347C134.666 333.59 133.427 328.988 131.295 325.607C129.759 323.172 131.284 324.021 128.585 323.1C126.268 322.308 123.628 322.502 121.255 321.532C116.1 319.428 111.972 315.343 108.354 311.234C101.323 303.248 95.751 294.609 92.8465 284.377C91.2354 278.703 89.7548 272.997 88.9331 267.148C88.7206 265.636 86.8587 257.826 89.0766 258.258Z"
				  fill="#69A1AC"/>
			<path opacity="0.5" fill-rule="evenodd" clip-rule="evenodd"
				  d="M102.665 129.25C115.636 151.641 126.295 176.237 133.177 201.149C137.347 216.243 140.264 231.732 143.161 247.108C147.647 270.917 151.891 294.725 153.098 318.957C154.312 343.329 156.713 371.44 148.696 394.914C152.701 371.081 148.888 345.713 148.213 321.732C147.89 310.284 146.955 298.948 145.729 287.567C144.539 276.526 142.595 265.538 140.784 254.585C139.902 249.25 138.976 243.924 138.033 238.6C137.751 237.012 137.632 232.299 136.62 231.214C135.601 230.121 130.404 229.676 128.772 228.875C125.486 227.261 122.395 224.968 119.659 222.545C114.415 217.902 109.853 211.834 106.252 205.852C97.9212 192.012 94.5904 175.122 94.7587 159.093C94.7911 155.981 99.8191 122.469 97.7998 122.007C97.9214 121.865 98.0364 121.719 98.1448 121.567C99.6736 124.115 101.174 126.68 102.665 129.25Z"
				  fill="#89C5CC"/>
			<path opacity="0.5" fill-rule="evenodd" clip-rule="evenodd"
				  d="M242.663 210.005C242.863 209.718 244.165 207.72 243.509 207.847C244.845 207.587 241.672 210.051 245 208.539C243.42 210.025 244.332 211.954 244.353 213.953C244.387 217.199 243.842 220.418 243.228 223.594C242.257 228.614 240.812 233.495 238.714 238.165C234.14 248.34 226.375 258.136 217.155 264.498C212.604 267.639 208.144 268.709 202.953 270.155C199.674 271.068 199.414 272.756 197.674 275.923C194.051 282.519 190.492 289.092 187.297 295.91C183.481 304.053 179.777 312.204 176.283 320.489C164.513 348.399 154.933 377.313 149.902 407.237C149.779 389.603 153.877 371.442 159.047 354.633C162.812 342.387 167.715 330.583 172.943 318.897C174.21 316.067 176.13 312.425 176.668 309.3C177.045 307.11 175.893 305.004 175.366 302.697C173.31 293.714 173.457 283.65 175.262 274.619C177.253 264.66 183.01 260.038 192.748 258.627C196.31 258.111 200.837 258.3 204.102 256.789C207.66 255.143 209.128 249.732 211.151 246.259C216.586 236.929 223.042 227.981 230.456 220.12C232.509 217.943 234.717 215.935 237.059 214.074C238.536 212.899 241.656 211.452 242.663 210.005Z"
				  fill="#89C5CC"/>
			<path opacity="0.5" fill-rule="evenodd" clip-rule="evenodd"
				  d="M133.463 388.192H168.024C169.578 388.192 170.838 389.446 170.838 390.993C170.838 391.13 170.828 391.266 170.808 391.402L168.137 409.432C167.322 414.928 162.584 419 157.002 419H144.485C138.904 419 134.165 414.928 133.351 409.432L130.68 391.402C130.453 389.871 131.516 388.448 133.053 388.222C133.189 388.202 133.326 388.192 133.463 388.192Z"
				  fill="#C1DEE2"/>
		</g>
	</g>
	<defs>
		<clipPath id="clip0">
			<rect width="226.787" height="305.082" fill="white" transform="translate(672 134)"/>
		</clipPath>
		<clipPath id="clip1">
			<rect width="273.359" height="252.435" fill="white" transform="translate(315.495 45)"/>
		</clipPath>
		<clipPath id="clip2">
			<rect width="114.068" height="270.659" fill="white" transform="matrix(-1 0 0 1 296.068 83)"/>
		</clipPath>
		<clipPath id="clip3">
			<rect width="71.5459" height="71.5459" fill="white" transform="translate(849 45)"/>
		</clipPath>
		<clipPath id="clip4">
			<rect width="157" height="326" fill="white" transform="translate(88 93)"/>
		</clipPath>
	</defs>
</svg>
