<svg width="405" height="374" viewBox="0 0 405 374" fill="none" xmlns="http://www.w3.org/2000/svg">
	<style>
		.doc {
			fill: white;
		}

		.text {
			fill: #e5e4e6;
		}

		.back {
			fill: #f8f8f9;
		}

		.cadre {
			fill: #5158bf;
		}
	</style>
	<g clip-path="url(#clip0)">
		<path
			d="M346.959 326.361H3.98634C2.92953 326.359 1.91638 325.939 1.1691 325.191C0.421815 324.444 0.00137852 323.431 0 322.374V3.8656C0.00138645 2.80879 0.421831 1.79565 1.16911 1.04837C1.9164 0.30109 2.92953 -0.119344 3.98634 -0.120728H346.959C348.016 -0.119344 349.029 0.30109 349.776 1.04837C350.523 1.79565 350.944 2.80879 350.945 3.8656V322.373C350.944 323.43 350.524 324.444 349.776 325.191C349.029 325.938 348.016 326.359 346.959 326.36V326.361Z"
			class="back"/>
		<path
			d="M401.023 373.99H58.0508C56.9939 373.989 55.9808 373.569 55.2335 372.821C54.4862 372.074 54.0658 371.061 54.0644 370.004V51.4955C54.0658 50.4387 54.4862 49.4256 55.2335 48.6783C55.9808 47.931 56.9939 47.5106 58.0508 47.5092H401.023C402.08 47.5106 403.093 47.931 403.84 48.6783C404.588 49.4256 405.008 50.4387 405.01 51.4955V370.003C405.008 371.06 404.588 372.074 403.841 372.821C403.093 373.568 402.08 373.989 401.023 373.99V373.99Z"
			class="doc"/>
		<path
			d="M401.023 373.99H58.0508C56.9939 373.989 55.9808 373.569 55.2335 372.821C54.4862 372.074 54.0658 371.061 54.0644 370.004V51.4955C54.0658 50.4387 54.4862 49.4256 55.2335 48.6783C55.9808 47.931 56.9939 47.5106 58.0508 47.5092H401.023C402.08 47.5106 403.093 47.931 403.84 48.6783C404.588 49.4256 405.008 50.4387 405.01 51.4955V370.003C405.008 371.06 404.588 372.074 403.841 372.821C403.093 373.568 402.08 373.989 401.023 373.99V373.99ZM58.0508 49.1006C57.4174 49.102 56.8103 49.3542 56.3625 49.802C55.9146 50.2499 55.6624 50.8569 55.661 51.4903V370.003C55.6624 370.637 55.9146 371.244 56.3625 371.692C56.8103 372.14 57.4174 372.392 58.0508 372.393H401.023C401.657 372.392 402.264 372.14 402.712 371.692C403.16 371.244 403.412 370.637 403.413 370.003V51.4955C403.412 50.8621 403.159 50.2551 402.711 49.8073C402.264 49.3594 401.657 49.1072 401.023 49.1058L58.0508 49.1006Z"
			class="text"/>
		<path
			d="M337.174 190.295H121.9C120.843 190.293 119.83 189.873 119.083 189.126C118.335 188.378 117.915 187.365 117.914 186.308V91.835C117.915 90.7781 118.335 89.7649 119.083 89.0175C119.83 88.2702 120.843 87.8498 121.9 87.8487H337.174C338.231 87.8499 339.244 88.2702 339.991 89.0175C340.738 89.7649 341.159 90.7781 341.16 91.835V186.308C341.159 187.365 340.739 188.378 339.991 189.126C339.244 189.873 338.231 190.293 337.174 190.295Z"
			class="cadre"/>
		<path
			d="M155.286 128.246C154.569 128.247 153.882 128.533 153.376 129.04C152.869 129.547 152.585 130.235 152.585 130.952C152.585 131.669 152.869 132.356 153.376 132.864C153.882 133.371 154.569 133.657 155.286 133.658H303.788C304.505 133.657 305.192 133.371 305.698 132.864C306.205 132.356 306.489 131.669 306.489 130.952C306.489 130.235 306.205 129.547 305.698 129.04C305.192 128.533 304.505 128.247 303.788 128.246H155.286Z"
			class="doc"/>
		<path
			d="M155.286 144.485C154.569 144.486 153.882 144.772 153.376 145.28C152.869 145.787 152.585 146.474 152.585 147.191C152.585 147.908 152.869 148.596 153.376 149.103C153.882 149.611 154.569 149.896 155.286 149.898H231.099C231.816 149.896 232.503 149.611 233.01 149.103C233.516 148.596 233.8 147.908 233.8 147.191C233.8 146.474 233.516 145.787 233.01 145.28C232.503 144.772 231.816 144.486 231.099 144.485H155.286Z"
			class="doc"/>
		<path
			d="M90.3158 225.116C89.599 225.117 88.912 225.403 88.4055 225.911C87.8991 226.418 87.6147 227.106 87.6147 227.822C87.6147 228.539 87.8991 229.227 88.4055 229.734C88.912 230.242 89.599 230.527 90.3158 230.529H368.758C369.475 230.527 370.162 230.242 370.668 229.734C371.175 229.227 371.459 228.539 371.459 227.822C371.459 227.106 371.175 226.418 370.668 225.911C370.162 225.403 369.475 225.117 368.758 225.116H90.3158Z"
			class="text"/>
		<path
			d="M90.3158 241.356C89.599 241.357 88.912 241.643 88.4055 242.15C87.8991 242.657 87.6147 243.345 87.6147 244.062C87.6147 244.779 87.8991 245.466 88.4055 245.974C88.912 246.481 89.599 246.767 90.3158 246.768H296.069C296.786 246.767 297.473 246.481 297.98 245.974C298.486 245.466 298.77 244.779 298.77 244.062C298.77 243.345 298.486 242.657 297.98 242.15C297.473 241.643 296.786 241.357 296.069 241.356H90.3158Z"
			class="text"/>
		<path
			d="M90.3158 257.228C89.599 257.229 88.912 257.515 88.4055 258.022C87.8991 258.53 87.6147 259.217 87.6147 259.934C87.6147 260.651 87.8991 261.338 88.4055 261.846C88.912 262.353 89.599 262.639 90.3158 262.64H368.758C369.475 262.639 370.162 262.353 370.668 261.846C371.175 261.338 371.459 260.651 371.459 259.934C371.459 259.217 371.175 258.53 370.668 258.022C370.162 257.515 369.475 257.229 368.758 257.228H90.3158Z"
			class="text"/>
		<path
			d="M90.3158 273.467C89.599 273.469 88.912 273.754 88.4055 274.262C87.8991 274.769 87.6147 275.457 87.6147 276.174C87.6147 276.89 87.8991 277.578 88.4055 278.085C88.912 278.593 89.599 278.879 90.3158 278.88H296.069C296.786 278.879 297.473 278.593 297.98 278.085C298.486 277.578 298.77 276.89 298.77 276.174C298.77 275.457 298.486 274.769 297.98 274.262C297.473 273.754 296.786 273.469 296.069 273.467H90.3158Z"
			class="text"/>
		<path
			d="M367.036 336.651H285.437C284.38 336.65 283.367 336.229 282.62 335.482C281.872 334.735 281.452 333.722 281.451 332.665V319.591C281.452 318.534 281.872 317.521 282.62 316.773C283.367 316.026 284.38 315.606 285.437 315.604H367.036C368.093 315.606 369.107 316.026 369.854 316.773C370.601 317.521 371.022 318.534 371.023 319.591V332.665C371.022 333.722 370.601 334.735 369.854 335.482C369.107 336.229 368.093 336.65 367.036 336.651V336.651Z"
			class="cadre"/>
	</g>
	<defs>
		<clipPath id="clip0">
			<rect width="405" height="374" class="doc"/>
		</clipPath>
	</defs>
</svg>
