<svg width="380" height="480" viewBox="0 0 380 480" fill="none" xmlns="http://www.w3.org/2000/svg">
	<path fill-rule="evenodd" clip-rule="evenodd"
		  d="M221.13 90.7409C227.455 86.4236 232.56 80.4238 234.078 72.5751C238.454 49.9607 205.976 46.491 196.911 56.0677C187.847 65.6444 180.954 94.2506 188.254 98.3523C191.165 99.9881 198.346 99.8161 206.206 97.5839L193.963 126.266L219.074 132.994L221.13 90.7409Z"
		  fill="#B28B67"/>
	<path fill-rule="evenodd" clip-rule="evenodd"
		  d="M212.413 69.397C207.896 82.4108 203.575 88.3651 199.451 87.2601C193.264 85.6023 189.058 80.3032 186.344 79.5758C184.365 79.0456 184.149 81.6183 184.973 83.7896C185.653 85.5809 190.535 88.4401 189.912 90.7677C189.288 93.0953 185.607 90.1789 185.237 91.5594C184.625 93.8428 182.743 97.94 186.741 99.0115C190.788 100.096 202.782 101.743 206.366 96.323C208.678 92.825 211.641 85.0865 215.254 73.1073C215.507 73.1442 215.761 73.1963 216.014 73.2641C219.482 74.1932 221.546 77.7321 220.625 81.1686C220.158 82.9132 219.011 84.296 217.541 85.1131C218.449 87.5346 219.508 90.0937 220.787 92.7841C228.912 90.4946 237.381 79.6884 233.67 66.1331C233.314 59.8845 229.848 55.6691 225.167 52.8885C221.521 50.0889 217.314 48.7562 213.447 48.8126C206.24 47.5237 199.378 47.9673 197.256 48.7542C195.485 55.3656 196.252 57.6735 207.338 60.4587C209.67 62.6055 211.1 65.6094 212.413 69.397Z"
		  fill="#191847"/>
	<path fill-rule="evenodd" clip-rule="evenodd"
		  d="M206.848 220.436L153.682 354.482L118.023 467.807H103.942L158.456 220.436L206.848 220.436Z" fill="#997659"/>
	<path fill-rule="evenodd" clip-rule="evenodd"
		  d="M217.554 220.436C218.12 267.541 226.377 330.959 227.696 333.896C228.575 335.853 258.934 360.746 318.771 408.575L309.073 418.913C238.47 377.906 201.535 354.668 198.268 349.199C193.367 340.995 177.412 265.5 164.602 220.436H217.554Z"
		  fill="#B28B67"/>
	<path fill-rule="evenodd" clip-rule="evenodd"
		  d="M320.132 405.103C323.39 406.254 325.633 407.346 326.864 408.378C328.36 409.634 330.334 411.716 332.787 414.623C331.33 416.359 318.24 431.96 293.515 461.425C288.474 459.267 286.892 456.744 288.77 453.855C290.649 450.965 292.186 448.546 293.382 446.596L301.937 416.705C302.102 416.13 302.701 415.797 303.277 415.962C303.286 415.965 303.296 415.968 303.306 415.971L307.871 417.418C311.038 415.942 313.258 414.446 314.531 412.929C315.565 411.697 316.495 409.578 317.322 406.572L317.322 406.572C317.639 405.418 318.831 404.74 319.985 405.057C320.035 405.071 320.084 405.086 320.132 405.103Z"
		  fill="#E4E4E4"/>
	<path fill-rule="evenodd" clip-rule="evenodd"
		  d="M123.788 462.681C125 465.916 125.606 468.337 125.606 469.943C125.606 471.896 125.281 474.747 124.63 478.494C122.364 478.494 101.999 478.494 63.5342 478.494C61.9465 473.245 62.863 470.412 66.2836 469.993C69.7043 469.575 72.5459 469.197 74.8084 468.86L103.205 456.2C103.752 455.957 104.392 456.202 104.636 456.749C104.64 456.758 104.644 456.767 104.648 456.777L106.473 461.205C109.64 462.682 112.213 463.421 114.193 463.421C115.801 463.421 118.023 462.771 120.857 461.472L120.857 461.472C121.944 460.973 123.23 461.451 123.729 462.538C123.751 462.585 123.77 462.633 123.788 462.681Z"
		  fill="#E4E4E4"/>
	<path fill-rule="evenodd" clip-rule="evenodd"
		  d="M171.102 456.134L104.154 448.896L153.77 220.436H213.733L171.102 456.134Z" fill="#69A1AC"/>
	<path fill-rule="evenodd" clip-rule="evenodd"
		  d="M304.923 391.896L261.009 443.674C214.756 393.352 187.79 360.517 180.111 345.169C172.433 329.82 165.531 288.243 159.404 220.436H226.911C230.258 280.09 232.514 311.304 233.679 314.08C234.844 316.856 258.592 342.795 304.923 391.896Z"
		  fill="#89C5CC"/>
	<path fill-rule="evenodd" clip-rule="evenodd"
		  d="M123.928 195.581L85.5153 214.446C75.8492 215.296 67.5949 217.02 60.7525 219.616C59.0559 220.685 56.8145 223.059 62.9625 223.664C69.1105 224.27 75.5504 225.182 76.0243 227.388C76.4983 229.595 72.3933 231.41 73.5954 234.486C74.3968 236.537 80.5446 232.833 92.0388 223.374L128.187 215.411L123.928 195.581ZM254.427 219.477L232.119 215.633C238.087 262.276 241.381 287.047 242.001 289.946C243.396 296.468 236.538 304.818 233.426 309.406C240.13 313.929 241.47 301.795 249.899 307.662C257.592 313.017 262.725 321.168 273.451 316.932C274.77 316.411 276.559 313.89 273.788 311.185C266.883 304.445 257.225 293.078 256.241 289.723C254.898 285.149 254.294 261.733 254.427 219.477Z"
		  fill="#B28B67"/>
	<path fill-rule="evenodd" clip-rule="evenodd"
		  d="M207.487 115.224L198.541 112.023C159.127 135.409 135.104 189.45 87.8725 211.993L95.7739 226.228C170.134 230.095 200.329 164.335 207.487 115.224Z"
		  fill="#E87613"/>
	<path fill-rule="evenodd" clip-rule="evenodd"
		  d="M227.359 237.667C190.373 231.145 163.166 226.348 145.74 223.275C142.01 222.618 143.658 217.383 144.674 214.774C156.399 184.662 186.62 155.303 194.454 110.878L218.644 111.355C232.622 145.953 232.591 185.51 227.359 237.667Z"
		  fill="#DDE3E9"/>
	<path fill-rule="evenodd" clip-rule="evenodd"
		  d="M242.64 147.172C246.232 146.797 249.342 144.993 251.97 141.761C263.299 127.828 261.691 118.773 252.988 114.356C244.285 109.938 235.069 114.252 220.417 111.668C219.62 111.528 218.882 111.449 218.201 111.431L210.757 110.55C177.037 178.134 162.816 224.685 168.093 250.202L232.334 261.529C234.583 271.032 236.915 279.105 239.33 285.747L256.835 288.834C267.829 236.12 263.097 188.899 242.64 147.172Z"
		  fill="#FF9B21"/>
	<path fill-rule="evenodd" clip-rule="evenodd"
		  d="M224.803 222.438C219.817 238.903 214.381 250.532 208.494 257.325L232.334 261.529C229.711 250.444 227.201 237.414 224.803 222.438V222.438Z"
		  fill="black" fill-opacity="0.1"/>
</svg>
