<svg width="265" height="267" viewBox="0 0 265 267" fill="none" xmlns="http://www.w3.org/2000/svg">
	<path fill-rule="evenodd" clip-rule="evenodd"
		  d="M91.6441 28C93.4472 52.6096 209.607 125.064 210.284 127.096C210.586 128 198.534 156.56 174.128 212.778L184.282 216.724C221.716 157.185 239.471 124.244 237.549 117.9C234.796 108.817 204.754 78.9377 147.422 28.2617L91.6441 28Z"
		  fill="#B28B67"/>
	<path fill-rule="evenodd" clip-rule="evenodd"
		  d="M176.8 200.082L193.379 206.117C228.336 166.674 242.038 134.131 239.54 117.549C237.874 106.495 207.936 76.6652 149.724 28.0603L90.4552 28.0603C92.4775 85.0525 200.143 127.313 201.583 129.742C203.023 132.171 188.851 155.957 176.8 200.082Z"
		  fill="#2F3676"/>
	<path fill-rule="evenodd" clip-rule="evenodd"
		  d="M170.392 210.84C168.32 213.263 167.03 215.172 166.523 216.565C165.906 218.26 165.288 220.835 164.669 224.292C166.635 225.007 184.302 231.437 217.67 243.582C220.704 239.53 220.804 236.783 217.969 235.34C215.134 233.896 212.788 232.671 210.932 231.664L190.295 211.716C189.897 211.333 189.264 211.343 188.881 211.74C188.874 211.747 188.868 211.754 188.861 211.761L185.88 215.026C182.666 215.308 180.201 215.136 178.483 214.511C177.088 214.003 175.366 212.738 173.317 210.716L173.317 210.716C172.531 209.94 171.265 209.948 170.489 210.734C170.456 210.768 170.423 210.803 170.392 210.84Z"
		  fill="#E4E4E4"/>
	<path fill-rule="evenodd" clip-rule="evenodd" d="M105 28L53.254 152.227L2.39581 257.25H14.3949L145.674 28H105Z"
		  fill="#997659"/>
	<path fill-rule="evenodd" clip-rule="evenodd"
		  d="M1.67813 252.402C0.559377 255.388 0 257.623 0 259.106C0 260.909 0.300414 263.54 0.901243 267C2.99318 267 21.7938 267 57.3031 267C58.7687 262.154 57.9227 259.539 54.7648 259.152C51.607 258.766 48.9837 258.417 46.895 258.106L20.68 246.419C20.1756 246.194 19.5843 246.421 19.3595 246.925C19.3556 246.934 19.3519 246.942 19.3483 246.951L17.6632 251.039C14.7399 252.403 12.3644 253.085 10.5367 253.085C9.05173 253.085 7.00099 252.485 4.38448 251.285L4.38448 251.285C3.38038 250.825 2.19326 251.266 1.73296 252.27C1.71312 252.313 1.69483 252.357 1.67813 252.402Z"
		  fill="#E4E4E4"/>
	<path fill-rule="evenodd" clip-rule="evenodd"
		  d="M6.98856 235.433L33.6507 240.433C54.2658 210.125 140.541 85.8518 150 28H90.6441C59.0549 69.821 26.639 204.624 6.98856 235.433Z"
		  fill="#5C63AB"/>
</svg>
