<svg width="229" height="176" viewBox="0 0 229 176" fill="none" xmlns="http://www.w3.org/2000/svg">
	<path
		d="M77 176C119.526 176 154 143.093 154 102.5C154 61.9071 119.526 29 77 29C34.4741 29 0 61.9071 0 102.5C0 143.093 34.4741 176 77 176Z"
		fill="#C5CFD6"/>
	<path fill-rule="evenodd" clip-rule="evenodd"
		  d="M185.953 20.7561C194.19 15.8101 208.009 22.1647 208 29.2384C207.972 50.4029 188.657 150.151 187.648 156.457C186.64 162.762 175.837 164.428 175.208 156.477C174.207 143.827 172.347 100.033 174.208 79.7626C174.976 71.3954 175.803 63.4268 176.617 56.3176C166.482 74.6206 150.807 100.826 129.593 134.934L118.077 129.672C127.12 99.8761 134.536 78.8409 140.323 66.5665C150.233 45.5497 159.525 27.5517 163.436 21.212C169.588 11.2397 180.295 14.7192 185.953 20.7561Z"
		  fill="#B28B67"/>
	<path fill-rule="evenodd" clip-rule="evenodd"
		  d="M118.9 113.125L158.427 19.4873C167.897 4.25482 194.446 22.587 191.217 31.4217C183.885 51.4793 146.6 116.414 144.415 122.39L118.9 113.125Z"
		  fill="#1F28CF"/>
	<path fill-rule="evenodd" clip-rule="evenodd"
		  d="M116.705 123.767C114.242 125.794 112.641 127.45 111.899 128.734C110.998 130.296 109.942 132.725 108.733 136.021C110.544 137.067 126.826 146.467 157.578 164.222C161.27 160.759 161.845 158.07 159.304 156.157C156.762 154.243 154.665 152.629 153.012 151.315L136.152 128.087C135.828 127.64 135.202 127.54 134.756 127.865C134.748 127.87 134.74 127.876 134.733 127.882L131.23 130.579C128.016 130.299 125.618 129.702 124.035 128.788C122.749 128.045 121.273 126.501 119.607 124.154L119.607 124.154C118.967 123.253 117.719 123.041 116.818 123.681C116.779 123.708 116.741 123.737 116.705 123.767Z"
		  fill="#E4E4E4"/>
	<path fill-rule="evenodd" clip-rule="evenodd"
		  d="M172.678 151.402C171.559 154.388 171 156.623 171 158.106C171 159.909 171.3 162.54 171.901 166C173.993 166 192.794 166 228.303 166C229.769 161.154 228.923 158.539 225.765 158.152C222.607 157.766 219.984 157.417 217.895 157.106L191.68 145.419C191.176 145.194 190.584 145.421 190.359 145.925C190.356 145.934 190.352 145.942 190.348 145.951L188.663 150.039C185.74 151.403 183.364 152.085 181.537 152.085C180.052 152.085 178.001 151.485 175.384 150.285L175.384 150.285C174.38 149.825 173.193 150.266 172.733 151.27C172.713 151.313 172.695 151.357 172.678 151.402Z"
		  fill="#E4E4E4"/>
	<path fill-rule="evenodd" clip-rule="evenodd"
		  d="M210.77 36.433C210.77 63 198.154 124.97 198.146 130.82L171 130.841C174.973 75.5455 176.382 47.5999 175.227 47.0042C173.493 46.1107 104.176 53.925 83.3864 53.925C53.4078 53.925 41.0063 35.0204 40 0H99.3864C111.478 1.29387 174.549 14.0153 197.972 18.3884C208 20.2606 210.77 29.1145 210.77 36.433Z"
		  fill="#2B44FF"/>
</svg>
