<svg width="898" height="643" viewBox="0 0 898 643" fill="none" xmlns="http://www.w3.org/2000/svg">
	<g clip-path="url(#clip0)">
		<path fill-rule="evenodd" clip-rule="evenodd"
			  d="M572.201 180.142C567.285 177.705 560.732 180.532 563.466 186.975C566.394 193.876 577.22 193.961 583.335 193.824C582.723 193.792 580.752 187.464 580.077 186.508C578.088 183.688 575.223 181.643 572.201 180.142ZM628.839 303.859C630.079 304.919 628.94 303.958 628.839 303.859V303.859ZM567.465 211.353C564.589 213.552 564.451 217.434 566.801 220.062C569.599 223.191 574.709 223.077 578.523 222.772C580.248 222.634 589.46 221.896 587.276 220.389C587.444 220.452 587.795 220.606 588.17 220.815C588.372 221.554 588.585 222.289 588.806 223.021C588.751 223.053 588.705 223.087 588.647 223.119C588.71 223.091 588.754 223.061 588.809 223.034C591.025 230.353 594.178 237.322 598.307 243.842C596.762 243.233 595.162 242.773 593.539 242.568C588.733 241.96 578.624 245.695 583.999 252.093C589.154 258.227 597.178 251.646 603.028 250.739C608.702 258.658 614.958 266.247 621.514 273.583C621.113 273.709 620.76 273.971 620.558 274.379C617.928 273.045 615.187 271.136 612.753 270.619C609.24 269.874 602.038 269.423 599.383 272.567C596.117 276.433 599.618 279.573 603.475 280.315C609.069 281.39 616.392 278.657 621.775 276.81C622.391 276.919 623.063 276.739 623.464 276.247C623.583 276.208 623.702 276.169 623.818 276.132C630.457 283.432 637.351 290.491 644.202 297.395C644.129 297.391 644.056 297.387 643.98 297.383C642.193 296.211 640.276 295.249 638.198 294.745C633.391 293.574 627.735 293.568 623.835 297.046C619.949 300.509 618.572 306.566 622.592 310.455C630.639 318.239 642.494 300.49 646.552 299.749C653.515 306.692 660.877 313.179 668.355 319.534C667.506 319.276 666.635 319.086 665.735 319C658.402 318.298 641.191 327.288 650.19 336.133C658.032 343.84 667.109 329.005 673.428 323.817C680.475 329.741 687.56 335.624 694.446 341.737C690.69 340.74 687.061 340.593 683.035 341.809C678.869 343.07 672.146 346.216 674.78 351.84C677.459 357.56 685.531 354.957 689.735 353.141C692.029 352.151 696.626 348.808 700.663 347.4C711.651 357.774 721.169 369.2 728.375 382.661C732.873 391.065 736.287 400.044 738.69 409.273C740.223 415.163 743.245 425.056 742.64 432.723C745.524 417.377 740.31 398.946 734.693 385.229C729.529 372.616 721.8 361.543 712.747 351.576C715.019 344.743 734.14 334.888 722.709 328.54C716.639 325.184 710.422 330.753 709.095 336.652C708.183 340.705 709.572 345.798 711.046 349.733C708.198 346.694 705.237 343.754 702.187 340.911C697.971 336.982 693.654 333.166 689.295 329.399C696.477 322.652 703.274 303.364 693.645 300.21C679.425 295.565 686.272 321.874 687.264 326.806C687.546 326.822 687.765 326.737 687.927 326.555C687.847 327.006 687.754 327.489 687.641 327.976C679.3 320.803 670.835 313.772 662.648 306.428C663.386 305.883 664.558 303.8 665.48 302.691C667.56 300.192 669.549 297.581 671.004 294.657C673.301 290.037 675.516 282.666 669.427 279.949C662.805 276.988 659.658 285.323 659.611 290.296C659.58 293.735 660.517 297.002 661.004 300.373C661.157 301.424 660.57 306.163 662.002 304.125C661.934 304.876 661.925 305.421 661.958 305.807C660.488 304.482 659.03 303.142 657.581 301.793C657.648 301.623 657.698 301.437 657.709 301.222C657.787 299.739 656.295 299.168 655.249 299.602C653.337 297.785 651.443 295.945 649.583 294.069C645.642 290.093 641.643 286.004 637.672 281.828C638.534 281.087 638.191 280.062 638.997 279.277C639.801 278.493 641.386 278.059 642.331 277.331C644.711 275.498 646.684 272.828 648.11 270.2C650.466 265.858 653.51 256.75 646.629 254.681C639.536 252.544 635.935 261.312 635.479 266.794C635.39 267.856 636.185 277.424 636.794 280.899C629.446 273.138 622.219 265.085 615.672 256.892C617.657 256.874 623.285 252.806 624.423 251.696C627.2 248.989 631.613 243.008 626.746 239.842C622.418 237.035 617.083 241.101 615.232 245.053C614.928 245.704 613.856 251.761 613.772 254.479C611.062 251.004 608.477 247.51 606.072 244.004C604.468 241.673 602.969 239.28 601.567 236.837C601.904 236.646 602.222 236.312 602.522 235.897C609.74 234.672 618.942 223.41 610.464 219.491C606.427 217.628 602.05 221.474 600.072 224.623C599.667 225.267 599.011 228.506 598.477 231.061C594.443 222.967 591.359 214.397 589.013 205.611C589.641 205.455 590.173 204.975 590.243 204.149C593.748 202.151 596.515 200.488 598.962 196.646C600.481 194.26 603.218 188.808 598.753 187.484C592.941 185.76 589.291 194.636 588.816 199.008C588.76 199.516 588.762 200.992 588.781 202.344C588.58 202.317 588.376 202.32 588.176 202.355C586.841 196.915 585.776 191.404 584.928 185.885C588.1 184.864 588.649 168.206 586.537 165.834C581.816 160.523 578.486 168.195 578.738 172.249C579.036 177.03 581.202 181.38 583.782 185.239C584.059 185.648 583.98 185.628 584.051 185.059C584.091 185.34 584.185 185.548 584.325 185.698C584.192 188.215 583.932 190.792 584.057 193.019C584.414 199.396 585.157 205.811 586.236 212.106C586.498 213.637 586.798 215.156 587.135 216.661C584.586 214.489 581.148 212.559 579.803 211.956C576.313 210.391 570.933 208.702 567.465 211.353ZM743.05 432.745C742.888 434.968 742.486 437.005 741.737 438.684C742.299 436.772 742.73 434.785 743.05 432.745Z"
			  fill="#F2F2F2"/>
		<g opacity="0.7">
			<path opacity="0.7" fill-rule="evenodd" clip-rule="evenodd"
				  d="M667.822 330.77C681.474 330.062 698.359 338.031 699.815 352.871C700.873 363.653 700.546 374.405 702.183 385.172C703.492 393.776 706.261 402.036 710.038 409.874C713.67 417.411 721.203 423.827 723.162 431.879C724.411 437.01 723.712 444.227 721.99 449.245C719.896 455.347 721.009 454.865 725.182 459.985C733.359 470.018 740.723 480.307 745.93 492.29C753.43 509.55 758.348 529.725 755.564 548.618C755.21 551.017 754.79 559.627 751.486 560.229C747.796 560.902 749.522 555.978 749.719 554.387C750.974 544.238 752.09 535.367 750.575 525.059C744.732 485.288 716.201 459.085 697.623 425.331C696.602 423.59 694.446 419.445 692.947 416.711C690.58 412.393 688.201 404.179 684.997 400.977C678.963 394.947 684.511 407.071 685.686 409.385C687.173 412.313 688.808 415.425 690.332 417.99C697.302 429.882 705.082 442.862 712.28 455.121C681.147 462.214 659.221 424.785 650.866 400.178C643.982 379.905 635.746 332.505 667.822 330.77Z"
				  fill="#69A1AC"/>
			<path opacity="0.7" fill-rule="evenodd" clip-rule="evenodd"
				  d="M850.805 293.121C827.983 294.932 813.331 309.992 806.511 331.056C802.835 342.407 802.413 354.068 800.37 365.734C797.297 383.284 790.686 396.585 777.764 409.089C773.762 412.961 770.812 416.937 768.716 421.191C764.554 425.438 760.931 430.244 758.269 436.12C754.869 443.624 753.907 452.628 757.832 460.109C758.888 462.121 761.521 466.158 764.25 467.992C754.033 489.752 748.415 513.584 749.048 537.386C749.431 551.753 750.132 566.127 750.951 580.477C751.171 584.33 752.426 590.693 754.31 584.231C756.035 578.32 753.872 569.041 753.672 562.867C752.698 532.786 751.866 505.435 764.248 477.331C765.547 474.385 766.924 471.463 768.357 468.565C768.442 468.516 768.52 468.457 768.599 468.4C768.653 468.442 768.703 468.487 768.758 468.529C768.849 468.365 768.975 468.171 769.121 467.954C769.532 467.529 769.891 466.993 770.233 466.395C771.331 464.873 772.574 463.084 772.581 462.105C772.581 462.098 772.577 462.086 772.577 462.078C780.242 449.565 789.022 437.742 797.99 426.149C797.923 426.234 807.718 412.897 806.204 420.272C805.474 423.827 798.269 430.595 795.359 434.36C788.922 442.735 781.363 453.348 775.082 463.61C774.237 464.096 773.043 466.48 772.179 468.257C771.702 469.157 771.257 470.064 770.82 470.855C793.077 478.208 810.39 463.396 822.196 446.168C822.21 446.147 822.223 446.126 822.236 446.106C825.829 441.346 829.509 436.619 834.107 432.856C841.777 426.576 849.992 425.468 859.036 422.378C883.7 413.951 894.186 381.987 897.516 358.27C901.274 331.513 882.894 290.483 850.805 293.121Z"
				  fill="#89C5CC"/>
			<path opacity="0.7" fill-rule="evenodd" clip-rule="evenodd"
				  d="M805.723 218.19C782.299 242.569 770.982 276.383 762.022 308.172C752.014 343.676 745.403 379.728 745.149 416.642C744.983 440.895 744.323 465.299 745.739 489.523C746.241 498.126 747.099 506.745 748.462 515.255C748.575 515.955 751.626 534.958 754.545 530.53C756.205 528.012 751.417 510.817 751.056 507.953C749.021 491.822 748.548 475.573 748.647 459.326C748.81 432.575 748.021 405.962 750.733 379.31C751.137 375.33 751.457 371.151 752.402 367.258C753.406 363.119 752.127 364.926 755.396 363.287C758.573 361.694 762.498 361.922 765.794 359.924C778.866 351.997 785.553 331.635 790.758 318.275C796.711 302.998 800.329 286.706 803.219 270.628C805.341 258.816 806.858 247.075 807.716 235.11C807.987 231.339 808.003 227.396 808.744 223.688C808.944 222.688 809.945 220.919 809.909 220.033C809.832 218.158 808.701 217.056 808.608 215.481C807.627 216.363 806.665 217.267 805.723 218.19Z"
				  fill="#89C5CC"/>
			<path opacity="0.7" fill-rule="evenodd" clip-rule="evenodd"
				  d="M678 543C678 583.317 710.683 616 751 616C791.317 616 824 583.317 824 543" fill="#89C5CC"/>
			<path opacity="0.7" fill-rule="evenodd" clip-rule="evenodd"
				  d="M756.857 543.232H753C753.268 538.393 753.621 533.562 754.43 528.776C757.525 510.473 767.2 483.591 788.42 480.62C789.203 480.51 792.083 480.491 795.571 480.696C797.224 479.772 799.076 479.213 801.028 479.085C819.095 477.753 839.271 492.329 847.986 507.497C855.012 519.726 853.828 535.785 849.489 548.778C846.583 557.476 840.241 569.878 829.665 569.999C816.433 570.15 815.795 553.796 815.539 544.236C815.199 531.525 813.593 520.453 803.577 511.789C801.243 509.771 798.692 507.995 796.334 506.005C792.642 502.89 788.562 499.7 788.086 494.546C787.43 487.436 791.443 486.156 797.571 487.477C798.616 487.702 809.139 492.424 807.581 488.692C807.105 487.552 805.368 486.648 803.175 485.971C797.501 485.354 790.733 484.638 788.787 485.066C767.792 489.672 759.617 518.755 757.446 537.233C757.212 539.227 757.023 541.228 756.857 543.232V543.232Z"
				  fill="#69A1AC"/>
		</g>
	</g>
	<g clip-path="url(#clip1)">
		<path
			d="M602.959 326.361H259.986C258.93 326.359 257.916 325.939 257.169 325.191C256.422 324.444 256.001 323.431 256 322.374V3.8656C256.001 2.80879 256.422 1.79565 257.169 1.04837C257.916 0.30109 258.93 -0.119344 259.986 -0.120728H602.959C604.016 -0.119344 605.029 0.30109 605.776 1.04837C606.523 1.79565 606.944 2.80879 606.945 3.8656V322.373C606.944 323.43 606.524 324.444 605.776 325.191C605.029 325.938 604.016 326.359 602.959 326.36V326.361Z"
			fill="#6F6F70"/>
		<path
			d="M657.023 373.99H314.051C312.994 373.989 311.981 373.569 311.234 372.821C310.486 372.074 310.066 371.061 310.064 370.004V51.4955C310.066 50.4387 310.486 49.4256 311.234 48.6783C311.981 47.931 312.994 47.5106 314.051 47.5092H657.023C658.08 47.5106 659.093 47.931 659.84 48.6783C660.588 49.4256 661.008 50.4387 661.01 51.4955V370.003C661.008 371.06 660.588 372.074 659.841 372.821C659.093 373.568 658.08 373.989 657.023 373.99V373.99Z"
			fill="#484849"/>
		<path
			d="M593.174 190.295H377.9C376.843 190.293 375.83 189.873 375.083 189.126C374.335 188.378 373.915 187.365 373.914 186.308V91.835C373.915 90.7781 374.335 89.7649 375.083 89.0175C375.83 88.2702 376.843 87.8498 377.9 87.8487H593.174C594.231 87.8499 595.244 88.2702 595.991 89.0175C596.738 89.7649 597.159 90.7781 597.16 91.835V186.308C597.159 187.365 596.739 188.378 595.991 189.126C595.244 189.873 594.231 190.293 593.174 190.295Z"
			fill="#5158BF"/>
		<path
			d="M411.286 128.246C410.569 128.247 409.882 128.533 409.376 129.04C408.869 129.547 408.585 130.235 408.585 130.952C408.585 131.669 408.869 132.356 409.376 132.864C409.882 133.371 410.569 133.657 411.286 133.658H559.788C560.505 133.657 561.192 133.371 561.698 132.864C562.205 132.356 562.489 131.669 562.489 130.952C562.489 130.235 562.205 129.547 561.698 129.04C561.192 128.533 560.505 128.247 559.788 128.246H411.286Z"
			fill="#484849"/>
		<path
			d="M411.286 144.485C410.569 144.486 409.882 144.772 409.376 145.28C408.869 145.787 408.585 146.474 408.585 147.191C408.585 147.908 408.869 148.596 409.376 149.103C409.882 149.611 410.569 149.896 411.286 149.898H487.099C487.816 149.896 488.503 149.611 489.01 149.103C489.516 148.596 489.8 147.908 489.8 147.191C489.8 146.474 489.516 145.787 489.01 145.28C488.503 144.772 487.816 144.486 487.099 144.485H411.286Z"
			fill="#484849"/>
		<path
			d="M346.316 225.116C345.599 225.117 344.912 225.403 344.406 225.911C343.899 226.418 343.615 227.106 343.615 227.822C343.615 228.539 343.899 229.227 344.406 229.734C344.912 230.242 345.599 230.527 346.316 230.529H624.758C625.475 230.527 626.162 230.242 626.668 229.734C627.175 229.227 627.459 228.539 627.459 227.822C627.459 227.106 627.175 226.418 626.668 225.911C626.162 225.403 625.475 225.117 624.758 225.116H346.316Z"
			fill="#979697"/>
		<path
			d="M346.316 241.356C345.599 241.357 344.912 241.643 344.406 242.15C343.899 242.657 343.615 243.345 343.615 244.062C343.615 244.779 343.899 245.466 344.406 245.974C344.912 246.481 345.599 246.767 346.316 246.768H552.069C552.786 246.767 553.473 246.481 553.98 245.974C554.486 245.466 554.771 244.779 554.771 244.062C554.771 243.345 554.486 242.657 553.98 242.15C553.473 241.643 552.786 241.357 552.069 241.356H346.316Z"
			fill="#979697"/>
		<path
			d="M346.316 257.228C345.599 257.229 344.912 257.515 344.406 258.022C343.899 258.53 343.615 259.217 343.615 259.934C343.615 260.651 343.899 261.338 344.406 261.846C344.912 262.353 345.599 262.639 346.316 262.64H624.758C625.475 262.639 626.162 262.353 626.668 261.846C627.175 261.338 627.459 260.651 627.459 259.934C627.459 259.217 627.175 258.53 626.668 258.022C626.162 257.515 625.475 257.229 624.758 257.228H346.316Z"
			fill="#979697"/>
		<path
			d="M346.316 273.467C345.599 273.469 344.912 273.754 344.406 274.262C343.899 274.769 343.615 275.457 343.615 276.174C343.615 276.89 343.899 277.578 344.406 278.085C344.912 278.593 345.599 278.879 346.316 278.88H552.069C552.786 278.879 553.473 278.593 553.98 278.085C554.486 277.578 554.771 276.89 554.771 276.174C554.771 275.457 554.486 274.769 553.98 274.262C553.473 273.754 552.786 273.469 552.069 273.467H346.316Z"
			fill="#979697"/>
		<path
			d="M623.036 336.651H541.437C540.38 336.65 539.367 336.229 538.62 335.482C537.872 334.735 537.452 333.722 537.451 332.665V319.591C537.452 318.534 537.872 317.521 538.62 316.773C539.367 316.026 540.38 315.606 541.437 315.604H623.036C624.093 315.606 625.107 316.026 625.854 316.773C626.601 317.521 627.022 318.534 627.023 319.591V332.665C627.022 333.722 626.601 334.735 625.854 335.482C625.107 336.229 624.093 336.65 623.036 336.651V336.651Z"
			fill="#5158BF"/>
	</g>
	<path
		d="M313 560C355.526 560 390 527.093 390 486.5C390 445.907 355.526 413 313 413C270.474 413 236 445.907 236 486.5C236 527.093 270.474 560 313 560Z"
		fill="#C5CFD6"/>
	<path fill-rule="evenodd" clip-rule="evenodd"
		  d="M421.953 404.756C430.19 399.81 444.009 406.165 444 413.238C443.972 434.403 424.657 534.151 423.648 540.457C422.64 546.762 411.837 548.428 411.208 540.477C410.207 527.827 408.347 484.033 410.208 463.763C410.976 455.395 411.803 447.427 412.617 440.318C402.482 458.621 386.807 484.826 365.593 518.934L354.077 513.672C363.12 483.876 370.536 462.841 376.323 450.566C386.233 429.55 395.525 411.552 399.436 405.212C405.588 395.24 416.295 398.719 421.953 404.756Z"
		  fill="#B28B67"/>
	<path fill-rule="evenodd" clip-rule="evenodd"
		  d="M354.9 497.125L394.427 403.487C403.897 388.255 430.446 406.587 427.217 415.422C419.885 435.479 382.6 500.414 380.415 506.39L354.9 497.125Z"
		  fill="#1F28CF"/>
	<path fill-rule="evenodd" clip-rule="evenodd"
		  d="M352.705 507.767C350.242 509.794 348.641 511.45 347.899 512.734C346.998 514.296 345.942 516.725 344.733 520.021C346.544 521.067 362.826 530.467 393.578 548.222C397.27 544.759 397.845 542.07 395.304 540.157C392.762 538.243 390.665 536.629 389.012 535.315L372.152 512.087C371.828 511.64 371.202 511.54 370.756 511.865C370.748 511.87 370.74 511.876 370.733 511.882L367.23 514.579C364.016 514.299 361.618 513.702 360.035 512.788C358.749 512.045 357.273 510.501 355.607 508.154L355.607 508.154C354.967 507.253 353.719 507.041 352.818 507.681C352.779 507.708 352.741 507.737 352.705 507.767Z"
		  fill="#E4E4E4"/>
	<path fill-rule="evenodd" clip-rule="evenodd"
		  d="M408.678 535.402C407.559 538.388 407 540.623 407 542.106C407 543.909 407.3 546.54 407.901 550C409.993 550 428.794 550 464.303 550C465.769 545.154 464.923 542.539 461.765 542.152C458.607 541.766 455.984 541.417 453.895 541.106L427.68 529.419C427.176 529.194 426.584 529.421 426.359 529.925C426.356 529.934 426.352 529.942 426.348 529.951L424.663 534.039C421.74 535.403 419.364 536.085 417.537 536.085C416.052 536.085 414.001 535.485 411.384 534.285L411.384 534.285C410.38 533.825 409.193 534.266 408.733 535.27C408.713 535.313 408.695 535.357 408.678 535.402Z"
		  fill="#E4E4E4"/>
	<path fill-rule="evenodd" clip-rule="evenodd"
		  d="M446.77 420.433C446.77 447 434.154 508.97 434.146 514.82L407 514.841C410.973 459.545 412.382 431.6 411.227 431.004C409.493 430.111 340.176 437.925 319.386 437.925C289.408 437.925 277.006 419.02 276 384H335.386C347.478 385.294 410.549 398.015 433.972 402.388C444 404.261 446.77 413.115 446.77 420.433Z"
		  fill="#2B44FF"/>
	<path fill-rule="evenodd" clip-rule="evenodd"
		  d="M300.262 255.49C295.654 250.081 292.536 243.453 293.057 236.025C294.558 214.625 324.349 219.333 330.143 230.134C335.938 240.935 335.25 268.333 327.76 270.263C324.774 271.033 318.411 269.147 311.935 265.244L316 294H292L300.262 255.49Z"
		  fill="#B28B67"/>
	<path fill-rule="evenodd" clip-rule="evenodd"
		  d="M316.464 217.685C313.301 217.167 304.784 216.81 303.213 216.81C302.21 216.81 301.122 217.039 300.527 216.118C300.041 215.363 300.219 214.087 300.074 213.211C299.905 212.193 299.665 211.189 299.423 210.187C298.733 207.337 297.69 204.625 296.231 202.079C293.493 197.302 289.481 193.56 284.417 191.383C278.824 188.979 272.496 188.428 266.48 188.916C260.043 189.438 254.216 191.563 248.138 193.562C242.346 195.468 236.28 196.218 230.222 195.288C224.119 194.35 219.507 191.042 214.359 187.902C209.089 184.688 203.066 182.586 196.835 183.069C191.02 183.52 185.659 185.922 180.85 189.129C176.351 192.131 172.638 195.742 170.542 200.824C168.287 206.291 168.289 212.292 171.997 217.123C177.372 224.127 187.35 225.938 195.651 225.758C200.453 225.654 205.168 224.777 209.701 223.183C215.747 221.056 220.971 217.452 226.627 214.528C229.281 213.156 232.025 212.029 234.901 211.217C237.691 210.429 240.44 210.067 242.966 211.753C245.639 213.537 248.034 215.289 251.092 216.405C254.026 217.476 257.133 218.075 260.258 218.051C266.339 218.004 272.333 216.109 278.239 214.84C283.054 213.806 288.207 212.774 293.117 213.769C295.166 214.184 298.159 215.041 298.899 217.17C286.444 219.427 281.553 234.83 285.064 246.137C286.959 252.24 298.35 259.374 302.779 256.166C305.585 254.133 303.881 251.465 302.779 249.703C300.668 246.33 299.945 241.997 303.852 239.648C307.222 237.622 310.765 242.433 310.832 242.427C311.758 242.354 319.76 237.829 325.274 231.224C330.713 231.547 331.539 227.96 330.24 225.027C328.941 222.094 320.834 218.402 316.464 217.685Z"
		  fill="#191847"/>
	<path fill-rule="evenodd" clip-rule="evenodd"
		  d="M376 349.617L412.235 333.704C418.582 327.379 424.711 322.572 430.623 319.282C432.39 318.719 435.41 318.549 432.188 323.255C428.966 327.961 425.789 333.056 427.076 334.705C428.364 336.355 432.093 334.534 433.566 337.216C434.549 339.004 428.262 341.143 414.707 343.633L387.57 364.439L376 349.617ZM229.508 354L250 358.066C229.392 396.471 218.34 416.826 216.845 419.13C213.48 424.315 216.62 433.817 217.779 438.821C210.504 440.515 213.373 429.565 204.167 431.851C195.764 433.938 188.639 439.293 180.804 432.071C179.841 431.183 179.135 428.407 182.42 426.984C190.603 423.437 202.692 416.796 204.652 414.218C207.326 410.702 215.611 390.629 229.508 354Z"
		  fill="#B28B67"/>
	<path fill-rule="evenodd" clip-rule="evenodd"
		  d="M305.695 277.332L314.342 275.849C333.176 294.119 340.862 338.012 353.414 343.822C365.281 349.316 382.104 344 402.1 336.822L408.223 350.505C390.055 370.161 351.349 386.767 335.66 377.287C310.576 362.13 304.786 307.994 305.695 277.332Z"
		  fill="#DB2721"/>
	<path fill-rule="evenodd" clip-rule="evenodd"
		  d="M268 386C302.672 386 328.176 386 344.511 386C348.008 386 347.349 380.952 346.843 378.404C341.011 349.004 318.241 317.312 318.241 275.461L296.172 272C277.917 301.358 271.605 337.505 268 386Z"
		  fill="#DDE3E9"/>
	<path fill-rule="evenodd" clip-rule="evenodd"
		  d="M260.369 356.233C244.771 384.368 231.661 404.623 221.037 417L205 413.859C215.331 349.791 245.247 302.504 294.748 272H298.731L303.486 272C323.299 339.537 328.761 384.537 319.872 407H251C252.09 390.563 255.583 373.181 260.369 356.233H260.369Z"
		  fill="#FF4133"/>
	<g clip-path="url(#clip2)">
		<path
			d="M111.767 130.236L93.1995 111.656C90.0759 108.531 85.0106 108.53 81.8857 111.653C81.885 111.654 81.8842 111.655 81.8834 111.656L32.451 161.113C29.4519 164.114 27.7671 168.182 27.7671 172.424V500"
			stroke="#CBCBCB" stroke-width="8"/>
		<path
			d="M1.76709 499H54.7671C56.4239 499 57.7671 500.343 57.7671 502V503C57.7671 504.657 56.4239 506 54.7671 506H1.76709C0.110237 506 -1.23291 504.657 -1.23291 503V502C-1.23291 500.343 0.110237 499 1.76709 499Z"
			fill="#AFB9C5"/>
		<path fill-rule="evenodd" clip-rule="evenodd"
			  d="M100.599 119.335C87.7121 132.222 87.7121 153.116 100.599 166.004L120.398 185.803L167.067 139.134L147.268 119.335C134.381 106.447 113.487 106.447 100.599 119.335Z"
			  fill="#C5CFD6"/>
		<path
			d="M147.539 166.527C134.652 179.414 122.147 187.804 119.609 185.265C117.07 182.727 125.46 170.222 138.347 157.335C151.234 144.447 163.739 136.058 166.278 138.596C168.816 141.135 160.427 153.64 147.539 166.527Z"
			fill="#F2F2F2"/>
	</g>
	<path
		d="M780 162C809.271 162 833 138.271 833 109C833 79.7289 809.271 56 780 56C750.729 56 727 79.7289 727 109C727 138.271 750.729 162 780 162Z"
		fill="#F2F2F2"/>
	<path
		d="M780 70C781.657 70 783 68.6569 783 67C783 65.3431 781.657 64 780 64C778.343 64 777 65.3431 777 67C777 68.6569 778.343 70 780 70Z"
		fill="black" fill-opacity="0.1"/>
	<path
		d="M738 112C739.657 112 741 110.657 741 109C741 107.343 739.657 106 738 106C736.343 106 735 107.343 735 109C735 110.657 736.343 112 738 112Z"
		fill="black" fill-opacity="0.1"/>
	<path
		d="M822 112C823.657 112 825 110.657 825 109C825 107.343 823.657 106 822 106C820.343 106 819 107.343 819 109C819 110.657 820.343 112 822 112Z"
		fill="black" fill-opacity="0.1"/>
	<path
		d="M780 154C781.657 154 783 152.657 783 151C783 149.343 781.657 148 780 148C778.343 148 777 149.343 777 151C777 152.657 778.343 154 780 154Z"
		fill="black" fill-opacity="0.1"/>
	<path fill-rule="evenodd" clip-rule="evenodd" d="M780 73L782 108H778L780 73Z" fill="#AFB9C5"/>
	<path fill-rule="evenodd" clip-rule="evenodd" d="M797.698 126.698L779.314 111.142L782.142 108.314L797.698 126.698Z"
		  fill="#AFB9C5"/>
	<path
		d="M780 113C782.209 113 784 111.209 784 109C784 106.791 782.209 105 780 105C777.791 105 776 106.791 776 109C776 111.209 777.791 113 780 113Z"
		fill="#C5CFD6"/>
	<defs>
		<clipPath id="clip0">
			<rect width="336" height="452" fill="white" transform="translate(562 164)"/>
		</clipPath>
		<clipPath id="clip1">
			<rect width="405" height="374" fill="white" transform="translate(256)"/>
		</clipPath>
		<clipPath id="clip2">
			<rect width="169" height="401" fill="white" transform="matrix(-1 0 0 1 169 100)"/>
		</clipPath>
	</defs>
</svg>
