<svg width="890" height="643" viewBox="0 0 890 643" fill="none" xmlns="http://www.w3.org/2000/svg">
	<g clip-path="url(#clip0)">
		<path opacity="0.2" fill-rule="evenodd" clip-rule="evenodd"
			  d="M210.216 14.4458C213.727 12.7047 218.408 14.7239 216.456 19.3267C214.364 24.2555 206.631 24.3164 202.263 24.2187C202.7 24.1958 204.108 19.676 204.59 18.993C206.011 16.9782 208.057 15.5181 210.216 14.4458ZM169.787 104.253C168.547 105.313 169.686 104.352 169.787 104.253V104.253ZM214.297 37.3297C216.397 38.9187 216.495 41.7261 214.779 43.6272C212.734 45.8905 209.004 45.81 206.219 45.591C204.96 45.4918 198.234 44.9618 199.829 43.871C199.706 43.9169 199.45 44.0284 199.176 44.1798C199.028 44.7137 198.873 45.2456 198.711 45.7752C198.751 45.7981 198.785 45.8227 198.827 45.8454C198.781 45.8256 198.749 45.8041 198.709 45.784C197.088 51.0773 194.784 56.1177 191.766 60.8337C192.895 60.3933 194.063 60.0597 195.248 59.9109C198.757 59.4696 206.137 62.1664 202.21 66.7953C198.444 71.2328 192.588 66.477 188.317 65.823C184.171 71.5514 179.6 77.0415 174.811 82.3483C175.104 82.4392 175.361 82.6286 175.509 82.9237C177.429 81.9578 179.431 80.5764 181.209 80.2018C183.774 79.6621 189.033 79.3329 190.97 81.6054C193.353 84.3997 190.796 86.6717 187.979 87.2093C183.894 87.9889 178.549 86.0154 174.619 84.682C174.17 84.761 173.679 84.631 173.386 84.275C173.299 84.2469 173.212 84.2192 173.128 84.1923C168.277 89.4733 163.242 94.5802 158.237 99.5751C158.29 99.5723 158.343 99.5691 158.399 99.5662C159.704 98.7179 161.104 98.0217 162.621 97.6567C166.132 96.8077 170.261 96.8015 173.108 99.315C175.944 101.818 176.946 106.197 174.01 109.01C168.132 114.642 159.483 101.813 156.52 101.278C151.433 106.301 146.056 110.994 140.593 115.593C141.213 115.406 141.849 115.268 142.507 115.206C147.861 114.695 160.424 121.189 153.85 127.588C148.122 133.165 141.5 122.441 136.888 118.692C131.74 122.978 126.565 127.235 121.535 131.657C124.278 130.935 126.928 130.827 129.867 131.705C132.908 132.615 137.815 134.887 135.89 138.956C133.933 143.093 128.04 141.214 124.97 139.902C123.296 139.187 119.941 136.771 116.994 135.754C108.967 143.26 102.013 151.526 96.7474 161.262C93.4598 167.34 90.964 173.834 89.2062 180.508C88.0842 184.768 85.8742 191.923 86.313 197.467C84.2133 186.371 88.027 173.042 92.1331 163.121C95.9084 153.999 101.556 145.989 108.169 138.779C106.513 133.839 92.5552 126.72 100.904 122.125C105.337 119.696 109.875 123.721 110.841 127.985C111.505 130.916 110.49 134.599 109.412 137.445C111.493 135.247 113.655 133.119 115.884 131.063C118.963 128.22 122.117 125.459 125.3 122.734C120.059 117.858 115.104 103.913 122.136 101.629C132.519 98.2647 127.511 117.292 126.785 120.858C126.579 120.87 126.419 120.808 126.301 120.676C126.359 121.003 126.427 121.352 126.509 121.704C132.602 116.515 138.785 111.427 144.765 106.114C144.227 105.72 143.371 104.214 142.699 103.413C141.181 101.606 139.729 99.7189 138.669 97.6052C136.993 94.2649 135.378 88.9365 139.825 86.9689C144.662 84.8253 146.956 90.8517 146.988 94.4474C147.01 96.9342 146.325 99.297 145.967 101.735C145.856 102.495 146.283 105.922 145.238 104.448C145.287 104.991 145.294 105.385 145.269 105.664C146.343 104.705 147.408 103.736 148.467 102.76C148.418 102.637 148.381 102.503 148.373 102.347C148.317 101.275 149.406 100.862 150.17 101.175C151.567 99.8606 152.95 98.5294 154.309 97.1718C157.188 94.2955 160.109 91.3371 163.01 88.3158C162.381 87.7809 162.632 87.0397 162.044 86.4718C161.457 85.9052 160.3 85.5922 159.61 85.066C157.873 83.7416 156.434 81.8116 155.393 79.912C153.675 76.7733 151.455 70.1883 156.481 68.6893C161.66 67.1419 164.286 73.4805 164.617 77.4441C164.681 78.2119 164.097 85.1313 163.652 87.644C169.019 82.0291 174.299 76.2036 179.083 70.2769C177.633 70.2644 173.525 67.3253 172.695 66.5232C170.669 64.5667 167.449 60.243 171.004 57.9523C174.165 55.9205 178.058 58.859 179.408 61.7161C179.63 62.1865 180.411 66.566 180.471 68.531C182.451 66.0178 184.339 63.4899 186.097 60.9538C187.269 59.2678 188.364 57.5372 189.389 55.7699C189.142 55.6317 188.911 55.3905 188.692 55.0906C183.422 54.2075 176.707 46.0673 182.899 43.2308C185.847 41.882 189.042 44.6615 190.484 46.9377C190.78 47.4033 191.258 49.7451 191.647 51.5921C194.596 45.7376 196.85 39.5401 198.566 33.1859C198.108 33.0733 197.719 32.7264 197.668 32.1295C195.11 30.6861 193.091 29.4842 191.306 26.7071C190.197 24.9822 188.201 21.041 191.462 20.0816C195.705 18.8333 198.367 25.2503 198.713 28.4115C198.753 28.7785 198.751 29.8458 198.737 30.8238C198.884 30.8038 199.033 30.806 199.179 30.8315C200.155 26.897 200.935 22.9119 201.556 18.9203C199.24 18.1832 198.846 6.13807 200.389 4.42216C203.838 0.580051 206.266 6.1264 206.081 9.0585C205.862 12.5157 204.278 15.6614 202.393 18.4533C202.191 18.749 202.249 18.7346 202.197 18.3229C202.168 18.5264 202.099 18.6767 201.997 18.7855C202.093 20.6052 202.282 22.4683 202.19 24.0786C201.927 28.6902 201.382 33.3289 200.592 37.8814C200.4 38.9886 200.18 40.0868 199.933 41.1756C201.796 39.6041 204.306 38.2074 205.288 37.7705C207.838 36.6378 211.766 35.4142 214.297 37.3297ZM85.896 197.029C86.0191 198.511 86.3845 199.863 87.104 200.971C86.5758 199.705 86.1797 198.386 85.896 197.029Z"
			  fill="#C1DEE2"/>
		<g opacity="0.5">
			<path opacity="0.5" fill-rule="evenodd" clip-rule="evenodd"
				  d="M178.223 165.445C182.425 159.453 190.224 144.235 196.138 142.094C199.948 140.715 198.837 154.98 198.884 157.7C199.067 168.224 198.043 178.681 196.778 189.116C194.498 207.937 187.045 224.697 176.822 240.715C171.562 248.957 165.391 257.3 156.845 262.442C152.912 264.811 148.179 265.207 144.294 267.248C139.769 269.623 142.233 267.703 140.194 272.417C137.363 278.963 136.457 287.408 135.147 294.392C129.132 326.455 114.568 495.945 117.093 528.558C117.317 531.449 113.287 532.14 113.085 528.611C112.016 509.9 121.27 380.322 125.94 337.947C130.609 295.571 135.334 258.134 140.071 243.474C145.819 225.687 156.199 204.298 164.84 187.711C168.854 180.006 173.229 172.565 178.223 165.445Z"
				  fill="#69A1AC"/>
			<path opacity="0.5" fill-rule="evenodd" clip-rule="evenodd"
				  d="M209.414 373.278C220.349 365.25 232.186 380.401 222.29 388.43C216.82 392.868 211.101 391.29 207.882 387.591C205.792 390.139 203.836 392.803 201.956 395.052C196.229 401.908 190.817 408.928 185.644 416.111C174.898 431.035 165.689 446.801 156.06 462.278C146.558 477.554 137.132 492.908 128.519 508.571C121.223 521.841 111.498 537.452 109 552C112.79 521.146 127.172 491.49 144.298 464.291C161.285 437.314 180.779 407.853 207.081 386.564C204.404 382.627 204.33 377.008 209.414 373.278Z"
				  fill="#C1DEE2"/>
			<path opacity="0.5" fill-rule="evenodd" clip-rule="evenodd"
				  d="M1.9132 298.031C8.03244 299.227 18.0312 313.07 23.0753 318.344C29.0699 324.612 34.5084 331.292 39.6349 338.292C50.6711 353.358 60.5411 369.376 68.9339 386.08C82.6164 413.311 93.5779 441.265 101.533 470.918C106.403 489.069 109.556 507.883 111.424 526.565C111.777 530.089 115.471 557.253 110.148 557.985C105.361 558.644 106.84 537.359 106.609 534.463C103.998 501.798 96.1772 470.015 85.2985 439.226C82.929 432.519 80.7276 424.304 76.9381 418.269C74.2092 413.921 76.9186 415.437 72.1228 413.792C68.0049 412.378 63.3131 412.724 59.0963 410.993C49.9356 407.237 42.6006 399.944 36.1709 392.608C23.6758 378.351 13.774 362.928 8.61264 344.66C5.74947 334.532 3.11836 324.344 1.65826 313.902C1.28056 311.203 -2.02816 297.26 1.9132 298.031Z"
				  fill="#69A1AC"/>
			<path opacity="0.5" fill-rule="evenodd" clip-rule="evenodd"
				  d="M26.0614 67.716C49.1113 107.69 68.0528 151.601 80.2834 196.076C87.6937 223.023 92.876 250.675 98.025 278.126C105.997 320.632 113.538 363.134 115.683 406.395C117.841 449.906 122.108 500.092 107.861 542C114.978 499.452 108.202 454.162 107.002 411.35C106.429 390.912 104.768 370.674 102.588 350.355C100.473 330.645 97.0184 311.029 93.8009 291.474C92.2336 281.95 90.5876 272.441 88.9118 262.937C88.4115 260.101 88.2002 251.687 86.4014 249.75C84.5911 247.8 75.3543 247.005 72.4544 245.574C66.6149 242.693 61.1221 238.6 56.2609 234.275C46.9418 225.984 38.8347 215.151 32.4359 204.472C17.6307 179.764 11.7116 149.61 12.0108 120.994C12.0682 115.438 21.0034 55.61 17.4149 54.7861C17.631 54.533 17.8353 54.2718 18.028 54C20.7448 58.5488 23.4108 63.1284 26.0614 67.716Z"
				  fill="#89C5CC"/>
			<path opacity="0.5" fill-rule="evenodd" clip-rule="evenodd"
				  d="M274.846 211.887C275.202 211.374 277.517 207.807 276.351 208.035C278.724 207.57 273.087 211.969 279 209.27C276.192 211.922 277.813 215.366 277.85 218.935C277.911 224.73 276.942 230.476 275.851 236.146C274.126 245.109 271.557 253.823 267.828 262.159C259.701 280.326 245.901 297.814 229.518 309.172C221.43 314.779 213.504 316.689 204.28 319.27C198.453 320.901 197.991 323.915 194.898 329.569C188.46 341.345 182.136 353.078 176.457 365.251C169.677 379.788 163.095 394.34 156.886 409.132C135.969 458.957 118.945 510.578 110.005 564C109.786 532.519 117.069 500.095 126.255 470.088C132.947 448.226 141.658 427.151 150.95 406.289C153.201 401.236 156.613 394.735 157.57 389.155C158.239 385.245 156.192 381.486 155.255 377.367C151.601 361.33 151.863 343.363 155.071 327.24C158.609 309.461 168.839 301.209 186.145 298.691C192.474 297.769 200.519 298.107 206.322 295.408C212.645 292.47 215.253 282.81 218.849 276.61C228.506 259.953 239.98 243.979 253.155 229.945C256.803 226.059 260.726 222.473 264.888 219.15C267.513 217.053 273.058 214.47 274.846 211.887Z"
				  fill="#89C5CC"/>
			<path opacity="0.5" fill-rule="evenodd" clip-rule="evenodd"
				  d="M80.7914 530H142.209C144.97 530 147.209 532.239 147.209 535C147.209 535.244 147.191 535.488 147.155 535.729L142.408 567.918C140.961 577.73 132.541 585 122.622 585H100.378C90.4593 585 82.039 577.73 80.5919 567.918L75.845 535.729C75.4421 532.998 77.3301 530.456 80.062 530.053C80.3035 530.018 80.5473 530 80.7914 530Z"
				  fill="#C1DEE2"/>
		</g>
	</g>
	<g clip-path="url(#clip1)">
		<path
			d="M626.959 326.361H283.986C282.93 326.359 281.916 325.939 281.169 325.191C280.422 324.444 280.001 323.431 280 322.374V3.8656C280.001 2.80879 280.422 1.79565 281.169 1.04837C281.916 0.30109 282.93 -0.119344 283.986 -0.120728H626.959C628.016 -0.119344 629.029 0.30109 629.776 1.04837C630.523 1.79565 630.944 2.80879 630.945 3.8656V322.373C630.944 323.43 630.524 324.444 629.776 325.191C629.029 325.938 628.016 326.359 626.959 326.36V326.361Z"
			fill="#F8F8F9"/>
		<path
			d="M681.023 373.99H338.051C336.994 373.989 335.981 373.569 335.234 372.821C334.486 372.074 334.066 371.061 334.064 370.004V51.4955C334.066 50.4387 334.486 49.4256 335.234 48.6783C335.981 47.931 336.994 47.5106 338.051 47.5092H681.023C682.08 47.5106 683.093 47.931 683.84 48.6783C684.588 49.4256 685.008 50.4387 685.01 51.4955V370.003C685.008 371.06 684.588 372.074 683.841 372.821C683.093 373.568 682.08 373.989 681.023 373.99V373.99Z"
			fill="white"/>
		<path
			d="M681.023 373.99H338.051C336.994 373.989 335.981 373.569 335.234 372.821C334.486 372.074 334.066 371.061 334.064 370.004V51.4955C334.066 50.4387 334.486 49.4256 335.234 48.6783C335.981 47.931 336.994 47.5106 338.051 47.5092H681.023C682.08 47.5106 683.093 47.931 683.84 48.6783C684.588 49.4256 685.008 50.4387 685.01 51.4955V370.003C685.008 371.06 684.588 372.074 683.841 372.821C683.093 373.568 682.08 373.989 681.023 373.99V373.99ZM338.051 49.1006C337.417 49.102 336.81 49.3542 336.362 49.802C335.915 50.2499 335.662 50.8569 335.661 51.4903V370.003C335.662 370.637 335.915 371.244 336.362 371.692C336.81 372.14 337.417 372.392 338.051 372.393H681.023C681.657 372.392 682.264 372.14 682.712 371.692C683.16 371.244 683.412 370.637 683.413 370.003V51.4955C683.412 50.8621 683.159 50.2551 682.711 49.8073C682.264 49.3594 681.657 49.1072 681.023 49.1058L338.051 49.1006Z"
			fill="#E5E4E6"/>
		<path
			d="M617.174 190.295H401.9C400.843 190.293 399.83 189.873 399.083 189.126C398.335 188.378 397.915 187.365 397.914 186.308V91.835C397.915 90.7781 398.335 89.7649 399.083 89.0175C399.83 88.2702 400.843 87.8498 401.9 87.8487H617.174C618.231 87.8499 619.244 88.2702 619.991 89.0175C620.738 89.7649 621.159 90.7781 621.16 91.835V186.308C621.159 187.365 620.739 188.378 619.991 189.126C619.244 189.873 618.231 190.293 617.174 190.295Z"
			fill="#5158BF"/>
		<path
			d="M435.286 128.246C434.569 128.247 433.882 128.533 433.376 129.04C432.869 129.547 432.585 130.235 432.585 130.952C432.585 131.669 432.869 132.356 433.376 132.864C433.882 133.371 434.569 133.657 435.286 133.658H583.788C584.505 133.657 585.192 133.371 585.698 132.864C586.205 132.356 586.489 131.669 586.489 130.952C586.489 130.235 586.205 129.547 585.698 129.04C585.192 128.533 584.505 128.247 583.788 128.246H435.286Z"
			fill="white"/>
		<path
			d="M435.286 144.485C434.569 144.486 433.882 144.772 433.376 145.28C432.869 145.787 432.585 146.474 432.585 147.191C432.585 147.908 432.869 148.596 433.376 149.103C433.882 149.611 434.569 149.896 435.286 149.898H511.099C511.816 149.896 512.503 149.611 513.01 149.103C513.516 148.596 513.8 147.908 513.8 147.191C513.8 146.474 513.516 145.787 513.01 145.28C512.503 144.772 511.816 144.486 511.099 144.485H435.286Z"
			fill="white"/>
		<path
			d="M370.316 225.116C369.599 225.117 368.912 225.403 368.406 225.911C367.899 226.418 367.615 227.106 367.615 227.822C367.615 228.539 367.899 229.227 368.406 229.734C368.912 230.242 369.599 230.527 370.316 230.529H648.758C649.475 230.527 650.162 230.242 650.668 229.734C651.175 229.227 651.459 228.539 651.459 227.822C651.459 227.106 651.175 226.418 650.668 225.911C650.162 225.403 649.475 225.117 648.758 225.116H370.316Z"
			fill="#E5E4E6"/>
		<path
			d="M370.316 241.356C369.599 241.357 368.912 241.643 368.406 242.15C367.899 242.657 367.615 243.345 367.615 244.062C367.615 244.779 367.899 245.466 368.406 245.974C368.912 246.481 369.599 246.767 370.316 246.768H576.069C576.786 246.767 577.473 246.481 577.98 245.974C578.486 245.466 578.77 244.779 578.77 244.062C578.77 243.345 578.486 242.657 577.98 242.15C577.473 241.643 576.786 241.357 576.069 241.356H370.316Z"
			fill="#E5E4E6"/>
		<path
			d="M370.316 257.228C369.599 257.229 368.912 257.515 368.406 258.022C367.899 258.53 367.615 259.217 367.615 259.934C367.615 260.651 367.899 261.338 368.406 261.846C368.912 262.353 369.599 262.639 370.316 262.64H648.758C649.475 262.639 650.162 262.353 650.668 261.846C651.175 261.338 651.459 260.651 651.459 259.934C651.459 259.217 651.175 258.53 650.668 258.022C650.162 257.515 649.475 257.229 648.758 257.228H370.316Z"
			fill="#E5E4E6"/>
		<path
			d="M370.316 273.467C369.599 273.469 368.912 273.754 368.406 274.262C367.899 274.769 367.615 275.457 367.615 276.174C367.615 276.89 367.899 277.578 368.406 278.085C368.912 278.593 369.599 278.879 370.316 278.88H576.069C576.786 278.879 577.473 278.593 577.98 278.085C578.486 277.578 578.77 276.89 578.77 276.174C578.77 275.457 578.486 274.769 577.98 274.262C577.473 273.754 576.786 273.469 576.069 273.467H370.316Z"
			fill="#E5E4E6"/>
		<path
			d="M647.036 336.651H565.437C564.38 336.65 563.367 336.229 562.62 335.482C561.872 334.735 561.452 333.722 561.451 332.665V319.591C561.452 318.534 561.872 317.521 562.62 316.773C563.367 316.026 564.38 315.606 565.437 315.604H647.036C648.093 315.606 649.107 316.026 649.854 316.773C650.601 317.521 651.022 318.534 651.023 319.591V332.665C651.022 333.722 650.601 334.735 649.854 335.482C649.107 336.229 648.093 336.65 647.036 336.651V336.651Z"
			fill="#5158BF"/>
	</g>
	<path fill-rule="evenodd" clip-rule="evenodd"
		  d="M296.644 377C298.447 401.61 414.607 474.064 415.284 476.096C415.586 477 403.534 505.56 379.128 561.778L389.282 565.724C426.716 506.185 444.471 473.244 442.549 466.9C439.796 457.817 409.754 427.938 352.422 377.262L296.644 377Z"
		  fill="#B28B67"/>
	<path fill-rule="evenodd" clip-rule="evenodd"
		  d="M381.8 549.082L398.379 555.117C433.336 515.674 447.038 483.131 444.54 466.549C442.874 455.495 412.936 425.665 354.724 377.06L295.455 377.06C297.477 434.052 405.143 476.313 406.583 478.742C408.023 481.171 393.851 504.957 381.8 549.082Z"
		  fill="#2F3676"/>
	<path fill-rule="evenodd" clip-rule="evenodd"
		  d="M375.392 559.84C373.32 562.263 372.03 564.172 371.523 565.565C370.906 567.26 370.288 569.835 369.669 573.292C371.635 574.007 389.302 580.437 422.67 592.582C425.704 588.53 425.804 585.783 422.969 584.34C420.134 582.896 417.788 581.671 415.932 580.664L395.295 560.716C394.897 560.333 394.264 560.343 393.881 560.74C393.874 560.747 393.868 560.754 393.861 560.761L390.88 564.026C387.666 564.308 385.201 564.136 383.483 563.511C382.088 563.003 380.366 561.738 378.317 559.716L378.317 559.716C377.531 558.94 376.265 558.948 375.489 559.734C375.456 559.768 375.423 559.803 375.392 559.84Z"
		  fill="#E4E4E4"/>
	<path fill-rule="evenodd" clip-rule="evenodd" d="M310 377L258.254 501.227L207.396 606.25H219.395L350.674 377H310Z"
		  fill="#997659"/>
	<path fill-rule="evenodd" clip-rule="evenodd"
		  d="M206.678 601.402C205.559 604.388 205 606.623 205 608.106C205 609.909 205.3 612.54 205.901 616C207.993 616 226.794 616 262.303 616C263.769 611.154 262.923 608.539 259.765 608.152C256.607 607.766 253.984 607.417 251.895 607.106L225.68 595.419C225.176 595.194 224.584 595.421 224.359 595.925C224.356 595.934 224.352 595.942 224.348 595.951L222.663 600.039C219.74 601.403 217.364 602.085 215.537 602.085C214.052 602.085 212.001 601.485 209.384 600.285L209.384 600.285C208.38 599.825 207.193 600.266 206.733 601.27C206.713 601.313 206.695 601.357 206.678 601.402Z"
		  fill="#E4E4E4"/>
	<path fill-rule="evenodd" clip-rule="evenodd"
		  d="M211.989 584.433L238.651 589.433C259.266 559.125 345.541 434.852 355 377H295.644C264.055 418.821 231.639 553.624 211.989 584.433Z"
		  fill="#5C63AB"/>
	<path fill-rule="evenodd" clip-rule="evenodd"
		  d="M324.262 255.49C319.654 250.081 316.536 243.453 317.057 236.025C318.558 214.625 348.349 219.333 354.143 230.134C359.938 240.935 359.25 268.333 351.76 270.263C348.774 271.033 342.411 269.147 335.935 265.244L340 294H316L324.262 255.49Z"
		  fill="#B28B67"/>
	<path fill-rule="evenodd" clip-rule="evenodd"
		  d="M340.464 217.685C337.301 217.167 328.784 216.81 327.213 216.81C326.21 216.81 325.122 217.039 324.527 216.118C324.041 215.363 324.219 214.087 324.074 213.211C323.905 212.193 323.665 211.189 323.423 210.187C322.733 207.337 321.69 204.625 320.231 202.079C317.493 197.302 313.481 193.56 308.417 191.383C302.824 188.979 296.496 188.428 290.48 188.916C284.043 189.438 278.216 191.563 272.138 193.562C266.346 195.468 260.28 196.218 254.222 195.288C248.119 194.35 243.507 191.042 238.359 187.902C233.089 184.688 227.066 182.586 220.835 183.069C215.02 183.52 209.659 185.922 204.85 189.129C200.351 192.131 196.638 195.742 194.542 200.824C192.287 206.291 192.289 212.292 195.997 217.123C201.372 224.127 211.35 225.938 219.651 225.758C224.453 225.654 229.168 224.777 233.701 223.183C239.747 221.056 244.971 217.452 250.627 214.528C253.281 213.156 256.025 212.029 258.901 211.217C261.691 210.429 264.44 210.067 266.966 211.753C269.639 213.537 272.034 215.289 275.092 216.405C278.026 217.476 281.133 218.075 284.258 218.051C290.339 218.004 296.333 216.109 302.239 214.84C307.054 213.806 312.207 212.774 317.117 213.769C319.166 214.184 322.159 215.041 322.899 217.17C310.444 219.427 305.553 234.83 309.064 246.137C310.959 252.24 322.35 259.374 326.779 256.166C329.585 254.133 327.881 251.465 326.779 249.703C324.668 246.33 323.945 241.997 327.852 239.648C331.222 237.622 334.765 242.433 334.832 242.427C335.758 242.354 343.76 237.829 349.274 231.224C354.713 231.547 355.539 227.96 354.24 225.027C352.941 222.094 344.834 218.402 340.464 217.685Z"
		  fill="#191847"/>
	<path fill-rule="evenodd" clip-rule="evenodd"
		  d="M400 349.617L436.235 333.704C442.582 327.379 448.711 322.572 454.623 319.282C456.39 318.719 459.41 318.549 456.188 323.255C452.966 327.961 449.789 333.056 451.076 334.705C452.364 336.355 456.093 334.534 457.566 337.216C458.549 339.004 452.262 341.143 438.707 343.633L411.57 364.439L400 349.617ZM253.508 354L274 358.066C253.392 396.471 242.34 416.826 240.845 419.13C237.48 424.315 240.62 433.817 241.779 438.821C234.504 440.515 237.373 429.565 228.167 431.851C219.764 433.938 212.639 439.293 204.804 432.071C203.841 431.183 203.135 428.407 206.42 426.984C214.603 423.437 226.692 416.796 228.652 414.218C231.326 410.702 239.611 390.629 253.508 354Z"
		  fill="#B28B67"/>
	<path fill-rule="evenodd" clip-rule="evenodd"
		  d="M329.695 277.332L338.342 275.849C357.176 294.119 364.862 338.012 377.414 343.822C389.281 349.316 406.104 344 426.1 336.822L432.224 350.505C414.055 370.161 375.349 386.767 359.66 377.287C334.576 362.13 328.786 307.994 329.695 277.332Z"
		  fill="#DB2721"/>
	<path fill-rule="evenodd" clip-rule="evenodd"
		  d="M292 386C326.672 386 352.176 386 368.511 386C372.008 386 371.349 380.952 370.843 378.404C365.011 349.004 342.241 317.312 342.241 275.461L320.172 272C301.917 301.358 295.605 337.505 292 386Z"
		  fill="#DDE3E9"/>
	<path fill-rule="evenodd" clip-rule="evenodd"
		  d="M284.369 356.233C268.771 384.368 255.661 404.623 245.037 417L229 413.859C239.331 349.791 269.247 302.504 318.748 272H322.731L327.486 272C347.299 339.537 352.761 384.537 343.872 407H275C276.09 390.563 279.583 373.181 284.369 356.233H284.369Z"
		  fill="#FF4133"/>
	<path fill-rule="evenodd" clip-rule="evenodd"
		  d="M731.13 188.741C737.455 184.424 742.56 178.424 744.078 170.575C748.454 147.961 715.976 144.491 706.911 154.068C697.847 163.644 690.954 192.251 698.254 196.352C701.165 197.988 708.346 197.816 716.206 195.584L703.963 224.266L729.074 230.994L731.13 188.741Z"
		  fill="#B28B67"/>
	<path fill-rule="evenodd" clip-rule="evenodd"
		  d="M722.413 167.397C717.896 180.411 713.575 186.365 709.451 185.26C703.264 183.602 699.058 178.303 696.344 177.576C694.365 177.046 694.149 179.618 694.973 181.79C695.653 183.581 700.535 186.44 699.912 188.768C699.288 191.095 695.607 188.179 695.237 189.559C694.625 191.843 692.743 195.94 696.741 197.011C700.788 198.096 712.782 199.743 716.366 194.323C718.678 190.825 721.641 183.086 725.254 171.107C725.507 171.144 725.761 171.196 726.014 171.264C729.482 172.193 731.546 175.732 730.625 179.169C730.158 180.913 729.011 182.296 727.541 183.113C728.449 185.535 729.508 188.094 730.787 190.784C738.912 188.495 747.381 177.688 743.67 164.133C743.314 157.884 739.848 153.669 735.167 150.888C731.521 148.089 727.314 146.756 723.447 146.813C716.24 145.524 709.378 145.967 707.256 146.754C705.485 153.366 706.252 155.674 717.338 158.459C719.67 160.605 721.1 163.609 722.413 167.397Z"
		  fill="#191847"/>
	<path fill-rule="evenodd" clip-rule="evenodd"
		  d="M716.848 318.436L663.682 452.482L628.023 565.807H613.942L668.456 318.436L716.848 318.436Z" fill="#997659"/>
	<path fill-rule="evenodd" clip-rule="evenodd"
		  d="M727.554 318.436C728.12 365.541 736.377 428.959 737.696 431.896C738.575 433.853 768.934 458.746 828.771 506.575L819.073 516.913C748.47 475.906 711.535 452.668 708.268 447.199C703.367 438.995 687.412 363.5 674.602 318.436H727.554Z"
		  fill="#B28B67"/>
	<path fill-rule="evenodd" clip-rule="evenodd"
		  d="M830.132 503.103C833.39 504.254 835.633 505.346 836.864 506.378C838.36 507.634 840.334 509.716 842.787 512.623C841.33 514.359 828.24 529.96 803.515 559.425C798.474 557.267 796.892 554.744 798.77 551.855C800.649 548.965 802.186 546.546 803.382 544.596L811.937 514.705C812.102 514.13 812.701 513.797 813.277 513.962C813.286 513.965 813.296 513.968 813.306 513.971L817.871 515.418C821.038 513.942 823.258 512.446 824.531 510.929C825.565 509.697 826.495 507.578 827.322 504.572L827.322 504.572C827.639 503.418 828.831 502.74 829.985 503.057C830.035 503.071 830.084 503.086 830.132 503.103Z"
		  fill="#E4E4E4"/>
	<path fill-rule="evenodd" clip-rule="evenodd"
		  d="M633.788 560.681C635 563.916 635.606 566.337 635.606 567.943C635.606 569.896 635.281 572.747 634.63 576.494C632.364 576.494 611.999 576.494 573.534 576.494C571.947 571.245 572.863 568.412 576.284 567.993C579.704 567.575 582.546 567.197 584.808 566.86L613.205 554.2C613.752 553.957 614.392 554.202 614.636 554.749C614.64 554.758 614.644 554.767 614.648 554.777L616.473 559.205C619.64 560.682 622.213 561.421 624.193 561.421C625.801 561.421 628.023 560.771 630.857 559.472L630.857 559.472C631.944 558.973 633.23 559.451 633.729 560.538C633.751 560.585 633.77 560.633 633.788 560.681Z"
		  fill="#E4E4E4"/>
	<path fill-rule="evenodd" clip-rule="evenodd"
		  d="M681.102 554.134L614.154 546.896L663.77 318.436H723.733L681.102 554.134Z" fill="#69A1AC"/>
	<path fill-rule="evenodd" clip-rule="evenodd"
		  d="M814.923 489.896L771.009 541.674C724.756 491.352 697.79 458.517 690.111 443.169C682.433 427.82 675.531 386.243 669.404 318.436H736.911C740.258 378.09 742.514 409.304 743.679 412.08C744.844 414.856 768.592 440.795 814.923 489.896Z"
		  fill="#89C5CC"/>
	<path fill-rule="evenodd" clip-rule="evenodd"
		  d="M633.928 293.581L595.515 312.446C585.849 313.296 577.595 315.02 570.752 317.616C569.056 318.685 566.815 321.059 572.963 321.664C579.11 322.27 585.55 323.182 586.024 325.388C586.498 327.595 582.393 329.41 583.595 332.486C584.397 334.537 590.545 330.833 602.039 321.374L638.187 313.411L633.928 293.581ZM764.427 317.477L742.119 313.633C748.087 360.276 751.381 385.047 752.001 387.946C753.396 394.468 746.538 402.818 743.426 407.406C750.13 411.929 751.47 399.795 759.899 405.662C767.592 411.017 772.725 419.168 783.451 414.932C784.77 414.411 786.559 411.89 783.788 409.185C776.883 402.445 767.225 391.078 766.241 387.723C764.898 383.149 764.294 359.733 764.427 317.477Z"
		  fill="#B28B67"/>
	<path fill-rule="evenodd" clip-rule="evenodd"
		  d="M717.487 213.224L708.541 210.023C669.127 233.409 645.104 287.45 597.873 309.993L605.774 324.228C680.134 328.095 710.329 262.335 717.487 213.224Z"
		  fill="#E87613"/>
	<path fill-rule="evenodd" clip-rule="evenodd"
		  d="M737.359 335.667C700.373 329.145 673.166 324.348 655.74 321.275C652.01 320.618 653.658 315.383 654.674 312.774C666.399 282.662 696.62 253.303 704.454 208.878L728.644 209.355C742.622 243.953 742.591 283.51 737.359 335.667Z"
		  fill="#DDE3E9"/>
	<path fill-rule="evenodd" clip-rule="evenodd"
		  d="M752.64 245.172C756.232 244.797 759.342 242.993 761.97 239.761C773.299 225.828 771.691 216.773 762.988 212.356C754.285 207.938 745.069 212.252 730.417 209.668C729.62 209.528 728.882 209.449 728.201 209.431L720.757 208.55C687.037 276.134 672.816 322.685 678.093 348.202L742.334 359.529C744.583 369.032 746.915 377.105 749.33 383.747L766.835 386.834C777.829 334.12 773.097 286.899 752.64 245.172Z"
		  fill="#FF9B21"/>
	<path fill-rule="evenodd" clip-rule="evenodd"
		  d="M734.803 320.438C729.817 336.903 724.381 348.532 718.494 355.325L742.334 359.529C739.711 348.444 737.201 335.414 734.803 320.438V320.438Z"
		  fill="black" fill-opacity="0.1"/>
	<defs>
		<clipPath id="clip0">
			<rect width="279" height="582" fill="white" transform="translate(0 3)"/>
		</clipPath>
		<clipPath id="clip1">
			<rect width="405" height="374" fill="white" transform="translate(280)"/>
		</clipPath>
	</defs>
</svg>
