<svg width="169" height="401" viewBox="0 0 169 401" fill="none" xmlns="http://www.w3.org/2000/svg">
	<g clip-path="url(#clip0)">
		<path
			d="M111.767 30.2357L93.1995 11.6557C90.0759 8.53085 85.0106 8.52981 81.8857 11.6534C81.885 11.6541 81.8842 11.6549 81.8834 11.6557L32.451 61.1131C29.4519 64.1135 27.7671 68.1822 27.7671 72.4245V400"
			stroke="#CBCBCB" stroke-width="8"/>
		<path
			d="M1.76709 399H54.7671C56.4239 399 57.7671 400.343 57.7671 402V403C57.7671 404.657 56.4239 406 54.7671 406H1.76709C0.110237 406 -1.23291 404.657 -1.23291 403V402C-1.23291 400.343 0.110237 399 1.76709 399Z"
			fill="#AFB9C5"/>
		<path fill-rule="evenodd" clip-rule="evenodd"
			  d="M100.599 19.3345C87.7121 32.2218 87.7121 53.1163 100.599 66.0036L120.398 85.8026L167.067 39.1335L147.268 19.3345C134.381 6.44722 113.487 6.44722 100.599 19.3345Z"
			  fill="#C5CFD6"/>
		<path
			d="M147.539 66.5269C134.652 79.4142 122.147 87.8036 119.609 85.2652C117.07 82.7268 125.46 70.2218 138.347 57.3345C151.234 44.4472 163.739 36.0578 166.278 38.5962C168.816 41.1346 160.427 53.6396 147.539 66.5269Z"
			fill="#F2F2F2"/>
	</g>
	<defs>
		<clipPath id="clip0">
			<rect width="169" height="401" fill="white" transform="matrix(-1 0 0 1 169 0)"/>
		</clipPath>
	</defs>
</svg>
