<svg xmlns="http://www.w3.org/2000/svg" width="392.09" height="370.31" viewBox="0 0 392.09 370.31">
	<defs>
		<style>
			.cls-1, .cls-13, .cls-3 {
				opacity: 0.1;
			}

			.cls-13, .cls-14, .cls-15, .cls-16, .cls-17, .cls-2, .cls-23, .cls-5, .cls-6 {
				fill: #fff;
			}

			.cls-24, .cls-4 {
				fill: #263238;
			}

			.cls-10, .cls-19, .cls-20, .cls-24, .cls-5, .cls-8 {
				opacity: 0.2;
			}

			.cls-12, .cls-6 {
				opacity: 0.4;
			}

			.cls-7 {
				fill: #5158bf;
			}

			.cls-9 {
				opacity: 0.05;
			}

			.cls-11, .cls-14, .cls-18 {
				opacity: 0.3;
			}

			.cls-15 {
				opacity: 0.19;
			}

			.cls-16 {
				opacity: 0.29;
			}

			.cls-17 {
				opacity: 0.7;
			}

			.cls-19 {
				fill: #e6e6e6;
			}

			.cls-20 {
				fill: #e0e0e0;
			}

			.cls-21 {
				fill: #e4897b;
			}

			.cls-22 {
				fill: #de5753;
			}

			.cls-23 {
				opacity: 0.15;
			}
		</style>
	</defs>
	<g id="Rocket-rafiki_1_" data-name="Rocket-rafiki(1)" transform="translate(-56.11 -57.25)">
		<g id="freepik--background-complete--inject-1">
			<path id="Tracé_238" data-name="Tracé 238" class="cls-1"
				  d="M285.78,58.28A71.18,71.18,0,0,0,246.15,78c-11.55,11.4-18.68,26.57-30.25,38a89.07,89.07,0,0,1-41.46,23.21c-12.89,3.13-25.1.7-37.84,4.52a110.3,110.3,0,0,0-77.91,91c-2.39,17.54-.37,36,8,51.63A68.9,68.9,0,0,0,96,315c20.62,10.42,44.79,9.75,67.73,12.47A221.161,221.161,0,0,1,226,344.29c24.78,10.8,47.75,26.21,73.92,33,31.32,8.12,66.54,2.45,92.09-17.41s39.88-54.19,33.39-85.89c-4-19.45-15-36.67-21.63-55.36a129.661,129.661,0,0,1-7.34-50.16c.83-16.06,4.63-32.47.43-48-3.15-11.71-10.65-21.83-19.27-30.36C354.94,67.65,318.33,53.16,285.78,58.28Z"/>
			<path id="Tracé_239" data-name="Tracé 239" class="cls-2"
				  d="M211.98,176.89h-5.11l-1.27-4.01-1.24,4.01h-5.25l4.14,3.58-1.98,6.41,4.33-4.39,4.44,4.39-2.06-6.48Z"/>
			<path id="Tracé_240" data-name="Tracé 240" class="cls-2"
				  d="M304.91,340.47h-5.12l-1.27-4.01-1.24,4.01h-5.25l4.14,3.58-1.98,6.41,4.33-4.39,4.44,4.39-2.05-6.48Z"/>
			<path id="Tracé_241" data-name="Tracé 241" class="cls-2"
				  d="M212.38,246.62h-2.19l-.54-1.72-.53,1.72h-2.25l1.77,1.53-.84,2.74,1.85-1.87,1.9,1.87-.88-2.77Z"/>
			<path id="Tracé_242" data-name="Tracé 242" class="cls-2"
				  d="M349.7,231.33h-2.19l-.54-1.72-.53,1.72h-2.25l1.77,1.53-.84,2.74,1.85-1.88,1.9,1.88-.88-2.77Z"/>
			<path id="Tracé_243" data-name="Tracé 243" class="cls-2"
				  d="M213.59,222.6h-2.18l-.55-1.72-.53,1.72h-2.24l1.77,1.53-.85,2.74,1.85-1.87,1.9,1.87-.88-2.77Z"/>
			<path id="Tracé_244" data-name="Tracé 244" class="cls-2"
				  d="M136.92,230.01h-2.19l-.54-1.71-.53,1.71h-2.25l1.77,1.53-.84,2.75,1.85-1.88,1.9,1.88-.88-2.77Z"/>
			<path id="Tracé_245" data-name="Tracé 245" class="cls-2"
				  d="M145.91,271.72h-2.18l-.55-1.72-.53,1.72h-2.24l1.77,1.53-.85,2.74,1.85-1.88,1.9,1.88-.88-2.77Z"/>
			<path id="Tracé_246" data-name="Tracé 246" class="cls-2"
				  d="M339.87,188.27h-2.19l-.54-1.72-.53,1.72h-2.25l1.77,1.53-.84,2.74,1.85-1.87,1.9,1.87-.88-2.77Z"/>
			<path id="Tracé_247" data-name="Tracé 247" class="cls-2"
				  d="M323.62,129.86h-1.58l-.39-1.25-.39,1.25h-1.62l1.28,1.1-.61,1.98,1.34-1.35,1.37,1.35-.64-2Z"/>
			<path id="Tracé_248" data-name="Tracé 248" class="cls-2"
				  d="M231.72,188.63h-1.58l-.39-1.25-.39,1.25h-1.62l1.28,1.1-.61,1.98,1.34-1.35,1.37,1.35-.63-2Z"/>
			<path id="Tracé_249" data-name="Tracé 249" class="cls-2"
				  d="M172.42,201.41h-1.58l-.4-1.24-.38,1.24h-1.62l1.28,1.1-.61,1.99,1.33-1.36,1.37,1.36-.63-2Z"/>
			<path id="Tracé_250" data-name="Tracé 250" class="cls-2"
				  d="M257.68,129.71H256.1l-.39-1.24-.39,1.24H253.7l1.28,1.1-.61,1.98,1.34-1.35,1.37,1.35-.64-2Z"/>
			<path id="Tracé_251" data-name="Tracé 251" class="cls-2"
				  d="M376.29,206.99h-1.58l-.39-1.24-.39,1.24h-1.62l1.28,1.11-.61,1.98,1.34-1.36,1.37,1.36-.64-2Z"/>
			<path id="Tracé_252" data-name="Tracé 252" class="cls-2"
				  d="M335.13,157.99h-1.57l-.4-1.24-.38,1.24h-1.63l1.29,1.11-.62,1.98,1.34-1.36,1.37,1.36-.63-2Z"/>
			<path id="Tracé_253" data-name="Tracé 253" class="cls-2"
				  d="M383.99,237.92h-1.58l-.4-1.24-.38,1.24h-1.62l1.28,1.11-.61,1.98,1.33-1.36,1.38,1.36-.64-2.01Z"/>
			<path id="Tracé_254" data-name="Tracé 254" class="cls-2"
				  d="M347.56,300.01h-1.58l-.4-1.24-.38,1.24h-1.62l1.28,1.1-.61,1.98,1.33-1.35,1.37,1.35-.63-2Z"/>
			<path id="Tracé_255" data-name="Tracé 255" class="cls-2"
				  d="M320.7,233.84h-1.58l-.39-1.24-.39,1.24h-1.62l1.28,1.11-.61,1.98,1.34-1.35,1.37,1.35-.64-2Z"/>
			<path id="Tracé_256" data-name="Tracé 256" class="cls-2"
				  d="M230.84,243.5h-1.58l-.4-1.24-.38,1.24h-1.62l1.28,1.11-.61,1.98,1.33-1.35,1.38,1.35-.64-2Z"/>
			<path id="Tracé_257" data-name="Tracé 257" class="cls-2"
				  d="M159.52,319.29h-2.19l-.54-1.72-.54,1.72h-2.24l1.77,1.53-.84,2.74,1.85-1.88,1.9,1.88-.88-2.77Z"/>
			<path id="Tracé_258" data-name="Tracé 258" class="cls-2"
				  d="M342.62,368.64h-2.18l-.55-1.71-.53,1.71h-2.25l1.78,1.53-.85,2.74,1.85-1.87,1.9,1.87-.88-2.77Z"/>
			<path id="Tracé_259" data-name="Tracé 259" class="cls-2"
				  d="M210.38,275.3h-2.19l-.54-1.72-.53,1.72h-2.25l1.78,1.53-.85,2.74,1.85-1.87,1.9,1.87-.88-2.77Z"/>
			<circle id="Ellipse_10" data-name="Ellipse 10" class="cls-2" cx="9.1" cy="9.1" r="9.1"
					transform="translate(357.584 312.643) rotate(-22.5)"/>
			<path id="Tracé_260" data-name="Tracé 260" class="cls-2"
				  d="M285.75,102.71a5.14,5.14,0,1,1-5.14-5.14A5.14,5.14,0,0,1,285.75,102.71Z"/>
			<path id="Tracé_261" data-name="Tracé 261" class="cls-2"
				  d="M99.69,213.66,95.46,215a5.2,5.2,0,0,0-5.79,3.42l-3.27,3.05a.42.42,0,0,0,.41.71l4.24-1.28A5.17,5.17,0,0,0,97,217.47l3.16-3.06a.45.45,0,0,0-.47-.75Z"/>
		</g>
		<g id="freepik--Shadow--inject-1" class="cls-3">
			<ellipse id="freepik--path--inject-1" cx="193.89" cy="11.32" rx="193.89" ry="11.32"
					 transform="translate(56.11 404.92)"/>
		</g>
		<g id="freepik--Satelite--inject-1">
			<path id="Tracé_262" data-name="Tracé 262" class="cls-4" d="M405.99,353.04l13.87-8.94-4.3,11.74H405.19Z"/>
			<path id="Tracé_263" data-name="Tracé 263" class="cls-5" d="M405.99,353.04l13.87-8.94-4.3,11.74H405.19Z"/>
			<path id="Tracé_264" data-name="Tracé 264" class="cls-6" d="M406.27,353.17l13.44-8.66-4.15,11.33H405.44Z"/>
			<path id="Tracé_265" data-name="Tracé 265" class="cls-4" d="M419.89,361.27l10.69-25.03h-6.86l-9.85,25.49Z"/>
			<path id="Tracé_266" data-name="Tracé 266" class="cls-5" d="M419.89,361.27l10.69-25.03h-6.86l-9.85,25.49Z"/>
			<path id="Tracé_267" data-name="Tracé 267" class="cls-6" d="M419.89,361.27l10.6-24.82h-6.66l-9.75,25.26Z"/>
			<path id="Tracé_268" data-name="Tracé 268" class="cls-4"
				  d="M420.31,361.18l10.61-25.1,5.92-.15-10.21,24.35Z"/>
			<path id="Tracé_269" data-name="Tracé 269" class="cls-5"
				  d="M420.31,361.18l10.61-25.1,5.92-.15-10.21,24.35Z"/>
			<path id="Tracé_270" data-name="Tracé 270" class="cls-6"
				  d="M420.43,361.16l10.65-24.92,5.7-.16-10.15,24.2Z"/>
			<path id="Tracé_271" data-name="Tracé 271" class="cls-4" d="M437.18,335.78l5.68-.12-10.18,23.61-5.68.82Z"/>
			<path id="Tracé_272" data-name="Tracé 272" class="cls-5" d="M437.18,335.78l5.68-.12-10.18,23.61-5.68.82Z"/>
			<path id="Tracé_273" data-name="Tracé 273" class="cls-6" d="M437.28,335.93l5.53-.16-10.13,23.5-5.55.8Z"/>
			<path id="Tracé_274" data-name="Tracé 274" class="cls-4" d="M443.22,335.66l4.98-.15-9.78,22.93-5.44.8Z"/>
			<path id="Tracé_275" data-name="Tracé 275" class="cls-5" d="M443.22,335.66l4.98-.15-9.78,22.93-5.44.8Z"/>
			<path id="Tracé_276" data-name="Tracé 276" class="cls-6" d="M443.33,335.77l4.84-.18-9.75,22.85-5.28.77Z"/>
			<path id="Tracé_277" data-name="Tracé 277" class="cls-7"
				  d="M400.17,355.92l-8.75,24.07,16.37-4.54,8.1-23.33Z"/>
			<path id="Tracé_278" data-name="Tracé 278" class="cls-8"
				  d="M400.17,355.92l-8.75,24.07,16.37-4.54,8.1-23.33Z"/>
			<path id="Tracé_279" data-name="Tracé 279" class="cls-7"
				  d="M377.32,342.56l22.85,13.36-8.75,24.07-22.27-14.8Z"/>
			<path id="Tracé_280" data-name="Tracé 280" class="cls-9"
				  d="M377.32,342.56l22.85,13.36-8.75,24.07-22.27-14.8Z"/>
			<path id="Tracé_281" data-name="Tracé 281" class="cls-7"
				  d="M377.32,342.56l16.86-1.3,21.71,10.86-15.72,3.8Z"/>
			<path id="Tracé_282" data-name="Tracé 282" class="cls-6"
				  d="M377.32,342.56l16.86-1.3,21.71,10.86-15.72,3.8Z"/>
			<path id="Tracé_283" data-name="Tracé 283" class="cls-4" d="M406.42,333.64l.64.33-5.43,14.59-.81-.25Z"/>
			<path id="Tracé_284" data-name="Tracé 284" class="cls-6" d="M406.42,333.64l.25.13-5.58,14.62-.27-.08Z"/>
			<path id="Tracé_285" data-name="Tracé 285" class="cls-5" d="M407.06,333.97l-.39-.2-5.58,14.62.54.17Z"/>
			<path id="Tracé_286" data-name="Tracé 286" class="cls-4"
				  d="M327.66,339.96,316.4,376.58l12.96-2.02,11.43-35.08Z"/>
			<path id="Tracé_287" data-name="Tracé 287" class="cls-5"
				  d="M327.66,339.96,316.4,376.58l12.96-2.02,11.43-35.08Z"/>
			<path id="Tracé_288" data-name="Tracé 288" class="cls-6"
				  d="M327.86,340.17l-11.18,36.37,12.68-1.98,11.33-34.79Z"/>
			<path id="Tracé_289" data-name="Tracé 289" class="cls-4"
				  d="M341.35,339.48l-11.26,35.08,12.23-1.79,11.18-33.78Z"/>
			<path id="Tracé_290" data-name="Tracé 290" class="cls-5"
				  d="M341.35,339.48l-11.26,35.08,12.23-1.79,11.18-33.78Z"/>
			<path id="Tracé_291" data-name="Tracé 291" class="cls-6"
				  d="M341.56,339.77l-11.18,34.74,11.94-1.74,11.12-33.57Z"/>
			<path id="Tracé_292" data-name="Tracé 292" class="cls-4"
				  d="M353.99,339l-11.14,33.49,11.14-1.42,11.14-32.36Z"/>
			<path id="Tracé_293" data-name="Tracé 293" class="cls-5"
				  d="M353.99,339l-11.14,33.49,11.14-1.42,11.14-32.36Z"/>
			<path id="Tracé_294" data-name="Tracé 294" class="cls-6"
				  d="M354.14,339.2l-10.99,33.25,10.84-1.38,11.04-32.08Z"/>
			<path id="Tracé_295" data-name="Tracé 295" class="cls-4"
				  d="M365.58,338.42l-11.26,32.49,10.57-1.5,10.93-31.35Z"/>
			<path id="Tracé_296" data-name="Tracé 296" class="cls-5"
				  d="M365.58,338.42l-11.26,32.49,10.57-1.5,10.93-31.35Z"/>
			<path id="Tracé_297" data-name="Tracé 297" class="cls-6"
				  d="M365.7,338.63l-11.13,32.25,10.32-1.47,10.86-31.15Z"/>
			<path id="Tracé_298" data-name="Tracé 298" class="cls-4"
				  d="M385.49,355.6l-1.33,3.85-16.48,3.28,5.76-16.04Z"/>
			<path id="Tracé_299" data-name="Tracé 299" class="cls-5"
				  d="M385.49,355.6l-1.33,3.85-16.48,3.28,5.76-16.04Z"/>
			<path id="Tracé_300" data-name="Tracé 300" class="cls-6"
				  d="M385.37,355.92l-1.21,3.53-16.18,3.22,5.58-15.66Z"/>
			<path id="Tracé_301" data-name="Tracé 301" class="cls-4"
				  d="M416.25,353.81l-15.71,29.27c-4.2-2-4.23-13.91-1.1-20.75C403.31,355.69,411.9,352.43,416.25,353.81Z"/>
			<g id="Groupe_57" data-name="Groupe 57" class="cls-10">
				<path id="Tracé_302" data-name="Tracé 302"
					  d="M401.8,380.72l-.68,1.27c-3.89-3.67-3.56-14.19-1.68-19.66C396.48,374.06,401.8,380.72,401.8,380.72Z"/>
			</g>
			<g id="Groupe_58" data-name="Groupe 58" class="cls-11">
				<path id="Tracé_303" data-name="Tracé 303" class="cls-2"
					  d="M416.25,353.81l-15.71,29.27c-4.2-2-4.23-13.91-1.1-20.75C403.31,355.69,411.9,352.43,416.25,353.81Z"/>
			</g>
			<path id="Tracé_304" data-name="Tracé 304" class="cls-5"
				  d="M400.42,361.42c6.21-5.42,10.63-6.27,14.52-5.17l.63-1.18C410.76,354.47,406.27,355.63,400.42,361.42Z"/>
			<path id="Tracé_305" data-name="Tracé 305" class="cls-7"
				  d="M402.33,364.87c-4.6,8-5.62,16-2.28,17.92s9.77-3,14.37-10.94,5.62-16,2.28-17.91S406.93,356.91,402.33,364.87Z"/>
			<path id="Tracé_306" data-name="Tracé 306" class="cls-6"
				  d="M402.33,364.87c-4.6,8-5.62,16-2.28,17.92s9.77-3,14.37-10.94,5.62-16,2.28-17.91S406.93,356.91,402.33,364.87Z"/>
			<path id="Tracé_307" data-name="Tracé 307" class="cls-8"
				  d="M402.35,364.57a29.631,29.631,0,0,0-2.21,4.94,3.14,3.14,0,0,0,1.12,3.67c1.6.92,4.69-1.43,6.9-5.25s2.7-7.68,1.1-8.61c-.94-.54-2.75-.19-4.06,1.31a26.319,26.319,0,0,0-2.85,3.94Z"/>
			<path id="Tracé_308" data-name="Tracé 308" class="cls-4"
				  d="M410.76,367.28l-4.18-1.69L404.21,363a2.48,2.48,0,0,0-1.71,2.77l3.22,1.06,3.2,3.61Z"/>
			<path id="Tracé_309" data-name="Tracé 309" class="cls-5"
				  d="M410.76,367.28l-4.18-1.69L404.21,363a2.48,2.48,0,0,0-1.71,2.77l3.22,1.06,3.2,3.61Z"/>
			<path id="Tracé_310" data-name="Tracé 310" class="cls-4"
				  d="M409.17,368.49c-.51.89-.62,1.77-.25,2s1.08-.33,1.59-1.21.62-1.77.25-2S409.68,367.61,409.17,368.49Z"/>
			<path id="Tracé_311" data-name="Tracé 311" class="cls-6"
				  d="M409.17,368.49c-.51.89-.62,1.77-.25,2s1.08-.33,1.59-1.21.62-1.77.25-2S409.68,367.61,409.17,368.49Z"/>
			<path id="Tracé_312" data-name="Tracé 312" class="cls-8"
				  d="M402.87,364.06a3.07,3.07,0,0,0-.37,1.75l3.22,1.06,3.2,3.61c-.4-.3-.12-1.5.34-2.13C409.26,368.35,408,367.56,402.87,364.06Z"/>
			<path id="Tracé_313" data-name="Tracé 313" class="cls-5"
				  d="M410.48,367.25l-4.01-1.51-2.49-2.61-.16.06,2.58,2.58,3.85,1.56Z"/>
			<g id="Groupe_59" data-name="Groupe 59" class="cls-10">
				<path id="Tracé_314" data-name="Tracé 314"
					  d="M409.37,368.61c-.43.75-.53,1.51-.22,1.69s.93-.28,1.36-1,.53-1.51.22-1.7S409.8,367.85,409.37,368.61Z"/>
				<path id="Tracé_315" data-name="Tracé 315" class="cls-12"
					  d="M409.37,368.61c-.43.75-.53,1.51-.22,1.69s.93-.28,1.36-1,.53-1.51.22-1.7S409.8,367.85,409.37,368.61Z"/>
			</g>
			<path id="Tracé_316" data-name="Tracé 316" class="cls-4" d="M402.75,380.94l.2.32,11.46-5.59-.15-.3Z"/>
			<path id="Tracé_317" data-name="Tracé 317" class="cls-13" d="M402.75,380.94l.2.32,11.46-5.59-.15-.3Z"/>
			<path id="Tracé_318" data-name="Tracé 318" class="cls-4" d="M417.71,359.69h.3l.32,10.04h-.4Z"/>
			<path id="Tracé_319" data-name="Tracé 319" class="cls-13" d="M417.71,359.69h.3l.32,10.04h-.4Z"/>
			<path id="Tracé_320" data-name="Tracé 320" class="cls-4" d="M404.26,362.14l14.07,7.59-.17.23L404,362.4Z"/>
			<path id="Tracé_321" data-name="Tracé 321" class="cls-13" d="M404.26,362.14l14.07,7.59-.17.23L404,362.4Z"/>
			<path id="Tracé_322" data-name="Tracé 322" class="cls-4" d="M403.65,363.11l.24-.3,10.62,12.42-.16.24Z"/>
			<path id="Tracé_323" data-name="Tracé 323" class="cls-13" d="M403.65,363.11l.24-.3,10.62,12.42-.16.24Z"/>
			<path id="Tracé_324" data-name="Tracé 324" class="cls-4"
				  d="M415.1,372.19c-1,1.79-1.26,3.59-.51,4s2.2-.66,3.23-2.45,1.26-3.59.51-4S416.14,370.4,415.1,372.19Z"/>
			<path id="Tracé_325" data-name="Tracé 325" class="cls-5"
				  d="M415.1,372.19c-1,1.79-1.26,3.59-.51,4s2.2-.66,3.23-2.45,1.26-3.59.51-4S416.14,370.4,415.1,372.19Z"/>
			<path id="Tracé_326" data-name="Tracé 326" class="cls-1"
				  d="M415.38,372.35c-.93,1.61-1.13,3.22-.46,3.61s2-.6,2.9-2.2,1.13-3.23.46-3.62S416.31,370.74,415.38,372.35Z"/>
			<path id="Tracé_327" data-name="Tracé 327" class="cls-8" d="M384.16,359.45l-15.01,5.74,1.1-3.05Z"/>
		</g>
		<g id="freepik--planet-2--inject-1">
			<circle id="Ellipse_11" data-name="Ellipse 11" class="cls-7" cx="26.63" cy="26.63" r="26.63"
					transform="translate(370.6 104)"/>
			<circle id="Ellipse_12" data-name="Ellipse 12" class="cls-6" cx="26.63" cy="26.63" r="26.63"
					transform="translate(370.6 104)"/>
			<circle id="Ellipse_13" data-name="Ellipse 13" class="cls-6" cx="26.63" cy="26.63" r="26.63"
					transform="translate(370.6 104)"/>
			<path id="Tracé_328" data-name="Tracé 328" class="cls-5"
				  d="M373.77,118c-.6,3,1.48,4.26,6.05,4a78.16,78.16,0,0,0,31.09-8.38c2.12-1.45,2.33-3.1,1.53-4.86,12.93,10.27,13.83,24,8.2,34.55a10.65,10.65,0,0,1-5.81,4.33,82.37,82.37,0,0,1-21.52,5.27c-6.83,1-10.84.55-12.38-1.23C369.28,142.65,368.3,128.8,373.77,118Z"/>
			<path id="Tracé_329" data-name="Tracé 329" class="cls-5"
				  d="M370.6,130.63A25.23,25.23,0,0,0,375,145c1.4,2,5.93,2.4,13,1.41a100.621,100.621,0,0,0,26.79-6.56c4.68-1.84,7.78-4.19,9.11-7.14a27,27,0,0,0-2.72-13.7c-.41,3.68-2.93,6.73-8,9a136.589,136.589,0,0,1-30.73,7.59C375.76,136.37,371.15,135.27,370.6,130.63Z"/>
			<path id="Tracé_330" data-name="Tracé 330" class="cls-1"
				  d="M386.52,107.19a40.11,40.11,0,0,1,7.86-2.15c3.53-.36,4.14.24,3.75,1.17a12,12,0,0,1-3.66,2.56,22.221,22.221,0,0,1-6.7,1.73c-1.61.07-3.32.11-4.29-.63C383,109,384.44,108.08,386.52,107.19Z"/>
			<path id="Tracé_331" data-name="Tracé 331" class="cls-7"
				  d="M440.24,117.55c-1.33-4.1-10.08-5.25-22.29-3.64a23.649,23.649,0,0,1,2.82,4.26h0c4.37.17,7.26,1.21,7.89,3.14,1.54,4.77-11.27,13.19-28.62,18.8s-32.66,6.31-34.2,1.54c-.67-2,.94-4.47,4.78-7.35-.05,0,.27-.21.22-.18a27.243,27.243,0,0,1-.18-5c-11.14,5.94-17.78,12.13-16.43,16.29,2.12,6.53,23.09,5.59,46.85-2.11S442.36,124.08,440.24,117.55Z"/>
			<path id="Tracé_332" data-name="Tracé 332" class="cls-14"
				  d="M440.24,117.55c-1.33-4.1-10.08-5.25-22.29-3.64a23.649,23.649,0,0,1,2.82,4.26h0c4.37.17,7.26,1.21,7.89,3.14,1.54,4.77-11.27,13.19-28.62,18.8s-32.66,6.31-34.2,1.54c-.67-2,.94-4.47,4.78-7.35-.05,0,.27-.21.22-.18a27.243,27.243,0,0,1-.18-5c-11.14,5.94-17.78,12.13-16.43,16.29,2.12,6.53,23.09,5.59,46.85-2.11S442.36,124.08,440.24,117.55Z"/>
		</g>
		<g id="freepik--planet-1--inject-1">
			<circle id="Ellipse_14" data-name="Ellipse 14" class="cls-7" cx="39.01" cy="39.01" r="39.01"
					transform="translate(58.531 178.563) rotate(-45)"/>
			<circle id="Ellipse_15" data-name="Ellipse 15" class="cls-6" cx="39.01" cy="39.01" r="39.01"
					transform="translate(58.531 178.563) rotate(-45)"/>
			<path id="Tracé_333" data-name="Tracé 333" class="cls-8"
				  d="M141.7,181.57l-.89.13a.81.81,0,0,1-.65-.18l-1.44-1.21a1.37,1.37,0,0,0-.2-.13l-4.2-1.81a.82.82,0,0,1-.35-.29l-2.37-3.35a1,1,0,0,0-.42-.35l-1.39-.64a.66.66,0,0,0-.2-.06l-1.47-.22a1.34,1.34,0,0,1-.56-.24l-3.12-2.36a.91.91,0,0,0-.43-.17l-2.29-.3a.83.83,0,0,0-.44.06l-.62.27a.84.84,0,0,1-.66,0l-2.73-1.26a.78.78,0,0,0-.52-.06l-2.42.54a.76.76,0,0,0-.39.24l-1,1.1a.72.72,0,0,1-.69.22l-2-.42-4.21-1.88-1.37-2.14a.79.79,0,0,1-.1-.56l.3-1.66,1-2.38a.14.14,0,0,0-.15-.2l-1.77.21a.73.73,0,0,0-.54.36l-.52.9a.86.86,0,0,1-.55.4l-2.42.54a.45.45,0,0,1-.54-.3l-.3-.91-.74-1.36a.71.71,0,0,1,0-.74l1.2-1.75.47-1.21a.77.77,0,0,1,.31-.38l1.59-1a.85.85,0,0,1,.54-.12l1.51.21a.69.69,0,0,0,.54-.15l.61-.48a.73.73,0,0,1,.38-.14l1.69-.12a.82.82,0,0,1,.4.08l.91.42a.52.52,0,0,1,.29.47V158a.48.48,0,0,0,.48.48h.27a.63.63,0,0,0,.62-.68l-.08-.7-.16-1.42a.66.66,0,0,1,.36-.67l1.62-.81,2.12-2.33,1.44-2.17,2.66-.83a.55.55,0,0,0,.39-.52v-1.3a.51.51,0,0,1,.39-.5l1.76-.43a.68.68,0,0,0,.39-.26l.73-1.08a.29.29,0,0,0-.14-.44l-3.21-1.18-2.35-1.14a.64.64,0,0,0-.64.05l-3,2.09a.74.74,0,0,1-.72.06l-2.17-1-1.63-.75a.18.18,0,0,1,0-.33l1.65-.55a.56.56,0,0,0,.2-.11L112,139.6A38.74,38.74,0,0,0,96,144a72.16,72.16,0,0,0-4.2,15.72.8.8,0,0,0,.25.68l6.14,5.88a.67.67,0,0,0,.4.18l2.28.25a.68.68,0,0,1,.32.11l8.8,5.29a.62.62,0,0,1,.31.61l-.85,8.89a1.45,1.45,0,0,0,.22.95l4.3,6.83a.93.93,0,0,0,.21.23l3.3,2.54a.56.56,0,0,1,.21.53l-1.18,7.22-2.25,11.15c.22,1.5,2.17.58,5-1.52l2.81-4.62,2.47-1,6.32-4.51,4.35-4.93,2.34-5.18a1.14,1.14,0,0,1,.15-.23l2.38-2.73,1.59-1.65a.83.83,0,0,0,.23-.56v-2.38a.17.17,0,0,0-.2-.18Z"/>
			<path id="Tracé_334" data-name="Tracé 334" class="cls-2" d="M90.18,161.93Z"/>
			<path id="Tracé_335" data-name="Tracé 335" class="cls-2" d="M147.73,177.55Z"/>
			<path id="Tracé_336" data-name="Tracé 336" class="cls-2" d="M150.31,174.26Z"/>
			<path id="Tracé_337" data-name="Tracé 337" class="cls-2" d="M150.31,174.21v-.01h0Z"/>
			<path id="Tracé_338" data-name="Tracé 338" class="cls-2" d="M131.08,147.84h-.05a.13.13,0,0,0,0-.06Z"/>
		</g>
		<g id="freepik--Character--inject-1">
			<path id="Tracé_339" data-name="Tracé 339" class="cls-7"
				  d="M281.61,248.5c3.26,1.72,28.6,30.3,21.84,43.89-5,10-36.25,14.65-36.25,14.65l-3.85-8.53s22.88-8.1,24.23-11.65-24.36-22.45-24.36-22.45Z"/>
			<path id="Tracé_340" data-name="Tracé 340" class="cls-14"
				  d="M281.61,248.5c3.26,1.72,28.6,30.3,21.84,43.89-5,10-36.25,14.65-36.25,14.65l-3.85-8.53s22.88-8.1,24.23-11.65-24.36-22.45-24.36-22.45Z"/>
			<path id="Tracé_341" data-name="Tracé 341" class="cls-8"
				  d="M278.13,292.63c-.82,3.32-3.2,5.88-8.06,7.26l3,6.07-.62.13-4.74-9.2Z"/>
			<path id="Tracé_342" data-name="Tracé 342" class="cls-7"
				  d="M266.78,295l6.63,12.88-12.77,2.89a1.33,1.33,0,0,0-1,1.7l1.52,4.69a2,2,0,0,1-.85,2.27l-1,.6a1.37,1.37,0,0,1-1.84-.42l-11-16.61a.82.82,0,0,1,.42-1.23Z"/>
			<g id="Groupe_60" data-name="Groupe 60" class="cls-10">
				<path id="Tracé_343" data-name="Tracé 343" class="cls-2"
					  d="M266.78,295l6.63,12.88-12.77,2.89a1.33,1.33,0,0,0-1,1.7l1.52,4.69a2,2,0,0,1-.85,2.27l-1,.6a1.37,1.37,0,0,1-1.84-.42l-11-16.61a.82.82,0,0,1,.42-1.23Z"/>
			</g>
			<path id="Tracé_344" data-name="Tracé 344" class="cls-8" d="M255,299a40.39,40.39,0,0,0,14.38,1l-2.6-5.05Z"/>
			<path id="Tracé_345" data-name="Tracé 345" class="cls-8"
				  d="M280.34,278.08l2.1,1.92c2.14-7.73-1.72-15.13-3-25l-1.85.52a101.079,101.079,0,0,1,2.75,22.56Z"/>
			<path id="Tracé_346" data-name="Tracé 346" class="cls-7"
				  d="M224.16,331.24,206,338.21l-3.4-26.71,17.94-7.19Z"/>
			<path id="Tracé_347" data-name="Tracé 347" class="cls-8"
				  d="M224.16,331.24,206,338.21l-3.4-26.71,17.94-7.19Z"/>
			<path id="Tracé_348" data-name="Tracé 348" class="cls-7"
				  d="M212.72,305c10.81-22.13,21.65-38.08,32.57-40.2L328,241c19.84-3,37.74,2.86,53.59,18.18-2.93,24.86-15,37.91-32.32,44.09l-85.54,22.48C255.92,327.69,239.88,321.67,212.72,305Z"/>
			<path id="Tracé_349" data-name="Tracé 349" class="cls-7"
				  d="M189.65,307.71,218.78,294c7.62,5,8.43,12.46,6.07,18.34l-29.56,9.73C188.94,318.29,187.64,314.13,189.65,307.71Z"/>
			<path id="Tracé_350" data-name="Tracé 350" class="cls-7"
				  d="M169.23,301.11l-11.91,1.07a17,17,0,0,0-9.87,4.31l-36.81,33.28L160.45,344a17,17,0,0,0,7.86-1.19l9.54-3.9a17,17,0,0,0,10.23-12.34l.38-1.86a17,17,0,0,0-.47-8.53l-1.08-3.37a17,17,0,0,0-3.23-5.83h0a17,17,0,0,0-14.45-5.87Z"/>
			<path id="Tracé_351" data-name="Tracé 351" class="cls-15"
				  d="M169.23,301.11l-11.91,1.07a17,17,0,0,0-9.87,4.31l-36.81,33.28L160.45,344a17,17,0,0,0,7.86-1.19l9.54-3.9a17,17,0,0,0,10.23-12.34l.38-1.86a17,17,0,0,0-.47-8.53l-1.08-3.37a17,17,0,0,0-3.23-5.83h0a17,17,0,0,0-14.45-5.87Z"/>
			<path id="Tracé_352" data-name="Tracé 352" class="cls-16"
				  d="M176.66,309.59l-6.07.55a8.65,8.65,0,0,0-5,2.19l-18.75,16.95,25.37,2.18a8.68,8.68,0,0,0,4-.61l4.86-2a8.66,8.66,0,0,0,5.21-6.29l.19-.95a8.63,8.63,0,0,0-.23-4.34l-.55-1.72a8.68,8.68,0,0,0-1.65-3h0a8.64,8.64,0,0,0-7.38-2.96Z"/>
			<path id="Tracé_353" data-name="Tracé 353" class="cls-7"
				  d="M179,313.22l-3.8.34a5.44,5.44,0,0,0-3.14,1.38l-11.72,10.6,15.86,1.36a5.52,5.52,0,0,0,2.51-.38l3-1.24a5.42,5.42,0,0,0,3.25-3.94l.12-.59a5.42,5.42,0,0,0-.15-2.71l-.34-1.08a5.43,5.43,0,0,0-1-1.85h0a5.42,5.42,0,0,0-4.59-1.89Z"/>
			<path id="Tracé_354" data-name="Tracé 354" class="cls-1"
				  d="M212.72,305c10.81-22.13,21.65-38.08,33.23-40.39l82.65-23.76c19.19-2.85,37.09,3.05,52.94,18.37-2.93,24.86-15,37.91-32.32,44.09l-85.54,22.48C255.92,327.69,239.88,321.67,212.72,305Z"/>
			<path id="Tracé_355" data-name="Tracé 355" class="cls-7"
				  d="M189.65,307.71,218.78,294c-1.85,8.05,2.19,14.49,6.07,18.34l-29.56,9.73C188.94,318.29,187.64,314.13,189.65,307.71Z"/>
			<path id="Tracé_356" data-name="Tracé 356" class="cls-7"
				  d="M185.14,352.34l27.83-10.63,5.04-33.55-20.83,8.02Z"/>
			<path id="Tracé_357" data-name="Tracé 357" class="cls-14"
				  d="M185.14,352.34l27.83-10.63,5.04-33.55-20.83,8.02Z"/>
			<path id="Tracé_358" data-name="Tracé 358" class="cls-7"
				  d="M160.96,285.79l30.33-9.22,24.75,21.83-23.93,9.85Z"/>
			<path id="Tracé_359" data-name="Tracé 359" class="cls-14"
				  d="M160.96,285.79l30.33-9.22,24.75,21.83-23.93,9.85Z"/>
			<path id="Tracé_360" data-name="Tracé 360" class="cls-17"
				  d="M315.33,244.67l4.18-1.2a12.15,12.15,0,0,0-5.23,8.68c-3.67,19.32,1.14,37,13.36,52.31,2,2.06,5.27,2.57,8.06,2.4l-3.58.94c-3.78.25-5.53-1-7.72-3-12.31-11.79-17.73-35.29-13.47-52.38C311.71,248.38,313.59,245.17,315.33,244.67Z"/>
			<path id="Tracé_361" data-name="Tracé 361" class="cls-17"
				  d="M305.8,247.41l4-1.15c-2.54,1.1-4.68,5.15-5.23,8.64-3.66,19.32,1.18,36.77,13.36,52.31,1.72,1.91,5.19,2.39,8,2.23l-3.74.95c-3.78.25-5.43-.65-7.48-2.82-12.31-11.79-17.74-35.29-13.48-52.38C301.83,251.16,304.61,247.75,305.8,247.41Z"/>
			<path id="Tracé_362" data-name="Tracé 362" class="cls-7"
				  d="M378.75,257.93c-.77,2.07-.42,3.65,1.53,4.5l25.81-7.8c3.87-1.59,5.3-2.6-.46-1.87Z"/>
			<path id="Tracé_363" data-name="Tracé 363" class="cls-18"
				  d="M378.75,257.93c-.77,2.07-.42,3.65,1.53,4.5l25.81-7.8c3.87-1.59,5.3-2.6-.46-1.87Z"/>
			<path id="Tracé_364" data-name="Tracé 364" class="cls-8"
				  d="M222.44,309.57c16.57,6,35.21,14.07,43.12,11.69L350,298.81c11.13-1.65,21.36-23.3,29.08-37.18-9,12.78-18.1,31.61-31.33,34.33L265.56,318C256,321.17,237.79,313.59,222.44,309.57Z"/>
			<path id="Tracé_365" data-name="Tracé 365" class="cls-6"
				  d="M319.52,245.56a8,8,0,0,0-3.11,4.95l14-3.88c13.19-2.87,36.45,5.83,48,13-10-8.88-34.82-19.62-47-16.69Z"/>
			<path id="Tracé_366" data-name="Tracé 366" class="cls-18" d="M378.65,261.02l1.12,1.15,29.44-9.05Z"/>
			<path id="Tracé_367" data-name="Tracé 367" class="cls-8"
				  d="M274.07,256.53l-.72,39.88-28.15.15c14.67,5.65,29.3,7.34,33.11,1.65,6.59-11,6.3-26.14,2-43.49Z"/>
			<path id="Tracé_368" data-name="Tracé 368" class="cls-19"
				  d="M280.77,256.48l22.32-6.24a8.35,8.35,0,0,0-1.62,3.74l-20,5.68Z"/>
			<path id="Tracé_369" data-name="Tracé 369" class="cls-20"
				  d="M255.57,264.68l-11.31,3.61a23,23,0,0,0-7,5.15l-6.12,7.09,4.21.92,5.08-5.92a17.281,17.281,0,0,1,5.57-4.28l10.79-3.83Z"/>
			<path id="Tracé_370" data-name="Tracé 370" class="cls-7"
				  d="M233.89,211l15.18,11.66,24.47,3.12,15.17-35.08-7.15-9.84-32.49-11.61C240.9,180.87,237.08,195.32,233.89,211Z"/>
			<path id="Tracé_371" data-name="Tracé 371" class="cls-5"
				  d="M233.89,211l15.18,11.66,24.47,3.12,15.17-35.08-7.15-9.84-32.49-11.61C242,179.45,237.06,193.65,233.89,211Z"/>
			<path id="Tracé_372" data-name="Tracé 372" class="cls-18"
				  d="M233.89,211l15.18,11.65,15.71-38.82c-5.08-2.91-10.31-7.71-15.71-14.58C242.71,177.59,237.72,191.83,233.89,211Z"/>
			<path id="Tracé_373" data-name="Tracé 373" class="cls-7"
				  d="M275.41,248.53c2.06,3,10.82,40.31-1.56,49.09-9.1,6.45-38.87-4.23-38.87-4.23l.63-9.34s24,3.69,26.87,1.2-10.16-25.2-10.85-31.3S275.41,248.53,275.41,248.53Z"/>
			<path id="Tracé_374" data-name="Tracé 374" class="cls-14"
				  d="M275.41,248.53c2.06,3,10.82,40.31-1.56,49.09-9.1,6.45-38.87-4.23-38.87-4.23l.63-9.34s24,3.69,26.87,1.2-10.16-25.2-10.85-31.3S275.41,248.53,275.41,248.53Z"/>
			<path id="Tracé_375" data-name="Tracé 375" class="cls-7"
				  d="M246.06,283.75l-.92,14.45-12.45-4.07a1.32,1.32,0,0,0-1.7,1l-1.1,4.8a2,2,0,0,1-1.9,1.51h-1.16a1.37,1.37,0,0,1-1.37-1.3l-.92-19.91a.82.82,0,0,1,1-.84Z"/>
			<path id="Tracé_376" data-name="Tracé 376" class="cls-7"
				  d="M297.11,191.64s4.55,22.27,7.66,26.74,19,19.47,19,19.47l-1.5,4.66s-23.86-15.31-25.5-17.46S284,202,284,202Z"/>
			<path id="Tracé_377" data-name="Tracé 377" class="cls-4"
				  d="M304.77,166.76s-1.3,6.33-6.2,7.72.08-12.18.08-12.18l4.48-1.1Z"/>
			<circle id="Ellipse_16" data-name="Ellipse 16" class="cls-4" cx="17.8" cy="17.8" r="17.8"
					transform="translate(266.417 169.537) rotate(-45)"/>
			<circle id="Ellipse_17" data-name="Ellipse 17" class="cls-5" cx="17.8" cy="17.8" r="17.8"
					transform="translate(266.417 169.537) rotate(-45)"/>
			<path id="Tracé_378" data-name="Tracé 378" class="cls-17"
				  d="M296,183.27a14.8,14.8,0,0,0,9.18-6l-1.37-.81a24.17,24.17,0,0,1-8.84,6Z"/>
			<path id="Tracé_379" data-name="Tracé 379" class="cls-17"
				  d="M305.65,176.33l-1.42-.67a2.81,2.81,0,0,0,.65-1.3l1.33.68a2.19,2.19,0,0,1-.56,1.29Z"/>
			<path id="Tracé_380" data-name="Tracé 380" class="cls-21"
				  d="M278.33,182.74c-1,3.67,9.56,8.83,13.26,5.16-2-1.51-2.52-3.09-2.27-4.63a7.1,7.1,0,0,1,1.09-2.61,12.762,12.762,0,0,1,.92-1.3l-4.5-9.32C285.9,174.14,283.82,183.4,278.33,182.74Z"/>
			<path id="Tracé_381" data-name="Tracé 381" class="cls-8"
				  d="M286.71,174.4c-2,4.57,1,7.69,2.61,8.87a7.1,7.1,0,0,1,1.09-2.61Z"/>
			<path id="Tracé_382" data-name="Tracé 382" class="cls-21"
				  d="M285.22,176.16a7,7,0,0,0,6.65,5.35,7.83,7.83,0,0,0,5.47-1.89,6.432,6.432,0,0,0,.6-.57c3.54-3.76,7-11.33,3.36-16a7.63,7.63,0,0,0-12.94,1.39C285.87,169.46,284.18,172.29,285.22,176.16Z"/>
			<path id="Tracé_383" data-name="Tracé 383" class="cls-4"
				  d="M294.94,170a.69.69,0,0,0,.05,1c.27.15.66,0,.88-.45s.2-.83-.06-1S295.17,169.63,294.94,170Z"/>
			<path id="Tracé_384" data-name="Tracé 384" class="cls-4"
				  d="M299.39,172.59a.71.71,0,0,0,.06,1c.26.14.65-.06.88-.45s.2-.84-.06-1S299.61,172.21,299.39,172.59Z"/>
			<path id="Tracé_385" data-name="Tracé 385" class="cls-22"
				  d="M297.87,172a15.79,15.79,0,0,0-.05,4.45,2.63,2.63,0,0,1-2.1-.73Z"/>
			<path id="Tracé_386" data-name="Tracé 386" class="cls-4"
				  d="M294.38,167.8a.28.28,0,0,0,.28,0,2.13,2.13,0,0,1,1.92.08.27.27,0,0,0,.3-.44h0a2.64,2.64,0,0,0-2.43-.13.27.27,0,0,0-.15.35h0a.44.44,0,0,0,.08.14Z"/>
			<path id="Tracé_387" data-name="Tracé 387" class="cls-4"
				  d="M293.91,177.36h0a4.09,4.09,0,0,1-2.5-2.83.15.15,0,0,1,.12-.17.14.14,0,0,1,.16.11h0A3.94,3.94,0,0,0,294,177.1a.13.13,0,0,1,.08.17h0a.14.14,0,0,1-.18.08Z"/>
			<path id="Tracé_388" data-name="Tracé 388" class="cls-4"
				  d="M302.19,172.15a.22.22,0,0,0,.13.08.26.26,0,0,0,.29-.24h0a2.64,2.64,0,0,0-.93-2.25.26.26,0,0,0-.37.05h0a.27.27,0,0,0,.06.37h0a2.19,2.19,0,0,1,.7,1.8.28.28,0,0,0,.12.19Z"/>
			<path id="Tracé_389" data-name="Tracé 389" class="cls-4"
				  d="M285.14,167.4c1.1-4.94,2.87-8.55,4.64-9.37s6.15,5.24,6.15,5.24a2,2,0,0,0-3.28,1.16c-.23,2.2-2.74,4.52-4.74,4.94,0,0,.37-.82-.4-1s-2.71,4.1-2.41,6.76C285.1,175.15,284,172.34,285.14,167.4Z"/>
			<path id="Tracé_390" data-name="Tracé 390" class="cls-21"
				  d="M284,167.23a5.31,5.31,0,0,0,1.31,3.84c1.23,1.39,2.86.53,3.36-1.17.43-1.51.34-4.09-1.32-4.84a2.37,2.37,0,0,0-3.35,2.17Z"/>
			<path id="Tracé_391" data-name="Tracé 391" class="cls-4"
				  d="M288.24,160.41s3.45-4,10.18-3.46c8.23.69,7.13,12.1,5.73,12.59-1.09.18-.24-4.83-1.41-4.36-.9.67-.9,1.2-1.84,1.11-.53,0-1.16-1.18-1.79-2.43-1.23-1.28-4.05,2.82-6.14,3.67C291.07,167,289.48,163,288.24,160.41Z"/>
			<path id="Tracé_392" data-name="Tracé 392" class="cls-7"
				  d="M248.87,228.54c-.58,9.46.63,21.45,3.6,28.57l25.14-1.58,8.83-2.56c-1.66-1.71-5.45-10.72-2.87-24.84Z"/>
			<g id="Groupe_61" data-name="Groupe 61" class="cls-11">
				<path id="Tracé_393" data-name="Tracé 393" class="cls-2"
					  d="M248.87,228.54c-.58,9.46.63,21.45,3.6,28.57l25.14-1.58,8.83-2.56c-1.86-2-5.3-10.71-2.87-24.84Z"/>
			</g>
			<path id="Tracé_394" data-name="Tracé 394" class="cls-8" d="M277.61,255.53l1.39-4.81,4.91,2.99Z"/>
			<path id="Tracé_395" data-name="Tracé 395" class="cls-4"
				  d="M286.71,170.61l-.32,2.34a4.22,4.22,0,0,0,.26,2.14l.15.37a4.21,4.21,0,0,0,3.27,2.6l1.51.23V179l-2-.38a4.23,4.23,0,0,1-3.1-2.53l-.35-.85a4.23,4.23,0,0,1-.24-2.41l.45-2.34Z"/>
			<path id="Tracé_396" data-name="Tracé 396" class="cls-5"
				  d="M286.71,170.61l-.32,2.34a4.22,4.22,0,0,0,.26,2.14l.15.37a4.21,4.21,0,0,0,3.27,2.6l1.51.23V179l-2-.38a4.23,4.23,0,0,1-3.1-2.53l-.35-.85a4.23,4.23,0,0,1-.24-2.41l.45-2.34Z"/>
			<rect id="Rectangle_27" data-name="Rectangle 27" class="cls-4" width="2.23" height="1.88" rx="0.58"
				  transform="translate(291.08 177.87)"/>
			<rect id="Rectangle_28" data-name="Rectangle 28" class="cls-4" width="2.05" height="3.45" rx="0.63"
				  transform="translate(285.56 167.48)"/>
			<path id="Tracé_397" data-name="Tracé 397" class="cls-23"
				  d="M297.11,191.64s4.55,22.27,7.66,26.74,19.71,20.15,19.71,20.15l-2.83,3.54s-23.22-14.87-24.86-17S284,202,284,202Z"/>
			<path id="Tracé_398" data-name="Tracé 398" class="cls-8" d="M289.28,207.41l3.66,11.06-4.59-8.36Z"/>
			<path id="Tracé_399" data-name="Tracé 399" class="cls-7"
				  d="M248.69,231.49,283,233.67s4-31.33,15-41.37l-5.65-4.65-15-5.2s-7.66-.21-12.16.75a46.841,46.841,0,0,0-3.8,5.42,80.14,80.14,0,0,0-5.84,11.52,93.27,93.27,0,0,0-6.86,31.35Z"/>
			<path id="Tracé_400" data-name="Tracé 400" class="cls-8"
				  d="M283.2,232.28l-11-7.8c-2-1.92-7.58-15.31-11.76-24.18l23.44,28.24Z"/>
			<path id="Tracé_401" data-name="Tracé 401" class="cls-24"
				  d="M271.93,182.5h1.26l22.3,7.74.93.76h0a3,3,0,0,1-1.54,1.65l-1.29.62C285.41,190.29,277.79,187.43,271.93,182.5Z"/>
			<path id="Tracé_402" data-name="Tracé 402" class="cls-7"
				  d="M273.64,189.64s6.21,21.65,9.32,26.12,24.13,25.05,24.13,25.05l-3.36,3.79s-27.91-18.71-29.55-20.86-13.58-22.81-13.58-22.81C257.4,192.12,269,178.38,273.64,189.64Z"/>
			<path id="Tracé_403" data-name="Tracé 403" class="cls-23"
				  d="M273.64,189.64s6.21,21.65,9.32,26.12,24.13,25.05,24.13,25.05l-3.36,3.79s-27.91-18.71-29.55-20.86-13.58-22.81-13.58-22.81C257.4,192.12,269,178.38,273.64,189.64Z"/>
			<path id="Tracé_404" data-name="Tracé 404" class="cls-7"
				  d="M263.57,198.93l2.28,4.68c1-3.76,2.8-6,5.48-6.62l-2.66-5.35a11.79,11.79,0,0,0-5.1,7.29Z"/>
			<g id="Groupe_62" data-name="Groupe 62" class="cls-10">
				<path id="Tracé_405" data-name="Tracé 405" class="cls-2"
					  d="M246.06,283.75l-.92,14.45-12.45-4.07a1.32,1.32,0,0,0-1.7,1l-1.1,4.8a2,2,0,0,1-1.9,1.51h-1.16a1.37,1.37,0,0,1-1.37-1.3l-.92-19.91a.82.82,0,0,1,1-.84Z"/>
			</g>
			<path id="Tracé_406" data-name="Tracé 406" class="cls-7"
				  d="M300.56,231.88l-8.35,8.46,11.73,5.31,2.7,6.15a.78.78,0,0,0,1.26.24l5.83-5.74a.72.72,0,0,0-.05-1.08l-5.45-4.53Z"/>
			<path id="Tracé_407" data-name="Tracé 407" class="cls-14"
				  d="M300.56,231.88l-8.35,8.46,11.73,5.31,2.7,6.15a.78.78,0,0,0,1.26.24l5.83-5.74a.72.72,0,0,0-.05-1.08l-5.45-4.53Z"/>
			<path id="Tracé_408" data-name="Tracé 408" class="cls-7"
				  d="M308.92,237.79l8.36-9.25,7.42,8.57,5.09,2.58a.59.59,0,0,1,.23.83l-.14.24-8.64,2.2-.62-.74Z"/>
			<g id="Groupe_63" data-name="Groupe 63" class="cls-11">
				<path id="Tracé_409" data-name="Tracé 409" class="cls-2"
					  d="M308.92,237.79l8.36-9.25,7.42,8.57,5.09,2.58a.59.59,0,0,1,.23.83l-.14.24-8.64,2.2-.62-.74Z"/>
			</g>
			<path id="Tracé_410" data-name="Tracé 410" class="cls-7"
				  d="M309.39,169.54A17.8,17.8,0,1,0,275.44,177l-.72-.58c-1.72,1-2.62,2.69-2.56,5.24a63.75,63.75,0,0,0,21.7,10.58,7.36,7.36,0,0,0,2.56-5.24l-.75-.16a17.8,17.8,0,0,0,13.72-17.3Zm-15,14.81a12.9,12.9,0,1,1,.04,0Z"/>
			<path id="Tracé_411" data-name="Tracé 411" class="cls-14"
				  d="M309.39,169.54A17.8,17.8,0,1,0,275.44,177l-.72-.58c-1.72,1-2.62,2.69-2.56,5.24a63.75,63.75,0,0,0,21.7,10.58,7.36,7.36,0,0,0,2.56-5.24l-.75-.16a17.8,17.8,0,0,0,13.72-17.3Zm-15,14.81a12.9,12.9,0,1,1,.04,0Z"/>
			<path id="Tracé_412" data-name="Tracé 412" class="cls-8"
				  d="M276.18,177.38l5.38,3.48c-4-2.9-6.29-7.14-6.73-12.91a16.72,16.72,0,0,0,1.35,9.43Z"/>
			<path id="Tracé_413" data-name="Tracé 413" class="cls-5"
				  d="M296,154.14a18.14,18.14,0,0,1,12,10.69,19.17,19.17,0,0,0-10.15-11.19Z"/>
			<path id="Tracé_414" data-name="Tracé 414" class="cls-5"
				  d="M296.79,153.22l-1.77.7-1.54-.28.4-1.21a6.32,6.32,0,0,1,2.91.79Z"/>
			<path id="Tracé_415" data-name="Tracé 415" class="cls-24" d="M245.95,285.38l-.76,11.13.63.17.85-11.23Z"/>
		</g>
	</g>
</svg>
