<svg xmlns="http://www.w3.org/2000/svg" width="387.78" height="352.617" viewBox="0 0 387.78 352.617">
  <defs>
    <style>
      .cls-1 {
        fill: #ebebeb;
      }

      .cls-2 {
        fill: #f5f5f5;
      }

      .cls-3 {
        fill: #f0f0f0;
      }

      .cls-4, .cls-5, .cls-7 {
        opacity: 0.1;
      }

      .cls-14, .cls-6 {
        fill: #5158bf;
      }

      .cls-10, .cls-12, .cls-13, .cls-15, .cls-16, .cls-7, .cls-8 {
        fill: #fff;
      }

      .cls-14, .cls-8 {
        opacity: 0.5;
      }

      .cls-12, .cls-9 {
        opacity: 0.2;
      }

      .cls-11, .cls-13 {
        opacity: 0.3;
      }

      .cls-15 {
        opacity: 0.6;
      }

      .cls-16 {
        opacity: 0.8;
      }
    </style>
  </defs>
  <g id="To_the_stars-rafiki" data-name="To the stars-rafiki" transform="translate(-56.11 -74.942)">
    <g id="freepik--background-complete--inject-24">
      <rect id="Rectangle_31" data-name="Rectangle 31" class="cls-1" width="8.69" height="0.25" transform="translate(322.53 401.21)"/>
      <rect id="Rectangle_35" data-name="Rectangle 35" class="cls-1" width="93.68" height="0.25" transform="translate(131.47 395.11)"/>
      <path id="Tracé_418" data-name="Tracé 418" class="cls-2" d="M215.37,75.34l.84,1.71a.67.67,0,0,0,.52.37l1.89.28a.68.68,0,0,1,.37,1.16l-1.36,1.34a.67.67,0,0,0-.2.6l.32,1.88a.68.68,0,0,1-1,.72l-1.69-.89a.7.7,0,0,0-.63,0l-1.7.89a.68.68,0,0,1-1-.72l.33-1.88a.7.7,0,0,0-.2-.6l-1.37-1.34a.68.68,0,0,1,.38-1.16l1.89-.28a.69.69,0,0,0,.52-.37l.84-1.71a.69.69,0,0,1,1.25,0Z"/>
      <path id="Tracé_419" data-name="Tracé 419" class="cls-3" d="M90.86,216.19l.85,1.72a.68.68,0,0,0,.51.37l1.89.28a.68.68,0,0,1,.38,1.16l-1.37,1.33a.69.69,0,0,0-.19.61l.32,1.88a.68.68,0,0,1-1,.72l-1.69-.89a.72.72,0,0,0-.64,0l-1.69.89a.68.68,0,0,1-1-.72l.32-1.88a.69.69,0,0,0-.19-.61L86,219.72a.68.68,0,0,1,.38-1.16l1.89-.28a.68.68,0,0,0,.51-.37l.85-1.72a.68.68,0,0,1,1.23,0Z"/>
      <path id="Tracé_420" data-name="Tracé 420" class="cls-3" d="M75.16,121.69,76,123.4a.69.69,0,0,0,.51.38l1.89.27a.69.69,0,0,1,.38,1.17l-1.37,1.33a.71.71,0,0,0-.2.6l.33,1.89a.68.68,0,0,1-1,.72l-1.69-.89a.66.66,0,0,0-.64,0l-1.69.89a.68.68,0,0,1-1-.72l.32-1.89a.65.65,0,0,0-.2-.6l-1.36-1.33a.68.68,0,0,1,.37-1.17l1.89-.27a.71.71,0,0,0,.52-.38l.84-1.71a.69.69,0,0,1,1.26,0Z"/>
      <path id="Tracé_421" data-name="Tracé 421" class="cls-3" d="M150.93,164.67l.5,1a.42.42,0,0,0,.31.22l1.13.16a.41.41,0,0,1,.22.7l-.81.8a.4.4,0,0,0-.12.36l.19,1.12a.4.4,0,0,1-.59.43l-1-.53a.42.42,0,0,0-.38,0l-1,.53a.4.4,0,0,1-.59-.43l.19-1.12a.4.4,0,0,0-.12-.36l-.82-.8a.41.41,0,0,1,.23-.7l1.13-.16a.42.42,0,0,0,.31-.22l.5-1a.42.42,0,0,1,.72,0Z"/>
      <path id="Tracé_422" data-name="Tracé 422" class="cls-2" d="M120.28,295.7l.5,1a.43.43,0,0,0,.31.23l1.13.16a.41.41,0,0,1,.23.7l-.82.79a.42.42,0,0,0-.12.37l.2,1.12a.41.41,0,0,1-.6.43l-1-.53a.42.42,0,0,0-.38,0l-1,.53a.41.41,0,0,1-.59-.43l.19-1.12a.42.42,0,0,0-.11-.37l-.82-.79a.41.41,0,0,1,.22-.7l1.13-.16a.41.41,0,0,0,.31-.23l.51-1a.41.41,0,0,1,.71,0Z"/>
      <path id="Tracé_423" data-name="Tracé 423" class="cls-2" d="M434.4,76.9l.5,1a.39.39,0,0,0,.31.22l1.13.17a.41.41,0,0,1,.23.7l-.82.79a.41.41,0,0,0-.12.36l.2,1.13a.41.41,0,0,1-.6.43l-1-.53a.42.42,0,0,0-.38,0l-1,.53a.41.41,0,0,1-.59-.43l.19-1.13a.41.41,0,0,0-.11-.36L431.5,79a.41.41,0,0,1,.22-.7l1.13-.17a.38.38,0,0,0,.31-.22l.51-1a.4.4,0,0,1,.73-.01Z"/>
      <path id="Tracé_424" data-name="Tracé 424" class="cls-3" d="M425.71,265.63l.87,1.77a.68.68,0,0,0,.53.38l2,.29a.7.7,0,0,1,.39,1.2l-1.5,1.38a.73.73,0,0,0-.2.63l.34,2a.71.71,0,0,1-1,.74l-1.75-.92a.7.7,0,0,0-.66,0L423,274a.7.7,0,0,1-1-.74l.33-2a.7.7,0,0,0-.2-.63l-1.42-1.38a.71.71,0,0,1,.4-1.2l1.95-.29a.68.68,0,0,0,.53-.38l.88-1.77a.71.71,0,0,1,1.24.02Z"/>
      <path id="Tracé_425" data-name="Tracé 425" class="cls-3" d="M318.59,99.89a1.33,1.33,0,1,1-1.33-1.33A1.33,1.33,0,0,1,318.59,99.89Z"/>
      <path id="Tracé_426" data-name="Tracé 426" class="cls-2" d="M356.76,357.67a1.32,1.32,0,1,1-.387-.943,1.33,1.33,0,0,1,.387.943Z"/>
      <path id="Tracé_427" data-name="Tracé 427" class="cls-3" d="M132.75,83.31a5.69,5.69,0,1,1-5.69-5.69,5.69,5.69,0,0,1,5.69,5.69Z"/>
      <path id="Tracé_428" data-name="Tracé 428" class="cls-2" d="M186.59,120.91a59,59,0,0,0,10.4.89,12.15,12.15,0,0,1-20.55-3.48,60.09,60.09,0,0,0,10.15,2.59Z"/>
      <path id="Tracé_429" data-name="Tracé 429" class="cls-2" d="M188.36,110.41a56.15,56.15,0,0,0-12-.84,12.16,12.16,0,0,1,23.52,4,55.94,55.94,0,0,0-11.52-3.16Z"/>
      <ellipse id="Ellipse_18" data-name="Ellipse 18" class="cls-2" cx="4.2" cy="19.13" rx="4.2" ry="19.13" transform="translate(168.209 114.831) rotate(-80.41)"/>
      <path id="Tracé_430" data-name="Tracé 430" class="cls-4" d="M433.64,202.8a79.31,79.31,0,0,1-106.42,35.5c-1.62-.8-3.19-1.65-4.69-2.55a98,98,0,0,0,46.6-147.52A79.37,79.37,0,0,1,433.64,202.8Z"/>
      <path id="Tracé_431" data-name="Tracé 431" class="cls-3" d="M397.36,109.35a18,18,0,0,1,7.28,13.51,45.61,45.61,0,0,0-9.92-10,46.441,46.441,0,0,0-12.44-6.58,18,18,0,0,1,15.08,3.07Z"/>
      <path id="Tracé_432" data-name="Tracé 432" class="cls-3" d="M377.33,229.59a18,18,0,0,1-15.2,2.18,45.389,45.389,0,0,0,12.76-5.88,46.37,46.37,0,0,0,10.47-9.41,18,18,0,0,1-8.03,13.11Z"/>
      <path id="Tracé_433" data-name="Tracé 433" class="cls-3" d="M404.66,154.09a17.93,17.93,0,0,1,0,15.35,45.069,45.069,0,0,0-4-13.47,46.371,46.371,0,0,0-7.82-11.69,18,18,0,0,1,11.82,9.81Z"/>
      <path id="Tracé_434" data-name="Tracé 434" class="cls-3" d="M417.55,208.54a18,18,0,0,1-13.81,6.72,45.12,45.12,0,0,0,10.35-9.5,46.471,46.471,0,0,0,7.1-12.15A18,18,0,0,1,417.55,208.54Z"/>
    </g>
    <g id="freepik--Shadow--inject-24" class="cls-5">
      <ellipse id="freepik--path--inject-24" cx="193.89" cy="11.32" rx="193.89" ry="11.32" transform="translate(56.11 404.92)"/>
    </g>
    <g id="freepik--Rocket--inject-24">
      <path id="Tracé_435" data-name="Tracé 435" class="cls-6" d="M254.35,132.83l-.7-.55c3.15-4,6.46-7.76,9.84-11.28l.63.62C260.76,125.11,257.47,128.89,254.35,132.83Z"/>
      <rect id="Rectangle_36" data-name="Rectangle 36" class="cls-6" width="5.19" height="0.88" transform="translate(247.39 140.18) rotate(-51.58)"/>
      <path id="Tracé_436" data-name="Tracé 436" class="cls-6" d="M320,179.22c21.73-34.93,24.69-69.35,8.87-80.49s-47.23,3.24-72.8,35.47L183,226.37l74.92,52.76Z"/>
      <path id="Tracé_437" data-name="Tracé 437" class="cls-7" d="M311.45,173.2l-63.6,98.87-7.78-14.87L303.24,167c17.86-25.51,27.87-48.82,27.91-61.8a1.06,1.06,0,0,1,2.06-.36C337.71,117.79,329.91,144.51,311.45,173.2Z"/>
      <ellipse id="Ellipse_19" data-name="Ellipse 19" class="cls-6" cx="31.81" cy="45.82" rx="31.81" ry="45.82" transform="matrix(0.576, -0.818, 0.818, 0.576, 164.633, 252.357)"/>
      <ellipse id="Ellipse_20" data-name="Ellipse 20" class="cls-8" cx="31.81" cy="45.82" rx="31.81" ry="45.82" transform="matrix(0.576, -0.818, 0.818, 0.576, 164.633, 252.357)"/>
      <path id="Tracé_438" data-name="Tracé 438" class="cls-4" d="M250.1,210.44c-16.44-11.58-35.09-14.89-47-9.48l-18.55,23.38c11-12.28,34.51-11.44,54.17,2.4s28.39,35.73,20.51,50.2l15.57-25C276.14,238.81,266.72,222.14,250.1,210.44Z"/>
      <path id="Tracé_439" data-name="Tracé 439" class="cls-9" d="M276.43,135.06c-4.56,7.22-8,20.73,5.55,30.26s25.11,1.76,30.36-5Z"/>
      <path id="Tracé_440" data-name="Tracé 440" class="cls-10" d="M315.54,152c-1.55,12.9-16.46,22.31-32.11,11.29s-11.82-28.23-.2-34c7.16-3.58,16.28-2,22.52,2.34S316.5,144,315.54,152Z"/>
      <path id="Tracé_441" data-name="Tracé 441" class="cls-6" d="M285.56,160.24c-6.09-4.28-9.21-9.88-8.77-15.74a14.7,14.7,0,0,1,8.1-12c5.44-2.72,13.14-1.87,18.73,2.06s9,10.91,8.25,16.95a14.68,14.68,0,0,1-8.53,11.65C298,165.58,291.65,164.53,285.56,160.24Z"/>
      <path id="Tracé_442" data-name="Tracé 442" class="cls-11" d="M285.56,160.24c-6.09-4.28-9.21-9.88-8.77-15.74a14.7,14.7,0,0,1,8.1-12c5.44-2.72,13.14-1.87,18.73,2.06s9,10.91,8.25,16.95a14.68,14.68,0,0,1-8.53,11.65C298,165.58,291.65,164.53,285.56,160.24Z"/>
      <path id="Tracé_443" data-name="Tracé 443" class="cls-6" d="M285.56,160.24c-6.09-4.28-9.32-9.72-9.08-15.3A12.89,12.89,0,0,1,284,133.78c5.23-2.42,12.78-1.36,18.37,2.58s9.13,10.69,8.61,16.43a12.87,12.87,0,0,1-8,10.84C297.85,165.74,291.65,164.53,285.56,160.24Z"/>
      <path id="Tracé_444" data-name="Tracé 444" class="cls-12" d="M285.56,160.24c-6.09-4.28-9.32-9.72-9.08-15.3A12.89,12.89,0,0,1,284,133.78c5.23-2.42,12.78-1.36,18.37,2.58s9.13,10.69,8.61,16.43a12.87,12.87,0,0,1-8,10.84C297.85,165.74,291.65,164.53,285.56,160.24Z"/>
      <path id="Tracé_445" data-name="Tracé 445" class="cls-13" d="M306.61,140.31l-28.15,12.42a14.34,14.34,0,0,1-2-7.79,12.452,12.452,0,0,1,.75-3.77l18.17-8a21.13,21.13,0,0,1,11.21,7.16Z"/>
      <path id="Tracé_446" data-name="Tracé 446" class="cls-13" d="M310.65,148.32,284.82,159.7a24.94,24.94,0,0,1-4.22-3.92l28.1-12.4a19,19,0,0,1,1.95,4.94Z"/>
      <path id="Tracé_447" data-name="Tracé 447" class="cls-4" d="M338.81,126.05c-.86-6.9-6.16-14.88-14.54-20.78s-17.67-8.2-24.46-6.69c11.55-4.71,21.9-4.89,29.06.15S339.35,113.59,338.81,126.05Z"/>
      <ellipse id="Ellipse_21" data-name="Ellipse 21" class="cls-14" cx="9.91" cy="13.95" rx="9.91" ry="13.95" transform="matrix(0.576, -0.818, 0.818, 0.576, 210.192, 243.019)"/>
      <path id="Tracé_448" data-name="Tracé 448" class="cls-14" d="M209,246.78c-3.15,4.47-10.81,4.51-17.11.07s-8.86-11.66-5.71-16.13,10.82-4.51,17.12-.07S212.11,242.31,209,246.78Z"/>
      <path id="Tracé_449" data-name="Tracé 449" class="cls-14" d="M252.71,277.59c-3.15,4.48-10.81,4.51-17.11.07s-8.85-11.66-5.7-16.13,10.81-4.51,17.11-.07S255.86,273.12,252.71,277.59Z"/>
      <path id="Tracé_450" data-name="Tracé 450" class="cls-14" d="M223,273.38c-3.15,4.47-10.81,4.5-17.11.07s-8.85-11.66-5.7-16.14,10.81-4.5,17.11-.07S226.11,268.9,223,273.38Z"/>
      <path id="Tracé_451" data-name="Tracé 451" class="cls-14" d="M238.72,251a7.1,7.1,0,0,1-1.16,1.28c1.75-4.46-.89-10.65-6.52-14.61s-12.34-4.36-15.95-1.22a7.589,7.589,0,0,1,.81-1.51c3.15-4.47,10.82-4.51,17.12-.07S241.86,246.52,238.72,251Z"/>
      <path id="Tracé_452" data-name="Tracé 452" class="cls-14" d="M209,246.78a7.359,7.359,0,0,1-1.15,1.28c1.75-4.47-.88-10.65-6.52-14.62s-12.34-4.36-15.95-1.21a7.32,7.32,0,0,1,.81-1.51c3.15-4.48,10.81-4.51,17.11-.07S212.11,242.3,209,246.78Z"/>
      <path id="Tracé_453" data-name="Tracé 453" class="cls-14" d="M252.71,277.6a7.3,7.3,0,0,1-1.15,1.27c1.75-4.47-.89-10.65-6.52-14.61s-12.34-4.37-15.95-1.21a7.151,7.151,0,0,1,.81-1.52c3.15-4.48,10.81-4.51,17.11-.07S255.87,273.12,252.71,277.6Z"/>
      <path id="Tracé_454" data-name="Tracé 454" class="cls-14" d="M223,273.38a6.609,6.609,0,0,1-1.15,1.27c1.75-4.46-.89-10.65-6.52-14.61s-12.34-4.36-15.95-1.21a6.939,6.939,0,0,1,.81-1.52c3.15-4.48,10.81-4.5,17.11-.07S226.11,268.9,223,273.38Z"/>
      <path id="Tracé_455" data-name="Tracé 455" class="cls-6" d="M232.58,168.23s-13.5,17.52-25.26,32.6a15.48,15.48,0,0,1-14.21,5.71c-10.27-1.27-27,6-27,6S197.76,160.55,232.58,168.23Z"/>
      <path id="Tracé_456" data-name="Tracé 456" class="cls-11" d="M232.58,168.23s-13.5,17.52-25.26,32.6a15.48,15.48,0,0,1-14.21,5.71c-10.27-1.27-27,6-27,6S197.76,160.55,232.58,168.23Z"/>
      <path id="Tracé_457" data-name="Tracé 457" class="cls-6" d="M295.89,212.82S284,231.43,273.71,247.58a15.47,15.47,0,0,0-.58,15.3c4.66,9.25,3.44,27.49,3.44,27.49S314.86,243,295.89,212.82Z"/>
      <path id="Tracé_458" data-name="Tracé 458" class="cls-11" d="M295.89,212.82S284,231.43,273.71,247.58a15.47,15.47,0,0,0-.58,15.3c4.66,9.25,3.44,27.49,3.44,27.49S314.86,243,295.89,212.82Z"/>
      <path id="Tracé_459" data-name="Tracé 459" class="cls-6" d="M339.51,346.61C352,316.05,298,307.39,276.63,315.06s-43.16,13.37-44-7.08,15.62-33.13,7.77-37.85c-4.35-2.62-5.59,2-7.74,8.74-6.58,20.65-43.85,25.57-26.7,55.46s8,23.4-20.85,35.39-14,46.52,13.91,46.52H367.1C444.14,416.24,371.2,268.78,339.51,346.61Z"/>
      <path id="Tracé_460" data-name="Tracé 460" class="cls-15" d="M339.51,346.61C352,316.05,298,307.39,276.63,315.06s-43.16,13.37-44-7.08,15.62-33.13,7.77-37.85c-4.35-2.62-5.59,2-7.74,8.74-6.58,20.65-43.85,25.57-26.7,55.46s8,23.4-20.85,35.39-14,46.52,13.91,46.52H367.1C444.14,416.24,371.2,268.78,339.51,346.61Z"/>
      <path id="Tracé_461" data-name="Tracé 461" class="cls-6" d="M197.55,240.09c-2.24-7.78-14.36,2-26.3,13.85s-17.83,38.9-29.38,53S97.25,333.78,110.18,355c19.07,31.27-24.76,61.27,27.15,61.27H243.8c19.47,0,40.58-23.81,10.26-40s-75.74,21.56-88-14.45c-6.08-17.87,16-9.67,5.77-38.93s-9.55-37.23-4.34-50.27C180.17,240.84,201,251.91,197.55,240.09Z"/>
      <path id="Tracé_462" data-name="Tracé 462" class="cls-15" d="M197.55,240.09c-2.24-7.78-14.36,2-26.3,13.85s-17.83,38.9-29.38,53S97.25,333.78,110.18,355c19.07,31.27-24.76,61.27,27.15,61.27H243.8c19.47,0,40.58-23.81,10.26-40s-75.74,21.56-88-14.45c-6.08-17.87,16-9.67,5.77-38.93s-9.55-37.23-4.34-50.27C180.17,240.84,201,251.91,197.55,240.09Z"/>
      <path id="Tracé_463" data-name="Tracé 463" class="cls-6" d="M219.62,243.68c2.64-4.82,11.7-1.93,11.5,4.38s-23.66,14.58-19.3,36.37,46.24,23.35,56.07,45.18S239.64,354.5,251,368.15s46.42-17.7,71.4-9.64,49.94,57.73,4.12,57.73H185.33c-30.7,0-53.12-63.39-23.62-89.47s5.7-17.61,16.71-34.32S209.49,262.16,219.62,243.68Z"/>
      <path id="Tracé_464" data-name="Tracé 464" class="cls-16" d="M219.62,243.68c2.64-4.82,11.7-1.93,11.5,4.38s-23.66,14.58-19.3,36.37,46.24,23.35,56.07,45.18S239.64,354.5,251,368.15s46.42-17.7,71.4-9.64,49.94,57.73,4.12,57.73H185.33c-30.7,0-53.12-63.39-23.62-89.47s5.7-17.61,16.71-34.32S209.49,262.16,219.62,243.68Z"/>
    </g>
  </g>
</svg>
