<?xml version="1.0" standalone="no"?>
<!DOCTYPE svg PUBLIC "-//W3C//DTD SVG 20010904//EN"
 "http://www.w3.org/TR/2001/REC-SVG-20010904/DTD/svg10.dtd">
<svg version="1.0" xmlns="http://www.w3.org/2000/svg"
 width="260.000000pt" height="260.000000pt" viewBox="0 0 260.000000 260.000000"
 preserveAspectRatio="xMidYMid meet">
<metadata>
Created by potrace 1.11, written by Peter Selinger 2001-2013
</metadata>
<g transform="translate(0.000000,260.000000) scale(0.100000,-0.100000)"
fill="#000000" stroke="none">
<path d="M1372 2586 c-19 -10 -114 -87 -149 -120 -12 -12 -41 -37 -65 -57 -68
-57 -602 -513 -608 -519 -3 -3 -32 -27 -65 -55 -33 -27 -62 -52 -65 -55 -3 -3
-35 -31 -72 -62 -37 -31 -82 -74 -100 -95 -18 -21 -38 -44 -45 -51 -29 -31
-105 -164 -133 -234 -51 -129 -70 -243 -66 -388 5 -142 7 -154 42 -267 86
-280 307 -516 579 -618 128 -48 204 -60 365 -59 153 1 278 31 416 99 147 72
204 122 556 486 45 48 200 207 343 353 143 147 268 281 278 299 22 41 22 73
-1 117 -34 65 -58 70 -315 70 l-229 0 20 33 c11 17 32 55 47 82 15 28 61 111
103 185 41 74 88 160 105 190 16 30 40 73 52 95 13 22 32 56 42 75 11 19 57
102 103 184 45 81 84 163 87 181 6 43 -19 99 -52 121 -16 10 -47 18 -73 18
-42 1 -72 -13 -272 -125 -124 -69 -250 -140 -280 -156 -51 -28 -267 -148 -372
-207 -26 -14 -51 -26 -56 -26 -5 0 9 84 30 188 40 194 42 234 13 278 -30 46
-114 66 -163 40z m-87 -1121 c131 -84 229 -221 261 -366 12 -54 13 -178 3
-234 -32 -171 -159 -336 -319 -413 -100 -48 -117 -52 -235 -57 -209 -9 -387
81 -504 255 -163 242 -125 555 92 756 l62 58 7 -57 c21 -167 172 -269 331
-223 114 33 195 148 184 261 -3 28 -8 58 -12 68 -7 17 -6 17 36 1 24 -10 67
-32 94 -49z"/>
</g>
</svg>
