<svg xmlns="http://www.w3.org/2000/svg" width="136.54" height="28.84" viewBox="0 0 136.54 28.84">
	<defs>
		<style>
			.cls-1 {
				fill: #ebc44e;
			}

			.cls-2 {
				fill: currentColor;
			}
		</style>
	</defs>
	<g id="Groupe_65" data-name="Groupe 65" transform="translate(-2470.2 639)">
		<g id="bxs-meteor" transform="translate(2495.997 -639.001)">
			<path id="meteor" data-name="meteor" class="cls-1"
				  d="M15.811,2.166a1.2,1.2,0,0,0-1.386.122l-9.789,8.35A9,9,0,1,0,17.378,23.356l8.285-8.517A1.2,1.2,0,0,0,24.8,12.8H20.842l5.011-9.019a1.2,1.2,0,0,0-1.631-1.632L15.688,6.892l.691-3.455a1.2,1.2,0,0,0-.569-1.271ZM16.4,17A5.4,5.4,0,1,1,8.031,12.5a2.546,2.546,0,0,0-.03.3,2.4,2.4,0,1,0,4.615-.927A5.38,5.38,0,0,1,16.4,17Z"/>
		</g>
		<path id="text1" data-name="text1" class="cls-2"
			  d="M1.35,0H7.5V-10.08h.18l4.38,4.89h.3l4.38-4.89h.18V0h6.15V-18.15H16.83l-4.5,5.73h-.24l-4.5-5.73H1.35ZM43.17-13.29v-4.86H25.92V0H43.17V-4.86H32.07v-1.8h11.1v-4.86H32.07v-1.77ZM51.03,0h6.15V-13.29h6.06v-4.86H44.97v4.86h6.06ZM64.92,0h11.1c4.14,0,6.72-2.52,6.72-5.91s-2.49-5.61-6.81-5.61H71.91c-.75,0-1.05-.42-1.05-.9s.3-.87,1.05-.87h9.9v-4.86H70.95c-2.91,0-6.36,1.56-6.36,5.76,0,3.99,2.61,5.73,6.03,5.73h4.71c.78,0,1.14.3,1.14.87,0,.51-.33.93-1.11.93H64.92Z"
			  transform="translate(2524 -615.85)"/>
		<path id="text2" data-name="text2" class="cls-2"
			  d="M15.64.4A14.561,14.561,0,0,0,26.08-4.04l-6.6-6.56a5.058,5.058,0,0,1-3.84,1.76,5.181,5.181,0,0,1-5.16-5.2,5.173,5.173,0,0,1,5.16-5.16,5.127,5.127,0,0,1,3.92,1.8L26.08-24a14.492,14.492,0,0,0-10.44-4.44A14.425,14.425,0,0,0,1.2-14.04,14.434,14.434,0,0,0,15.64.4Z"
			  transform="translate(2469 -610.56)"/>
	</g>
</svg>
